<svg width="358" height="376" viewBox="0 0 358 376" fill="none" xmlns="http://www.w3.org/2000/svg">
<path d="M305.921 280.267V336.496M179.588 61.6762L305.921 134.423V279.74L179.588 352.486L53.2563 279.74V134.423L179.588 61.6762ZM305.921 279.74L179.588 206.993L53.2563 279.74H305.921ZM128.068 31.2773V89.7907L178.883 118.96L229.874 89.7907V31.2773L178.883 2.1084L128.068 31.2773ZM128.068 32.3316L178.883 61.5004L229.874 32.3316H128.068ZM178.883 61.6762V119.135V61.6762ZM2.26465 104.727V163.24L53.0798 192.409L103.895 163.24V104.727L53.0798 75.5577L2.26465 104.727ZM2.26465 105.957L53.0798 135.125L103.895 105.957H2.26465ZM53.0798 135.125V190.125V135.125ZM255.105 103.497V162.01L305.921 191.179L356.736 162.01V103.497L305.921 74.3277L255.105 103.497ZM255.105 104.727L305.921 133.895L356.736 104.727H255.105ZM305.921 133.895V188.895V133.895ZM128.068 321.385V379.898L178.883 409.067L229.698 379.898V321.385L178.883 292.216L128.068 321.385ZM128.068 322.439L178.883 351.608L229.698 322.439H128.068ZM178.883 351.608V407.837V351.608ZM128.068 176.594V235.108L178.883 264.277L229.698 235.108V176.594L178.883 147.426L128.068 176.594ZM128.068 176.594L178.883 206.993L229.698 177.825L128.068 176.594ZM178.883 206.993V263.223V206.993ZM2.26465 248.638V307.152L53.0798 336.32L103.895 307.152V248.638L53.0798 219.469L2.26465 248.638ZM2.26465 249.692L53.0798 278.861L103.895 249.692H2.26465ZM53.0798 279.037V335.266V279.037ZM255.105 249.868V308.382L305.921 337.55L356.736 308.382V249.868L305.921 220.699L255.105 249.868ZM255.105 250.922L305.921 280.091L356.736 250.922H255.105Z" stroke="url(#paint0_linear)" stroke-width="2" stroke-miterlimit="10" stroke-linecap="round"/>
<defs>
<linearGradient id="paint0_linear" x1="0.500232" y1="205.52" x2="358.566" y2="205.52" gradientUnits="userSpaceOnUse">
<stop stop-color="#053C75"/>
<stop offset="1" stop-color="#0862BE"/>
</linearGradient>
</defs>
</svg>
