<svg width="471" height="376" viewBox="0 0 471 376" fill="none" xmlns="http://www.w3.org/2000/svg">
<path d="M26.3031 212.105C29.3065 211.416 31.1829 208.425 30.4927 205.424C29.8038 202.423 26.8101 200.548 23.8068 201.237C20.8035 201.926 18.9282 204.917 19.6171 207.918C20.3061 210.919 23.2998 212.794 26.3031 212.105Z" fill="#0862BE" fill-opacity="0.6"/>
<path d="M10.8789 235.674C12.3926 235.327 13.3383 233.82 12.9904 232.307C12.6432 230.795 11.1345 229.85 9.62084 230.197C8.10721 230.544 7.1621 232.052 7.50933 233.564C7.85656 235.077 9.36532 236.022 10.8789 235.674Z" fill="#0862BE" fill-opacity="0.6"/>
<path d="M2.87678 177.688C2.75549 177.688 2.6342 177.688 2.51291 177.567C2.14901 177.325 2.149 176.961 2.27029 176.719L6.27315 170.295C6.51575 170.052 6.87962 169.931 7.12222 170.052C7.48611 170.295 7.48612 170.658 7.36483 170.901L3.36197 177.325C3.24067 177.567 2.99808 177.688 2.87678 177.688Z" fill="#0862BE" fill-opacity="0.6"/>
<path d="M7.97115 176.477C7.84985 176.477 7.72853 176.477 7.60723 176.356L1.17843 172.356C0.814539 172.113 0.814524 171.75 0.935822 171.507C1.17842 171.265 1.54233 171.144 1.78493 171.265L8.21372 175.265C8.57762 175.507 8.57763 175.871 8.45634 176.113C8.45634 176.356 8.21375 176.477 7.97115 176.477Z" fill="#0862BE" fill-opacity="0.6"/>
<path d="M428.929 348.885C430.372 351.608 433.747 352.646 436.467 351.203C439.187 349.76 440.223 346.384 438.78 343.661C437.338 340.938 433.963 339.901 431.243 341.343C428.522 342.785 427.486 346.162 428.929 348.885Z" fill="#0862BE" fill-opacity="0.6"/>
<path d="M456.11 317.349C456.079 317.232 456.047 317.115 456.133 316.966C456.273 316.552 456.624 316.458 456.89 316.512L464.131 318.716C464.428 318.888 464.639 319.208 464.585 319.474C464.445 319.888 464.093 319.982 463.828 319.927L456.587 317.724C456.321 317.669 456.141 317.466 456.11 317.349Z" fill="#0862BE" fill-opacity="0.6"/>
<path d="M458.599 321.956C458.568 321.839 458.536 321.722 458.622 321.574L460.822 314.329C460.962 313.914 461.313 313.82 461.579 313.875C461.875 314.046 462.087 314.366 462.032 314.632L459.833 321.877C459.693 322.291 459.342 322.385 459.076 322.331C458.842 322.394 458.662 322.191 458.599 321.956Z" fill="#0862BE" fill-opacity="0.6"/>
<path d="M422.732 328.444C422.715 328.38 422.697 328.315 422.744 328.234C422.821 328.007 423.013 327.956 423.159 327.986L427.122 329.192C427.285 329.286 427.401 329.461 427.371 329.607C427.294 329.833 427.102 329.885 426.957 329.855L422.993 328.649C422.847 328.619 422.749 328.508 422.732 328.444Z" fill="#0862BE" fill-opacity="0.6"/>
<path d="M424.094 330.966C424.077 330.902 424.06 330.838 424.107 330.756L425.311 326.79C425.388 326.564 425.58 326.512 425.725 326.542C425.888 326.636 426.003 326.811 425.974 326.956L424.77 330.922C424.693 331.149 424.501 331.201 424.355 331.171C424.227 331.205 424.129 331.094 424.094 330.966Z" fill="#0862BE" fill-opacity="0.6"/>
<path d="M421.057 48.7599C418.8 50.8582 418.671 54.3869 420.769 56.6408C422.866 58.8952 426.396 59.0217 428.653 56.9235C430.909 54.8253 431.038 51.2972 428.94 49.0427C426.843 46.7881 423.313 46.6617 421.057 48.7599Z" fill="#0862BE" fill-opacity="0.6"/>
<path d="M458.553 66.8524C458.658 66.7917 458.763 66.7311 458.929 66.7754C459.365 66.8034 459.547 67.1183 459.563 67.3889L459.309 74.9536C459.22 75.2848 458.965 75.5717 458.694 75.588C458.258 75.5601 458.076 75.2452 458.06 74.9746L458.315 67.4099C458.299 67.1393 458.448 66.913 458.553 66.8524Z" fill="#0862BE" fill-opacity="0.6"/>
<path d="M454.747 70.4493C454.852 70.3887 454.958 70.328 455.123 70.3723L462.691 70.6219C463.127 70.6499 463.309 70.9648 463.325 71.2354C463.236 71.5666 462.981 71.8535 462.711 71.8698L455.143 71.6203C454.707 71.5923 454.525 71.2774 454.509 71.0068C454.388 70.7969 454.537 70.5706 454.747 70.4493Z" fill="#0862BE" fill-opacity="0.6"/>
<g clip-path="url(#clip0)">
<path d="M349.921 280.267V336.496M223.588 61.6762L349.921 134.423V279.74L223.588 352.486L97.2563 279.74V134.423L223.588 61.6762ZM349.921 279.74L223.588 206.993L97.2563 279.74H349.921ZM172.068 31.2773V89.7907L222.883 118.96L273.874 89.7907V31.2773L222.883 2.1084L172.068 31.2773ZM172.068 32.3316L222.883 61.5004L273.874 32.3316H172.068ZM222.883 61.6762V119.135V61.6762ZM46.2646 104.727V163.24L97.0798 192.409L147.895 163.24V104.727L97.0798 75.5577L46.2646 104.727ZM46.2646 105.957L97.0798 135.125L147.895 105.957H46.2646ZM97.0798 135.125V190.125V135.125ZM299.105 103.497V162.01L349.921 191.179L400.736 162.01V103.497L349.921 74.3277L299.105 103.497ZM299.105 104.727L349.921 133.895L400.736 104.727H299.105ZM349.921 133.895V188.895V133.895ZM172.068 321.385V379.898L222.883 409.067L273.698 379.898V321.385L222.883 292.216L172.068 321.385ZM172.068 322.439L222.883 351.608L273.698 322.439H172.068ZM222.883 351.608V407.837V351.608ZM172.068 176.594V235.108L222.883 264.277L273.698 235.108V176.594L222.883 147.426L172.068 176.594ZM172.068 176.594L222.883 206.993L273.698 177.825L172.068 176.594ZM222.883 206.993V263.223V206.993ZM46.2646 248.638V307.152L97.0798 336.32L147.895 307.152V248.638L97.0798 219.469L46.2646 248.638ZM46.2646 249.692L97.0798 278.861L147.895 249.692H46.2646ZM97.0798 279.037V335.266V279.037ZM299.105 249.868V308.382L349.921 337.55L400.736 308.382V249.868L349.921 220.699L299.105 249.868ZM299.105 250.922L349.921 280.091L400.736 250.922H299.105Z" stroke="url(#paint0_linear)" stroke-width="2" stroke-miterlimit="10" stroke-linecap="round"/>
</g>
<defs>
<linearGradient id="paint0_linear" x1="44.5002" y1="205.52" x2="402.566" y2="205.52" gradientUnits="userSpaceOnUse">
<stop stop-color="#053C75"/>
<stop offset="1" stop-color="#0862BE"/>
</linearGradient>
<clipPath id="clip0">
<rect x="44" width="358" height="376" fill="white"/>
</clipPath>
</defs>
</svg>
