<svg width="117" height="27" viewBox="0 0 117 27" fill="none" xmlns="http://www.w3.org/2000/svg">
<path d="M26.0029 18.2501H8.74573V8.87383H6.09078V19.5424C6.09078 20.252 6.68943 20.8349 7.41824 20.8349H22.5411L19.4176 23.5717H2.65495V8.06293H6.06475H8.7197H19.9122C20.2505 8.06293 20.5629 7.93621 20.7971 7.73351L26.8879 2.41186C27.3044 2.05708 27.4345 1.47423 27.2523 0.992751C27.0441 0.485928 26.5495 0.156494 26.0029 0.156494H7.41824C6.68943 0.156494 6.09078 0.739341 6.09078 1.44889V4.66722H8.74573V2.74129H22.5411L19.4176 5.47815H8.74573H6.09078H1.32748C0.598665 5.47815 0 6.06097 0 6.77054V24.8641C0 25.5736 0.598665 26.1565 1.32748 26.1565H19.9122C20.2505 26.1565 20.5629 26.0298 20.7971 25.8271L26.8879 20.5054C27.3044 20.1506 27.4345 19.5678 27.2523 19.0863C27.0441 18.5795 26.5495 18.2501 26.0029 18.2501Z" fill="white"/>
<path d="M39.9672 5.98169C42.874 5.98169 46.0229 7.52607 46.5764 11.1521C45.3651 11.1521 44.2582 11.1521 43.047 11.1521C42.5279 9.77554 41.4897 9.13765 39.9672 9.13765C37.8568 9.13765 36.4726 10.6821 36.4726 12.9315C36.4726 14.946 37.822 16.6919 39.9672 16.7254C41.4897 16.7254 42.7357 15.9868 43.1161 14.5095C44.3273 14.5095 45.4347 14.5095 46.6455 14.5095C46.1264 18.3706 42.9779 19.8814 39.9672 19.8814C36.4034 19.915 32.7701 17.5648 32.7701 12.9315C32.7701 8.29828 36.3687 5.98169 39.9672 5.98169Z" fill="white"/>
<path d="M47.7194 12.9647C47.7194 3.53033 62.1482 3.53033 62.1482 12.9647C62.1138 22.4326 47.7194 22.4326 47.7194 12.9647ZM58.4458 12.9647C58.4458 8.06282 51.387 8.06282 51.387 12.9647C51.387 17.9337 58.4458 17.9337 58.4458 12.9647Z" fill="white"/>
<path d="M76.0584 6.08252H77.3388V19.7808C76.1276 19.7808 74.882 19.7808 73.6712 19.7808V13.7039L70.6952 16.7591H70.28L67.3041 13.7039V19.7808C66.0929 19.7808 64.8473 19.7808 63.6365 19.7808V6.08252H64.9512L70.4531 11.9916L76.0584 6.08252Z" fill="white"/>
<path d="M84.9853 19.7809H79.6913V6.11621H84.9853C94.1549 6.18337 94.1549 19.7473 84.9853 19.7809ZM83.2898 16.5914H84.9853C89.449 16.5914 89.449 9.30579 84.9853 9.30579H83.2898V16.5914Z" fill="white"/>
<path d="M102.182 9.23863C100.106 9.23863 99.0334 9.23863 96.9922 9.23863V11.1859H101.767C101.767 12.2267 101.767 13.2675 101.767 14.2748H96.9575C96.9575 15.0805 96.9575 15.8527 96.9575 16.6585C99.0334 16.6585 100.245 16.6585 102.355 16.6585C102.355 17.6658 102.355 18.7401 102.355 19.7473C99.0682 19.7473 96.6462 19.7473 93.3933 19.7473C93.3933 15.1813 93.3933 10.6152 93.3933 6.11621C96.6462 6.11621 98.8604 6.11621 102.182 6.11621C102.182 7.15702 102.182 8.19782 102.182 9.23863Z" fill="white"/>
<path d="M110.349 15.4834L107.65 19.7809H103.878V19.2438L108.411 12.5289L104.363 6.6534V6.11621H108.031L110.314 9.67509H110.418L112.771 6.11621H116.37V6.6534L112.356 12.5289L116.923 19.2438V19.7809H113.152L110.453 15.4834H110.349Z" fill="white"/>
</svg>
