<svg width="125" height="22" viewBox="0 0 125 22" fill="none" xmlns="http://www.w3.org/2000/svg">
<path d="M9.83154 21.355C6.81462 21.355 4.49951 20.48 2.88623 18.73C1.28206 16.9709 0.47998 14.4416 0.47998 11.1421C0.47998 11.0783 0.47998 11.0145 0.47998 10.9507C0.47998 7.92464 1.34587 5.47738 3.07764 3.60889C4.81852 1.7404 7.12907 0.806152 10.0093 0.806152C10.064 0.806152 10.1187 0.806152 10.1733 0.806152C12.3426 0.806152 14.4071 1.27555 16.3667 2.21436L14.7124 6.46631C13.8647 6.06527 13.0809 5.75993 12.3608 5.55029C11.6499 5.34066 10.9025 5.23584 10.1187 5.23584C8.84261 5.23584 7.84001 5.76449 7.11084 6.82178C6.39079 7.86995 6.03076 9.31917 6.03076 11.1694C6.03076 15.0158 7.49365 16.939 10.4194 16.939C11.7775 16.939 13.4683 16.5197 15.4917 15.6812V20.2476C13.8237 20.9858 11.937 21.355 9.83154 21.355ZM21.4455 3.41748C23.1135 1.65837 25.5334 0.778809 28.7053 0.778809C31.8863 0.778809 34.2971 1.64925 35.9377 3.39014C37.5783 5.13102 38.3987 7.68766 38.3987 11.0601C38.3987 14.4233 37.5738 16.98 35.924 18.73C34.2743 20.48 31.8681 21.355 28.7053 21.355C25.5516 21.355 23.1363 20.4754 21.4592 18.7163C19.7912 16.9572 18.9572 14.4097 18.9572 11.0737C18.9572 7.72868 19.7867 5.1766 21.4455 3.41748ZM28.7053 5.2085C25.9983 5.2085 24.6447 7.1499 24.6447 11.0327C24.6447 14.9155 25.9891 16.8569 28.6779 16.8569C30.0451 16.8569 31.0569 16.3875 31.7131 15.4487C32.3785 14.5099 32.7112 13.047 32.7112 11.0601C32.7112 9.07308 32.3785 7.60107 31.7131 6.64404C31.0477 5.68701 30.0451 5.2085 28.7053 5.2085ZM65.0517 21.0815H60.0888V12.3179C60.0888 11.6799 60.0934 11.1785 60.1025 10.814C60.1116 10.4403 60.1754 9.07308 60.2939 6.7124H60.1708L56.1376 21.0815H50.997L46.9091 6.68506H46.7861C46.9775 9.13688 47.0732 11.0418 47.0732 12.3999V21.0815H42.288V1.09326H49.4794L53.6357 15.2847H53.7451L57.8466 1.09326H65.0517V21.0815ZM69.6383 1.09326H76.5563C79.7646 1.09326 82.2392 1.91357 83.9801 3.5542C85.7301 5.19482 86.6051 7.56462 86.6051 10.6636C86.6051 13.9995 85.6846 16.5698 83.8434 18.3745C82.0114 20.1792 79.432 21.0815 76.1051 21.0815H69.6383V1.09326ZM75.0387 5.45459V16.6519H76.2419C77.8734 16.6519 79.0719 16.1779 79.8376 15.23C80.6032 14.2821 80.986 12.8602 80.986 10.9644C80.986 9.05941 80.626 7.66488 79.9059 6.78076C79.1859 5.89665 78.0876 5.45459 76.611 5.45459H75.0387ZM102.348 5.42725H95.8812V8.57178H101.856V12.9058H95.8812V16.6792H102.348V21.0815H90.4808V1.09326H102.348V5.42725ZM117.312 11.2788L124.134 21.0815H117.886L113.989 14.8335L110.134 21.0815H104.023L110.653 10.855L104.419 1.09326H110.407L114.017 7.27295L117.476 1.09326H123.655L117.312 11.2788Z" fill="white"/>
</svg>
