<svg width="233" height="245" viewBox="0 0 233 245" fill="none" xmlns="http://www.w3.org/2000/svg">
<path d="M199.096 182.429V218.918M116.874 40.5771L199.096 87.7849V182.086L116.874 229.294L34.6521 182.086V87.7849L116.874 40.5771ZM199.096 182.086L116.874 134.879L34.6521 182.086H199.096ZM83.3421 20.8501V58.8216L116.415 77.7503L149.602 58.8216V20.8501L116.415 1.92139L83.3421 20.8501ZM83.3421 21.5343L116.415 40.463L149.602 21.5343H83.3421ZM116.415 40.5771V77.8644V40.5771ZM1.46484 68.514V106.486L34.5373 125.414L67.6097 106.486V68.514L34.5373 49.5853L1.46484 68.514ZM1.46484 69.3122L34.5373 88.241L67.6097 69.3122H1.46484ZM34.5373 88.241V123.932V88.241ZM166.023 67.7158V105.687L199.096 124.616L232.168 105.687V67.7158L199.096 48.7871L166.023 67.7158ZM166.023 68.514L199.096 87.4428L232.168 68.514H166.023ZM199.096 87.4428V123.134V87.4428ZM83.3421 209.111V247.083L116.415 266.011L149.487 247.083V209.111L116.415 190.182L83.3421 209.111ZM83.3421 209.795L116.415 228.724L149.487 209.795H83.3421ZM116.415 228.724V265.213V228.724ZM83.3421 115.152V153.123L116.415 172.052L149.487 153.123V115.152L116.415 96.223L83.3421 115.152ZM83.3421 115.152L116.415 134.879L149.487 115.95L83.3421 115.152ZM116.415 134.879V171.368V134.879ZM1.46484 161.903V199.875L34.5373 218.804L67.6097 199.875V161.903L34.5373 142.975L1.46484 161.903ZM1.46484 162.588L34.5373 181.516L67.6097 162.588H1.46484ZM34.5373 181.63V218.119V181.63ZM166.023 162.702V200.673L199.096 219.602L232.168 200.673V162.702L199.096 143.773L166.023 162.702ZM166.023 163.386L199.096 182.314L232.168 163.386H166.023Z" stroke="url(#paint0_linear)" stroke-width="2" stroke-miterlimit="10" stroke-linecap="round"/>
<defs>
<linearGradient id="paint0_linear" x1="0.316495" y1="133.923" x2="233.359" y2="133.923" gradientUnits="userSpaceOnUse">
<stop stop-color="#053C75"/>
<stop offset="1" stop-color="#0862BE"/>
</linearGradient>
</defs>
</svg>
