<svg width="47" height="45" viewBox="0 0 47 45" fill="none" xmlns="http://www.w3.org/2000/svg">
<path d="M44.1384 30.9658H14.9043V15.0823H10.4068V33.1552C10.4068 34.3572 11.4209 35.3446 12.6555 35.3446H38.274L32.9827 39.9808H4.58642V13.7086H10.3627H14.8602H33.8205C34.3938 13.7086 34.9228 13.494 35.3197 13.1506L45.6376 4.13558C46.3431 3.53457 46.5636 2.54722 46.2549 1.73158C45.9022 0.873009 45.0644 0.314941 44.1384 0.314941H12.6555C11.4209 0.314941 10.4068 1.3023 10.4068 2.50429V7.95621H14.9043V4.69365H38.274L32.9827 9.32994H14.9043H10.4068H2.33764C1.10302 9.32994 0.0888672 10.3173 0.0888672 11.5193V42.1702C0.0888672 43.3722 1.10302 44.3595 2.33764 44.3595H33.8205C34.3938 44.3595 34.9228 44.1449 35.3197 43.8015L45.6376 34.7865C46.3431 34.1855 46.5636 33.1981 46.2549 32.3825C45.9022 31.524 45.0644 30.9658 44.1384 30.9658Z" fill="#FE4350"/>
</svg>
