<svg width="641" height="85" viewBox="0 0 641 85" fill="none" xmlns="http://www.w3.org/2000/svg">
<path d="M118.423 37.7086V49.4066H135V60.2808H118.423V72.9674H139.759V84.2535H104.336V26.4225H139.759V37.7086H118.423Z" fill="white"/>
<path d="M186.901 83.9041L176.017 62.0733H170.351V83.9041H156.264V26.0731H179.907C184.466 26.0731 188.338 26.8694 191.523 28.4621C194.763 30.0548 197.18 32.2516 198.772 35.0525C200.365 37.7986 201.161 40.8741 201.161 44.2791C201.161 48.1236 200.063 51.5561 197.866 54.5767C195.724 57.5973 192.539 59.7392 188.31 61.0024L201.656 83.9041H186.901ZM170.351 52.1053H179.084C181.665 52.1053 183.587 51.4737 184.85 50.2105C186.168 48.9474 186.827 47.1625 186.827 44.8558C186.827 42.659 186.168 40.929 184.85 39.6658C183.587 38.4027 181.665 37.7711 179.084 37.7711H170.351V52.1053Z" fill="white"/>
<path d="M236.751 84.8302C232.522 84.8302 228.732 84.1437 225.382 82.7707C222.032 81.3977 219.341 79.3656 217.309 76.6745C215.332 73.9834 214.288 70.7431 214.179 66.9536H229.172C229.391 69.0955 230.133 70.7431 231.396 71.8965C232.659 72.9949 234.307 73.5441 236.339 73.5441C238.426 73.5441 240.073 73.0773 241.282 72.1436C242.49 71.1551 243.094 69.8095 243.094 68.107C243.094 66.679 242.6 65.4983 241.611 64.5646C240.678 63.631 239.497 62.8621 238.069 62.258C236.696 61.6538 234.719 60.9673 232.137 60.1985C228.403 59.0451 225.355 57.8918 222.993 56.7385C220.632 55.5852 218.6 53.8826 216.897 51.6309C215.195 49.3792 214.343 46.4409 214.343 42.8162C214.343 37.434 216.293 33.2326 220.192 30.212C224.092 27.1365 229.172 25.5987 235.433 25.5987C241.803 25.5987 246.938 27.1365 250.838 30.212C254.737 33.2326 256.824 37.4615 257.099 42.8986H241.858C241.749 41.0313 241.062 39.5759 239.799 38.5324C238.536 37.434 236.916 36.8848 234.938 36.8848C233.236 36.8848 231.863 37.3516 230.819 38.2853C229.776 39.164 229.254 40.4546 229.254 42.1572C229.254 44.0244 230.133 45.4798 231.89 46.5233C233.648 47.5668 236.394 48.6927 240.128 49.9009C243.863 51.1641 246.884 52.3723 249.19 53.5256C251.552 54.679 253.584 56.354 255.286 58.5509C256.989 60.7477 257.84 63.5761 257.84 67.036C257.84 70.3312 256.989 73.3244 255.286 76.0155C253.639 78.7066 251.222 80.8485 248.037 82.4412C244.852 84.0338 241.089 84.8302 236.751 84.8302Z" fill="white"/>
<path d="M287.187 26.4225V84.2535H273.1V26.4225H287.187Z" fill="white"/>
<path d="M324.911 84.8302C320.682 84.8302 316.892 84.1437 313.542 82.7707C310.192 81.3977 307.501 79.3656 305.469 76.6745C303.492 73.9834 302.448 70.7431 302.338 66.9536H317.332C317.551 69.0955 318.293 70.7431 319.556 71.8965C320.819 72.9949 322.467 73.5441 324.499 73.5441C326.586 73.5441 328.233 73.0773 329.442 72.1436C330.65 71.1551 331.254 69.8095 331.254 68.107C331.254 66.679 330.76 65.4983 329.771 64.5646C328.837 63.631 327.657 62.8621 326.229 62.258C324.856 61.6538 322.879 60.9673 320.297 60.1985C316.563 59.0451 313.515 57.8918 311.153 56.7385C308.792 55.5852 306.759 53.8826 305.057 51.6309C303.354 49.3792 302.503 46.4409 302.503 42.8162C302.503 37.434 304.453 33.2326 308.352 30.212C312.252 27.1365 317.332 25.5987 323.593 25.5987C329.963 25.5987 335.098 27.1365 338.998 30.212C342.897 33.2326 344.984 37.4615 345.259 42.8986H330.018C329.908 41.0313 329.222 39.5759 327.959 38.5324C326.696 37.434 325.075 36.8848 323.098 36.8848C321.396 36.8848 320.023 37.3516 318.979 38.2853C317.936 39.164 317.414 40.4546 317.414 42.1572C317.414 44.0244 318.293 45.4798 320.05 46.5233C321.808 47.5668 324.554 48.6927 328.288 49.9009C332.023 51.1641 335.043 52.3723 337.35 53.5256C339.712 54.679 341.744 56.354 343.446 58.5509C345.149 60.7477 346 63.5761 346 67.036C346 70.3312 345.149 73.3244 343.446 76.0155C341.799 78.7066 339.382 80.8485 336.197 82.4412C333.011 84.0338 329.249 84.8302 324.911 84.8302Z" fill="white"/>
<path d="M402.862 26.4225V37.7086H387.539V84.2535H373.452V37.7086H358.129V26.4225H402.862Z" fill="white"/>
<path d="M430.609 37.7086V49.4066H447.186V60.2808H430.609V72.9674H451.946V84.2535H416.522V26.4225H451.946V37.7086H430.609Z" fill="white"/>
<path d="M519.416 84.2535H505.329L481.769 48.5828V84.2535H467.682V26.4225H481.769L505.329 62.258V26.4225H519.416V84.2535Z" fill="white"/>
<path d="M533.829 55.2556C533.829 49.5439 535.065 44.4638 537.536 40.0153C540.008 35.5118 543.44 32.0244 547.834 29.553C552.282 27.0266 557.308 25.7635 562.909 25.7635C569.774 25.7635 575.651 27.5758 580.539 31.2006C585.427 34.8253 588.694 39.7681 590.342 46.029H574.855C573.701 43.6125 572.054 41.7727 569.912 40.5096C567.825 39.2464 565.436 38.6148 562.745 38.6148C558.406 38.6148 554.891 40.1251 552.2 43.1457C549.509 46.1663 548.163 50.203 548.163 55.2556C548.163 60.3083 549.509 64.3449 552.2 67.3656C554.891 70.3862 558.406 71.8965 562.745 71.8965C565.436 71.8965 567.825 71.2649 569.912 70.0017C572.054 68.7386 573.701 66.8987 574.855 64.4822H590.342C588.694 70.7432 585.427 75.686 580.539 79.3107C575.651 82.8805 569.774 84.6654 562.909 84.6654C557.308 84.6654 552.282 83.4297 547.834 80.9583C543.44 78.432 540.008 74.9445 537.536 70.496C535.065 66.0475 533.829 60.9673 533.829 55.2556Z" fill="white"/>
<path d="M619.646 37.7086V49.4066H636.223V60.2808H619.646V72.9674H640.983V84.2535H605.559V26.4225H640.983V37.7086H619.646Z" fill="white"/>
<rect x="0.45752" y="0.510269" width="84.3235" height="84.32" rx="5" fill="white"/>
<path d="M64.864 45.2731C64.864 48.6549 64.0879 51.7594 62.5356 54.5868C60.9833 57.3587 58.5995 59.604 55.384 61.3226C52.1686 63.0412 48.177 63.9005 43.4093 63.9005H34.5945V84.8563H20.3745V26.4794H43.4093C48.0661 26.4794 52.0023 27.2833 55.2177 28.891C58.4331 30.4987 60.8447 32.7162 62.4524 35.5436C64.0602 38.371 64.864 41.6142 64.864 45.2731ZM42.3282 52.591C45.0447 52.591 47.0682 51.9535 48.3987 50.6784C49.7293 49.4033 50.3945 47.6015 50.3945 45.2731C50.3945 42.9447 49.7293 41.1429 48.3987 39.8678C47.0682 38.5927 45.0447 37.9552 42.3282 37.9552H34.5945V52.591H42.3282Z" fill="black"/>
<path d="M64.864 11.6903H20.3745V21.0852H64.864V11.6903Z" fill="#E50913"/>
</svg>
