<svg width="126" height="28" viewBox="0 0 126 28" fill="none" xmlns="http://www.w3.org/2000/svg">
<path d="M28.2204 19.3416H9.77281V9.31863H6.93473V20.7231C6.93473 21.4817 7.57467 22.1047 8.35375 22.1047H24.5197L21.1808 25.0303H3.26191V8.4518H6.9069H9.74498H21.7095C22.0712 8.4518 22.4051 8.31633 22.6555 8.09965L29.1664 2.41093C29.6116 2.03168 29.7507 1.40863 29.5559 0.893939C29.3333 0.352157 28.8047 0 28.2204 0H8.35375C7.57467 0 6.93473 0.623049 6.93473 1.38154V4.82186H9.77281V2.76309H24.5197L21.1808 5.68872H9.77281H6.93473H1.84287C1.06379 5.68872 0.423828 6.31174 0.423828 7.07026V26.4118C0.423828 27.1703 1.06379 27.7934 1.84287 27.7934H21.7095C22.0712 27.7934 22.4051 27.658 22.6555 27.4412L29.1664 21.7525C29.6116 21.3733 29.7507 20.7502 29.5559 20.2355C29.3333 19.6938 28.8047 19.3416 28.2204 19.3416Z" fill="#FE4350"/>
<path d="M43.148 6.22705C46.2553 6.22705 49.6215 7.87796 50.2131 11.7541C48.9183 11.7541 47.7351 11.7541 46.4403 11.7541C45.8854 10.2826 44.7756 9.6007 43.148 9.6007C40.8921 9.6007 39.4124 11.2516 39.4124 13.6563C39.4124 15.8097 40.855 17.676 43.148 17.7118C44.7756 17.7118 46.1075 16.9222 46.5142 15.3431C47.809 15.3431 48.9927 15.3431 50.287 15.3431C49.7321 19.4705 46.3664 21.0855 43.148 21.0855C39.3385 21.1214 35.4546 18.6091 35.4546 13.6563C35.4546 8.70343 39.3013 6.22705 43.148 6.22705Z" fill="#FAFBFD"/>
<path d="M51.4346 13.6918C51.4346 3.60666 66.8586 3.60666 66.8586 13.6918C66.8219 23.8127 51.4346 23.8127 51.4346 13.6918ZM62.9008 13.6918C62.9008 8.45178 55.3552 8.45178 55.3552 13.6918C55.3552 19.0035 62.9008 19.0035 62.9008 13.6918Z" fill="#FAFBFD"/>
<path d="M81.7285 6.33496H83.0972V20.9781C81.8024 20.9781 80.4709 20.9781 79.1765 20.9781V14.482L75.9954 17.748H75.5515L72.3703 14.482V20.9781C71.0756 20.9781 69.744 20.9781 68.4497 20.9781V6.33496H69.8551L75.7365 12.6516L81.7285 6.33496Z" fill="#FAFBFD"/>
<path d="M91.271 20.9783H85.6118V6.37109H91.271C101.073 6.44289 101.073 20.9424 91.271 20.9783ZM89.4585 17.5688H91.271C96.0426 17.5688 96.0426 9.78068 91.271 9.78068H89.4585V17.5688Z" fill="#FAFBFD"/>
<path d="M109.655 9.70889C107.435 9.70889 106.288 9.70889 104.106 9.70889V11.7905H109.211C109.211 12.9031 109.211 14.0157 109.211 15.0924H104.069C104.069 15.9537 104.069 16.7792 104.069 17.6406C106.288 17.6406 107.583 17.6406 109.84 17.6406C109.84 18.7173 109.84 19.8658 109.84 20.9424C106.326 20.9424 103.736 20.9424 100.259 20.9424C100.259 16.0614 100.259 11.1804 100.259 6.37109C103.736 6.37109 106.103 6.37109 109.655 6.37109C109.655 7.48369 109.655 8.59629 109.655 9.70889Z" fill="#FAFBFD"/>
<path d="M118.384 16.3844L115.499 20.9783H111.467V20.4041L116.313 13.2261L111.985 6.94534V6.37109H115.906L118.347 10.1754H118.458L120.973 6.37109H124.82V6.94534L120.529 13.2261L125.412 20.4041V20.9783H121.38L118.495 16.3844H118.384Z" fill="#FAFBFD"/>
</svg>
