<svg width="1285" height="211" viewBox="0 0 1285 211" fill="none" xmlns="http://www.w3.org/2000/svg">
<g clip-path="url(#clip0_1388_245)">
<path d="M364.13 0.130005H14.1299C6.3979 0.130005 0.129883 6.39802 0.129883 14.13V196.13C0.129883 203.862 6.3979 210.13 14.1299 210.13H364.13C371.862 210.13 378.13 203.862 378.13 196.13V14.13C378.13 6.39802 371.862 0.130005 364.13 0.130005Z" fill="#FBAB30" stroke="black" stroke-width="0.26" stroke-miterlimit="10"/>
<path d="M105.13 41.99H63.1299V83.99H105.13V41.99Z" fill="#363535" stroke="#F9F7F4" stroke-width="0.06" stroke-miterlimit="10"/>
<path d="M147.13 41.99H105.13V83.99H147.13V41.99Z" fill="#F9F7F4" stroke="black" stroke-width="0.35" stroke-miterlimit="10"/>
<path d="M105.13 83.99H63.1299V125.99H105.13V83.99Z" fill="#F9F7F4" stroke="black" stroke-width="0.35" stroke-miterlimit="10"/>
<path d="M147.13 83.99H105.13V125.99H147.13V83.99Z" fill="#F9F7F4" stroke="black" stroke-width="0.35" stroke-miterlimit="10"/>
<path d="M105.13 125.99H63.1299V167.99H105.13V125.99Z" fill="#F9F7F4" stroke="black" stroke-width="0.35" stroke-miterlimit="10"/>
<path d="M147.13 125.99H105.13V167.99H147.13V125.99Z" fill="#F9F7F4" stroke="black" stroke-width="0.35" stroke-miterlimit="10"/>
<path d="M230.99 42.13H188.99V84.13H230.99V42.13Z" fill="#363535" stroke="#F9F7F4" stroke-width="0.28" stroke-miterlimit="10"/>
<path d="M272.99 42.13H230.99V84.13H272.99V42.13Z" fill="#363535" stroke="#F9F7F4" stroke-width="0.28" stroke-miterlimit="10"/>
<path d="M314.99 42.13H272.99V84.13H314.99V42.13Z" fill="#363535" stroke="#F9F7F4" stroke-width="0.28" stroke-miterlimit="10"/>
<path d="M230.99 84.13H188.99V126.13H230.99V84.13Z" fill="#363535" stroke="#F9F7F4" stroke-width="0.28" stroke-miterlimit="10"/>
<path d="M272.99 84.13H230.99V126.13H272.99V84.13Z" fill="#363535" stroke="#F9F7F4" stroke-width="0.28" stroke-miterlimit="10"/>
<path d="M314.99 84.13H272.99V126.13H314.99V84.13Z" fill="#363535" stroke="#F9F7F4" stroke-width="0.28" stroke-miterlimit="10"/>
<path d="M230.99 126.13H188.99V168.13H230.99V126.13Z" fill="#363535" stroke="#F9F7F4" stroke-width="0.28" stroke-miterlimit="10"/>
<path d="M272.99 126.13H230.99V168.13H272.99V126.13Z" fill="#F9F7F4" stroke="black" stroke-width="0.24" stroke-miterlimit="10"/>
<path d="M314.99 126.13H272.99V168.13H314.99V126.13Z" fill="#363535" stroke="#F9F7F4" stroke-width="0.28" stroke-miterlimit="10"/>
<path d="M189.13 41.99H147.13V83.99H189.13V41.99Z" fill="#F9F7F4" stroke="black" stroke-width="0.35" stroke-miterlimit="10"/>
<path d="M189.13 83.99H147.13V125.99H189.13V83.99Z" fill="#F9F7F4" stroke="black" stroke-width="0.35" stroke-miterlimit="10"/>
<path d="M189.13 125.99H147.13V167.99H189.13V125.99Z" fill="#F9F7F4" stroke="black" stroke-width="0.35" stroke-miterlimit="10"/>
<path d="M418.5 158.09L447.3 53.09H478.65L507.45 158.09H488.85L482.55 134.09H443.4L437.1 158.09H418.5ZM447.6 117.59H478.35L464.25 64.34H461.7L447.6 117.59Z" fill="#FFFDFA" stroke="#363535" stroke-width="0.23" stroke-miterlimit="10"/>
<path d="M547.5 160.19C537.9 160.19 530 158.09 523.8 153.89C517.6 149.69 513.85 143.54 512.55 135.44L528.45 131.39C529.15 135.19 530.4 138.19 532.2 140.39C534 142.59 536.22 144.14 538.88 145.04C541.53 145.94 544.4 146.39 547.5 146.39C552.2 146.39 555.72 145.54 558.07 143.84C560.42 142.14 561.59 139.99 561.59 137.39C561.59 134.79 560.47 132.69 558.21 131.39C555.96 130.09 552.53 128.99 547.94 128.09L543.29 127.34C538.19 126.34 533.54 124.97 529.34 123.22C525.14 121.47 521.77 119.07 519.22 116.02C516.67 112.97 515.4 109.1 515.4 104.4C515.4 97.2 518.07 91.65 523.43 87.75C528.78 83.85 535.81 81.9 544.5 81.9C553.19 81.9 559.65 83.75 565.05 87.45C570.45 91.15 573.95 96.1 575.55 102.3L559.65 107.1C558.85 102.9 557.1 99.93 554.4 98.18C551.7 96.43 548.4 95.56 544.5 95.56C540.6 95.56 537.42 96.26 535.27 97.66C533.12 99.06 532.05 101.06 532.05 103.66C532.05 106.26 533.15 108.21 535.35 109.51C537.55 110.81 540.5 111.76 544.2 112.36L548.85 113.26C554.35 114.26 559.32 115.56 563.78 117.16C568.23 118.76 571.75 121.06 574.35 124.06C576.95 127.06 578.25 131.11 578.25 136.21C578.25 143.91 575.47 149.84 569.93 153.98C564.38 158.13 556.9 160.21 547.5 160.21V160.19Z" fill="#FFFDFA" stroke="#363535" stroke-width="0.23" stroke-miterlimit="10"/>
<path d="M621.75 160.19C612.15 160.19 604.25 158.09 598.05 153.89C591.85 149.69 588.1 143.54 586.8 135.44L602.7 131.39C603.4 135.19 604.65 138.19 606.45 140.39C608.25 142.59 610.47 144.14 613.13 145.04C615.78 145.94 618.65 146.39 621.75 146.39C626.45 146.39 629.97 145.54 632.32 143.84C634.67 142.14 635.84 139.99 635.84 137.39C635.84 134.79 634.72 132.69 632.46 131.39C630.21 130.09 626.78 128.99 622.19 128.09L617.54 127.34C612.44 126.34 607.79 124.97 603.59 123.22C599.39 121.47 596.02 119.07 593.47 116.02C590.92 112.97 589.65 109.1 589.65 104.4C589.65 97.2 592.32 91.65 597.68 87.75C603.03 83.85 610.06 81.9 618.75 81.9C627.44 81.9 633.9 83.75 639.3 87.45C644.7 91.15 648.2 96.1 649.8 102.3L633.9 107.1C633.1 102.9 631.35 99.93 628.65 98.18C625.95 96.43 622.65 95.56 618.75 95.56C614.85 95.56 611.67 96.26 609.52 97.66C607.37 99.06 606.3 101.06 606.3 103.66C606.3 106.26 607.4 108.21 609.6 109.51C611.8 110.81 614.75 111.76 618.45 112.36L623.1 113.26C628.6 114.26 633.57 115.56 638.03 117.16C642.48 118.76 646 121.06 648.6 124.06C651.2 127.06 652.5 131.11 652.5 136.21C652.5 143.91 649.72 149.84 644.18 153.98C638.63 158.13 631.15 160.21 621.75 160.21V160.19Z" fill="#FFFDFA" stroke="#363535" stroke-width="0.23" stroke-miterlimit="10"/>
<path d="M699.3 160.19C691.9 160.19 685.37 158.61 679.72 155.46C674.07 152.31 669.67 147.86 666.52 142.11C663.37 136.36 661.8 129.64 661.8 121.94V120.14C661.8 112.34 663.35 105.59 666.45 99.89C669.55 94.19 673.9 89.77 679.5 86.62C685.1 83.47 691.55 81.89 698.85 81.89C706.15 81.89 712.35 83.47 717.75 86.62C723.15 89.77 727.35 94.2 730.35 99.89C733.35 105.59 734.85 112.24 734.85 119.84V125.99H679.2C679.4 131.79 681.45 136.44 685.35 139.94C689.25 143.44 694.05 145.19 699.75 145.19C705.45 145.19 709.5 143.97 712.2 141.51C714.9 139.06 716.95 136.29 718.35 133.19L732.6 140.54C731.2 143.24 729.17 146.12 726.53 149.16C723.88 152.21 720.35 154.81 715.96 156.96C711.56 159.11 706.01 160.19 699.31 160.19H699.3ZM679.35 112.94H717.3C716.9 108.04 715.02 104.14 711.68 101.24C708.33 98.34 704 96.89 698.7 96.89C693.4 96.89 688.8 98.34 685.5 101.24C682.2 104.14 680.15 108.04 679.35 112.94Z" fill="#FFFDFA" stroke="#363535" stroke-width="0.23" stroke-miterlimit="10"/>
<path d="M776.25 158.09C771.45 158.09 767.63 156.67 764.78 153.82C761.93 150.97 760.5 147.1 760.5 142.2V98.25H741.15V84H760.5V60.15H777.75V84H799.05V98.25H777.75V139.35C777.75 142.35 779.15 143.85 781.95 143.85H796.8V158.1H776.25V158.09Z" fill="#FFFDFA" stroke="#363535" stroke-width="0.23" stroke-miterlimit="10"/>
<path d="M815.24 158.09V53.09H848.99L869.39 145.94H871.94L892.49 53.09H926.09V158.09H908.69V66.14H906.14L885.74 158.09H855.74L835.34 66.14H832.79V158.09H815.24Z" fill="#FFFDFA" stroke="#363535" stroke-width="0.23" stroke-miterlimit="10"/>
<path d="M966.74 160.19C961.54 160.19 956.841 159.26 952.641 157.42C948.441 155.57 945.11 152.9 942.66 149.39C940.21 145.89 938.98 141.59 938.98 136.49C938.98 131.39 940.2 127.29 942.66 123.89C945.11 120.49 948.481 117.92 952.781 116.17C957.081 114.42 961.98 113.55 967.48 113.55H988.93V109.05C988.93 105.15 987.731 101.98 985.331 99.52C982.931 97.07 979.181 95.85 974.081 95.85C968.981 95.85 965.31 97.03 962.76 99.37C960.21 101.72 958.53 104.75 957.73 108.45L941.831 103.2C943.031 99.3 944.95 95.75 947.6 92.55C950.25 89.35 953.77 86.77 958.18 84.82C962.58 82.87 967.98 81.89 974.38 81.89C984.08 81.89 991.7 84.32 997.26 89.17C1002.81 94.02 1005.58 101.05 1005.58 110.24V139.34C1005.58 142.34 1006.98 143.84 1009.78 143.84H1016.08V158.09H1003.93C1000.33 158.09 997.381 157.19 995.081 155.39C992.781 153.59 991.63 151.14 991.63 148.04V147.74H989.081C988.481 149.14 987.43 150.84 985.93 152.84C984.43 154.84 982.15 156.57 979.1 158.01C976.05 159.46 971.92 160.19 966.72 160.19H966.74ZM969.591 146.09C975.291 146.09 979.94 144.47 983.54 141.21C987.14 137.96 988.94 133.59 988.94 128.09V126.59H968.54C964.84 126.59 961.84 127.39 959.54 128.99C957.24 130.59 956.091 132.94 956.091 136.04C956.091 139.14 957.29 141.47 959.69 143.31C962.09 145.16 965.391 146.08 969.591 146.08V146.09Z" fill="#FFFDFA" stroke="#363535" stroke-width="0.23" stroke-miterlimit="10"/>
<path d="M1026.59 158.09V83.99H1043.54V94.34H1046.09C1047.39 91.54 1049.74 88.89 1053.14 86.39C1056.54 83.89 1061.69 82.64 1068.59 82.64C1074.29 82.64 1079.34 83.94 1083.74 86.54C1088.14 89.14 1091.56 92.74 1094.01 97.34C1096.46 101.94 1097.69 107.39 1097.69 113.69V158.09H1080.44V115.04C1080.44 109.04 1078.96 104.57 1076.01 101.61C1073.06 98.66 1068.89 97.19 1063.49 97.19C1057.39 97.19 1052.59 99.21 1049.09 103.26C1045.59 107.31 1043.84 113.09 1043.84 120.59V158.09H1026.59Z" fill="#FFFDFA" stroke="#363535" stroke-width="0.23" stroke-miterlimit="10"/>
<path d="M1143.29 158.09C1138.49 158.09 1134.67 156.67 1131.82 153.82C1128.97 150.97 1127.54 147.1 1127.54 142.2V98.25H1108.19V84H1127.54V60.15H1144.79V84H1166.09V98.25H1144.79V139.35C1144.79 142.35 1146.19 143.85 1148.99 143.85H1163.84V158.1H1143.29V158.09Z" fill="#FFFDFA" stroke="#363535" stroke-width="0.23" stroke-miterlimit="10"/>
<path d="M1179.89 158.09V53.09H1197.14V158.09H1179.89Z" fill="#FFFDFA" stroke="#363535" stroke-width="0.23" stroke-miterlimit="10"/>
<path d="M1249.19 160.19C1241.79 160.19 1235.26 158.61 1229.61 155.46C1223.96 152.31 1219.56 147.86 1216.41 142.11C1213.26 136.36 1211.69 129.64 1211.69 121.94V120.14C1211.69 112.34 1213.24 105.59 1216.34 99.89C1219.44 94.19 1223.79 89.77 1229.39 86.62C1234.99 83.47 1241.44 81.89 1248.74 81.89C1256.04 81.89 1262.24 83.47 1267.64 86.62C1273.04 89.77 1277.24 94.2 1280.24 99.89C1283.24 105.59 1284.74 112.24 1284.74 119.84V125.99H1229.09C1229.29 131.79 1231.34 136.44 1235.24 139.94C1239.14 143.44 1243.94 145.19 1249.64 145.19C1255.34 145.19 1259.39 143.97 1262.09 141.51C1264.79 139.06 1266.84 136.29 1268.24 133.19L1282.49 140.54C1281.09 143.24 1279.06 146.12 1276.42 149.16C1273.77 152.21 1270.24 154.81 1265.85 156.96C1261.45 159.11 1255.9 160.19 1249.2 160.19H1249.19ZM1229.24 112.94H1267.19C1266.79 108.04 1264.91 104.14 1261.57 101.24C1258.22 98.34 1253.89 96.89 1248.59 96.89C1243.29 96.89 1238.69 98.34 1235.39 101.24C1232.09 104.14 1230.04 108.04 1229.24 112.94Z" fill="#FFFDFA" stroke="#363535" stroke-width="0.23" stroke-miterlimit="10"/>
</g>
<defs>
<clipPath id="clip0_1388_245">
<rect width="1285" height="211" fill="white"/>
</clipPath>
</defs>
</svg>
