<svg width="148" height="25" viewBox="0 0 148 25" fill="none" xmlns="http://www.w3.org/2000/svg">
    <path d="M34.216 10.4829V13.3195H39.766V16.9949H34.216V20.1275H40.506V24.0002H29.3813V6.6102H40.506V10.4829H34.216Z" fill="white"/>
    <path d="M53.033 24.0002L49.6537 19.0915L46.7677 24.0002H41.267L46.9157 15.0955L41.0697 6.6102H46.7677L50.0484 11.3955L52.8604 6.6102H58.361L52.7864 15.3669L58.731 24.0002H53.033Z" fill="white"/>
    <path d="M73.3894 12.4069C73.3894 13.4593 73.1427 14.4213 72.6494 15.2929C72.1725 16.148 71.4407 16.8386 70.454 17.3649C69.4838 17.8746 68.2916 18.1295 66.8774 18.1295H64.4847V24.0002H59.65V6.6102H66.8774C68.2752 6.6102 69.4592 6.85687 70.4294 7.3502C71.416 7.84353 72.156 8.52598 72.6494 9.39753C73.1427 10.2691 73.3894 11.2722 73.3894 12.4069ZM66.4087 14.2815C67.7736 14.2815 68.456 13.6566 68.456 12.4069C68.456 11.1406 67.7736 10.5075 66.4087 10.5075H64.4847V14.2815H66.4087Z" fill="white"/>
    <path d="M79.4264 20.3002H84.8284V24.0002H74.5917V6.6102H79.4264V20.3002Z" fill="white"/>
    <path d="M94.3056 24.1729C92.6776 24.1729 91.1811 23.7946 89.8162 23.0382C88.4513 22.2653 87.366 21.2046 86.5602 19.8562C85.7709 18.4913 85.3762 16.9538 85.3762 15.2435C85.3762 13.5333 85.7709 12.004 86.5602 10.6555C87.366 9.29065 88.4513 8.22998 89.8162 7.47353C91.1811 6.71709 92.6776 6.33887 94.3056 6.33887C95.95 6.33887 97.4465 6.71709 98.7949 7.47353C100.16 8.22998 101.237 9.29065 102.026 10.6555C102.816 12.004 103.21 13.5333 103.21 15.2435C103.21 16.9538 102.816 18.4913 102.026 19.8562C101.237 21.2046 100.16 22.2653 98.7949 23.0382C97.43 23.7946 95.9336 24.1729 94.3056 24.1729ZM94.3056 19.6835C95.5389 19.6835 96.5091 19.2806 97.2162 18.4749C97.9398 17.6691 98.3016 16.592 98.3016 15.2435C98.3016 13.8622 97.9398 12.7769 97.2162 11.9875C96.5091 11.1818 95.5389 10.7789 94.3056 10.7789C93.0558 10.7789 92.0773 11.1818 91.3702 11.9875C90.6631 12.7769 90.3096 13.8622 90.3096 15.2435C90.3096 16.6084 90.6631 17.6938 91.3702 18.4995C92.0773 19.2889 93.0558 19.6835 94.3056 19.6835Z" fill="white"/>
    <path d="M113.45 24.0002L109.996 17.5869H109.478V24.0002H104.644V6.6102H112.266C113.663 6.6102 114.847 6.85687 115.818 7.3502C116.788 7.82709 117.52 8.49309 118.013 9.3482C118.506 10.1869 118.753 11.1324 118.753 12.1849C118.753 13.3689 118.424 14.4131 117.766 15.3175C117.125 16.2055 116.179 16.8386 114.93 17.2169L118.852 24.0002H113.45ZM109.478 14.2815H111.871C112.529 14.2815 113.022 14.1253 113.351 13.8129C113.68 13.5004 113.844 13.0482 113.844 12.4562C113.844 11.8971 113.672 11.4613 113.326 11.1489C112.997 10.82 112.512 10.6555 111.871 10.6555H109.478V14.2815Z" fill="white"/>
    <path d="M125.046 10.4829V13.3195H130.596V16.9949H125.046V20.1275H131.336V24.0002H120.212V6.6102H131.336V10.4829H125.046Z" fill="white"/>
    <path d="M141.791 24.0002L138.338 17.5869H137.82V24.0002H132.985V6.6102H140.607C142.005 6.6102 143.189 6.85687 144.159 7.3502C145.129 7.82709 145.861 8.49309 146.355 9.3482C146.848 10.1869 147.095 11.1324 147.095 12.1849C147.095 13.3689 146.766 14.4131 146.108 15.3175C145.467 16.2055 144.521 16.8386 143.271 17.2169L147.193 24.0002H141.791ZM137.82 14.2815H140.213C140.87 14.2815 141.364 14.1253 141.693 13.8129C142.021 13.5004 142.186 13.0482 142.186 12.4562C142.186 11.8971 142.013 11.4613 141.668 11.1489C141.339 10.82 140.854 10.6555 140.213 10.6555H137.82V14.2815Z" fill="white"/>
    <rect y="1" width="23.056" height="23.0551" rx="11.5275" fill="white"/>
    <mask id="mask0" mask-type="alpha" maskUnits="userSpaceOnUse" x="0" y="1" width="24" height="24">
        <rect y="1" width="23.056" height="23.0551" rx="11.5275" fill="white"/>
    </mask>
    <g mask="url(#mask0)">
        <path d="M17.1413 14.0724C17.1413 14.9257 16.9455 15.7091 16.5538 16.4226C16.1621 17.122 15.5605 17.6886 14.7492 18.1222C13.9378 18.5559 12.9306 18.7727 11.7275 18.7727H9.50325V24.0606H5.91504V9.33008H11.7275C12.9026 9.33008 13.8958 9.53292 14.7072 9.93861C15.5186 10.3443 16.1271 10.9039 16.5328 11.6173C16.9385 12.3307 17.1413 13.1491 17.1413 14.0724ZM11.4547 15.919C12.1402 15.919 12.6508 15.7581 12.9865 15.4363C13.3223 15.1146 13.4902 14.6599 13.4902 14.0724C13.4902 13.4849 13.3223 13.0302 12.9865 12.7085C12.6508 12.3867 12.1402 12.2258 11.4547 12.2258H9.50325V15.919H11.4547Z" fill="#252525"/>
    </g>
    <path d="M17.2142 5.59863H5.91406V7.96929H17.2142V5.59863Z" fill="#E50913"/>
</svg>