<svg width="25" height="21" viewBox="0 0 25 21" fill="none" xmlns="http://www.w3.org/2000/svg">
    <path d="M13.2275 0L0.0527344 9.37437L5.60161 16.7597L18.7764 7.3853L13.2275 0Z" fill="#053C75"/>
    <path d="M13.0823 0.658936L0.742188 9.43937L5.74969 16.1041L18.0898 7.32368L13.0823 0.658936Z" fill="#F9F2D9"/>
    <path d="M6.30619 6.95166L2.17188 9.89338L2.30688 10.073L6.44118 7.13133L6.30619 6.95166Z" fill="#95CBAD"/>
    <path d="M6.57817 7.31299L2.44336 10.2547L2.57834 10.4344L6.71315 7.49267L6.57817 7.31299Z" fill="#95CBAD"/>
    <path d="M6.84719 7.67236L2.71289 10.6141L2.84787 10.7937L6.98219 7.85203L6.84719 7.67236Z" fill="#95CBAD"/>
    <path d="M9.05815 10.6147L4.92383 13.5565L5.05883 13.7361L9.19313 10.7944L9.05815 10.6147Z" fill="#95CBAD"/>
    <path d="M9.32961 10.9751L5.19531 13.9168L5.3303 14.0965L9.46461 11.1548L9.32961 10.9751Z" fill="#95CBAD"/>
    <path d="M9.59915 11.3374L5.46484 14.2791L5.59983 14.4588L9.73413 11.5171L9.59915 11.3374Z" fill="#95CBAD"/>
    <path d="M7.97611 9.1748L3.8418 12.1165L3.9768 12.2962L8.1111 9.35447L7.97611 9.1748Z" fill="#95CBAD"/>
    <path d="M8.24758 9.53516L4.11328 12.4769L4.24827 12.6565L8.38258 9.71481L8.24758 9.53516Z" fill="#95CBAD"/>
    <path d="M12.6616 2.42969L8.52734 5.37141L8.66233 5.55107L12.7966 2.60935L12.6616 2.42969Z" fill="#95CBAD"/>
    <path d="M12.9312 2.79004L8.79688 5.73175L8.93186 5.91142L13.0662 2.9697L12.9312 2.79004Z" fill="#95CBAD"/>
    <path d="M13.2027 3.15259L9.06836 6.0943L9.20336 6.27397L13.3377 3.33225L13.2027 3.15259Z" fill="#95CBAD"/>
    <path d="M11.6957 8.73901L11.2812 9.03389L11.4162 9.21358L11.8307 8.91871L11.6957 8.73901Z" fill="#95CBAD"/>
    <path d="M14.3316 4.65308L10.1973 7.59479L10.3323 7.77446L14.4666 4.83274L14.3316 4.65308Z" fill="#95CBAD"/>
    <path d="M14.6036 5.01392L10.4688 7.95563L10.6037 8.13531L14.7386 5.1936L14.6036 5.01392Z" fill="#95CBAD"/>
    <path d="M12.7609 2.47734L13.5079 2.50576L12.4543 1.104L11.5078 1.77647L12.5614 3.18059L12.7609 2.47734Z" fill="#FE4350"/>
    <path d="M13.4023 8.38998C13.4023 8.38998 13.5386 9.18319 14.5411 8.56993C15.5411 7.95667 15.2929 8.40418 15.2929 8.40418L15.1688 7.58728L14.2515 7.32446L13.4023 8.38998Z" fill="#C69262"/>
    <path d="M18.27 11.087C18.27 11.087 17.3137 8.97959 17.1338 8.10113C16.9537 7.22267 16.1434 7.48075 16.1434 7.48075L14.3478 6.65202L14.0095 6.64966C13.321 8.17927 12.5643 8.21479 12.6446 8.26451C13.6348 8.87541 14.2237 7.93064 14.2237 7.93064C15.012 8.21241 15.248 8.77832 15.248 8.77832C15.248 8.77832 15.3745 9.2803 14.7541 9.50524C14.1336 9.72783 13.7297 8.65756 13.2042 8.57944C12.6786 8.50129 12.6421 8.52024 12.6421 8.52024L13.1214 9.60233L14.1263 10.7247C14.5181 10.8928 16.2529 12.1122 16.2529 12.1122L16.6252 12.5905L19.2773 16.99L21.5693 15.2567L18.27 11.087Z" fill="#F4CE8E"/>
    <path d="M19.1503 10.949L16.2227 12.9074L16.5205 13.3289L19.448 11.3705L19.1503 10.949Z" fill="#951A45"/>
    <path d="M19.6777 11.2168L16.2949 13.4797L21.655 20.968V14.2303L19.6777 11.2168Z" fill="#471540"/>
    <path d="M12.6624 8.67407C12.6576 8.67683 12.6528 8.67683 12.6504 8.6796C12.6528 8.67683 12.6576 8.67683 12.6624 8.67407Z" fill="#F4CE8E"/>
    <path d="M12.6058 8.4729C12.601 8.4729 12.5961 8.47577 12.5938 8.47577C12.5961 8.47577 12.601 8.47577 12.6058 8.4729Z" fill="#F4CE8E"/>
    <path d="M12.7181 8.87534L12.6621 8.67407L12.7181 8.87534Z" fill="#F4CE8E"/>
    <path d="M12.6614 8.67416L12.6055 8.4729L12.6614 8.67416Z" fill="#DC5B3E"/>
    <path d="M12.6621 8.67407L12.7181 8.87535H12.7205L19.0078 7.19418L18.9518 6.99292L12.6621 8.67407Z" fill="#F89830"/>
    <path d="M12.6055 8.4729L12.6614 8.67416L18.9512 6.99301L18.8928 6.79175L12.6055 8.4729Z" fill="#DC5B3E"/>
    <path d="M12.5513 8.27148L12.6072 8.47274L18.8945 6.79159L18.8386 6.59033L12.5488 8.27148H12.5513Z" fill="#951A45"/>
    <path d="M12.6612 8.67407C12.6564 8.67407 12.6515 8.67645 12.6491 8.67645C12.5566 8.70249 12.4933 8.76643 12.508 8.82325C12.5128 8.83982 12.525 8.85403 12.5396 8.86586L12.7148 8.87534L12.6612 8.67407Z" fill="#F6DEBC"/>
    <path d="M12.6066 8.4729C12.6017 8.4729 12.5968 8.47528 12.5944 8.47528C12.5019 8.50132 12.4387 8.56524 12.4533 8.6197C12.4679 8.67416 12.5579 8.70021 12.6503 8.67416C12.6552 8.67416 12.6601 8.6718 12.6625 8.66943L12.6066 8.4729Z" fill="#DC5B3E"/>
    <path d="M12.5478 8.27148C12.5478 8.27386 12.5478 8.27386 12.5478 8.27148L12.4018 8.36858C12.3945 8.38515 12.3897 8.40409 12.3945 8.42066C12.4091 8.47512 12.4992 8.50117 12.5916 8.47512C12.5965 8.47275 12.6014 8.47275 12.6038 8.47039L12.5478 8.27148Z" fill="#951A45"/>
    <path d="M12.6067 8.47275L12.5508 8.27148L12.6067 8.47275Z" fill="#951A45"/>
    <path d="M12.5417 8.86597C12.5247 8.8565 12.5149 8.84229 12.5101 8.82335C12.4955 8.7689 12.5563 8.70259 12.6512 8.67654C12.5587 8.70259 12.4711 8.67654 12.4541 8.62208C12.4395 8.56762 12.5003 8.50132 12.5952 8.47764C12.5028 8.5037 12.4152 8.47764 12.3981 8.4232C12.3933 8.40661 12.3957 8.38766 12.4054 8.37109L12.0234 8.61735L12.0867 8.83755L12.5417 8.86597Z" fill="#F4CE8E"/>
    <path d="M12.0881 8.83976L12.0248 8.61719L11.7207 8.81845L12.0881 8.83976Z" fill="#471540"/>
    <path d="M18.9562 6.55957L18.7051 6.62671L18.8754 7.22944L19.1264 7.1623L18.9562 6.55957Z" fill="#B3B3B3"/>
    <path d="M19.0067 7.1943L19.3036 7.11616C19.4155 7.08538 19.4983 7.03329 19.486 6.9954L19.3522 6.5242C19.3425 6.48868 19.2427 6.48159 19.1309 6.51237L18.834 6.59051L19.0067 7.1943Z" fill="#F4CE8E"/>
    <path d="M13.2066 8.57929C12.681 8.50114 12.6445 8.52009 12.6445 8.52009L12.7929 8.85632L13.4475 8.6811C13.3696 8.62901 13.2893 8.59112 13.2066 8.57929Z" fill="#F4CE8E"/>
    <path d="M14.3089 7.80029L12.6495 8.24309C12.6374 8.25018 12.6349 8.2573 12.6447 8.26203C13.635 8.87292 14.2262 7.92816 14.2287 7.93052C14.2457 7.90212 14.2992 7.81688 14.3089 7.80029Z" fill="#F4CE8E"/>
    <path d="M14.0533 7.76232C14.0484 7.76943 14.0435 7.77652 14.0411 7.78364C14.0387 7.786 14.0362 7.79073 14.0362 7.79309C14.0265 7.80968 14.0508 7.7789 14.0362 7.79309C14.0022 7.82863 13.9997 7.88307 14.0362 7.91859C14.0727 7.95412 14.1287 7.95174 14.1652 7.91859C14.1701 7.91387 14.1725 7.91149 14.1774 7.90676C14.1579 7.92333 14.1749 7.90913 14.1774 7.90676C14.1895 7.89966 14.2017 7.89255 14.2139 7.88781C14.2601 7.86888 14.2698 7.80494 14.2455 7.76705C14.2333 7.74811 14.2138 7.73154 14.192 7.7268C14.1652 7.7197 14.1457 7.7268 14.1214 7.73627C14.0898 7.75048 14.0606 7.77179 14.0362 7.79309C14.08 7.83572 14.1214 7.87598 14.1652 7.91859C14.1847 7.89728 14.1968 7.87598 14.2114 7.85229C14.2382 7.81204 14.2212 7.75522 14.1798 7.73154C14.1336 7.70549 14.0776 7.72206 14.0533 7.76232Z" fill="#F4CE8E"/>
    <path d="M14.1586 7.71286C14.0953 7.7389 14.0394 7.76968 13.9785 7.80046C14.0247 7.8265 14.0686 7.85019 14.1148 7.87623C14.1148 7.86676 14.1148 7.85966 14.1148 7.85019C14.1148 7.78389 14.0369 7.74126 13.9785 7.77442C13.9274 7.80282 13.9055 7.8265 13.8569 7.86202C13.8982 7.87149 13.9396 7.88333 13.981 7.8928C13.9785 7.88806 13.9761 7.88097 13.9712 7.87623C13.9493 7.83362 13.8885 7.82177 13.8471 7.84545C13.8082 7.86913 13.7668 7.88806 13.723 7.90227C13.7522 7.952 13.7814 7.99936 13.8106 8.04909C13.8204 8.03488 13.8325 8.02303 13.8423 8.00884C13.9031 7.93305 13.8277 7.81941 13.7328 7.87149C13.6647 7.90701 13.6014 7.9449 13.5284 7.96858C13.5576 8.01829 13.5868 8.06566 13.616 8.11538C13.633 8.08934 13.6525 8.07039 13.6792 8.05382C13.7595 7.98989 13.6549 7.8644 13.5697 7.91648C13.5138 7.94964 13.4603 7.97568 13.397 7.99225C13.4262 8.04198 13.4554 8.08934 13.4846 8.13907C13.5016 8.12486 13.5187 8.11065 13.5333 8.09408C13.599 8.03488 13.5308 7.91886 13.4457 7.94726C13.3483 7.97804 13.2559 8.01357 13.1707 8.06566C13.0734 8.12722 13.1634 8.27875 13.2632 8.2172C13.3362 8.17221 13.414 8.1438 13.4943 8.11538C13.4651 8.06566 13.4359 8.01829 13.4067 7.96858C13.3897 7.98278 13.3727 7.99699 13.3581 8.01356C13.2899 8.07513 13.3605 8.18168 13.4457 8.16037C13.5235 8.13907 13.5917 8.10827 13.6622 8.06802C13.6257 8.02303 13.5892 7.97568 13.5527 7.93069C13.526 7.94726 13.5065 7.96621 13.4895 7.99225C13.4384 8.05382 13.4822 8.16985 13.577 8.13907C13.6647 8.11065 13.7425 8.06802 13.8252 8.02541C13.7887 7.98042 13.7522 7.93305 13.7157 7.88806C13.706 7.90227 13.6938 7.91412 13.6841 7.92832C13.633 7.99225 13.6768 8.10353 13.7717 8.07513C13.8325 8.05855 13.8812 8.03014 13.9372 7.99936C13.8958 7.98989 13.8544 7.97804 13.8131 7.96858C13.8155 7.97568 13.8179 7.98042 13.8228 7.98515C13.8423 8.02303 13.908 8.04435 13.9469 8.01593C13.9858 7.98751 14.0272 7.94964 14.0686 7.92832C14.0223 7.90227 13.9785 7.8786 13.9323 7.85255C13.9323 7.86202 13.9323 7.86913 13.9323 7.87861C13.9323 7.94726 14.0077 7.98515 14.0686 7.95437C14.1148 7.93069 14.1294 7.89517 14.1756 7.87149C14.2827 7.8265 14.2656 7.67023 14.1586 7.71286Z" fill="#F4CE8E"/>
    <path d="M13.4231 8.04409C13.3111 7.98251 13.1895 8.04882 13.0922 8.11038C13.0094 8.16247 13.0605 8.30691 13.1627 8.27139C13.2017 8.25718 13.226 8.24535 13.2576 8.21693C13.3185 8.16485 13.2674 8.06775 13.1944 8.06775C13.1311 8.06775 13.0849 8.09144 13.0265 8.11038C13.0557 8.16011 13.0849 8.20746 13.1141 8.25718C13.1238 8.25009 13.1311 8.24297 13.1408 8.23588C13.2017 8.18615 13.153 8.08196 13.0776 8.0867C13.0411 8.08908 13.0167 8.09144 12.9802 8.10327C13.0046 8.15773 13.0265 8.20983 13.0508 8.2643C13.063 8.25718 13.0751 8.25009 13.0873 8.24297C13.1725 8.18615 13.1214 8.06066 13.0167 8.08196C12.9559 8.09617 12.9121 8.12695 12.8635 8.16011C12.7953 8.20983 12.8124 8.32348 12.9097 8.32348C12.9145 8.32348 12.9218 8.32348 12.9267 8.32348C12.9267 8.2643 12.9267 8.2051 12.9267 8.14826C12.8975 8.15064 12.8683 8.15537 12.8391 8.16011C12.7637 8.17432 12.7491 8.28796 12.8172 8.32112C12.8197 8.32348 12.8221 8.32348 12.8269 8.32586C12.8342 8.27139 12.8415 8.21931 12.8488 8.16485C12.8269 8.16958 12.8148 8.19562 12.7905 8.20036C12.6761 8.23114 12.7345 8.35426 12.8488 8.33295C12.8781 8.32822 12.8805 8.33769 12.9097 8.32586C13.0167 8.28087 12.9243 8.12933 12.8172 8.17432C12.8051 8.17668 12.8026 8.19799 12.7905 8.20272C12.8075 8.25956 12.8124 8.29744 12.8269 8.35426C12.8488 8.34952 12.8732 8.34243 12.8951 8.33769C12.9681 8.31874 12.9875 8.2122 12.917 8.17668C12.9145 8.17432 12.9121 8.17432 12.9072 8.17194C12.8999 8.2264 12.8926 8.27849 12.8853 8.33295C12.8975 8.33059 12.9121 8.32822 12.9243 8.32822C13.0386 8.31874 13.0435 8.153 12.9243 8.153C12.9194 8.153 12.9121 8.153 12.9072 8.153C12.9218 8.20746 12.9389 8.26192 12.9535 8.31638C12.9875 8.29034 13.0192 8.2643 13.063 8.25482C13.0386 8.20036 13.0167 8.14826 12.9924 8.0938C12.9802 8.10327 12.9681 8.11038 12.9559 8.11512C12.8683 8.16485 12.9267 8.30927 13.0265 8.27613C13.0435 8.27375 13.0581 8.26902 13.0751 8.26666C13.0532 8.21693 13.0313 8.16721 13.0119 8.11748C13.0021 8.12459 12.9948 8.13169 12.9851 8.13879C12.917 8.19563 12.99 8.31401 13.0727 8.2856C13.1116 8.27139 13.1506 8.24771 13.1944 8.25009C13.1725 8.20036 13.1506 8.15064 13.1311 8.10091C13.1262 8.10327 13.1214 8.10565 13.1165 8.10801C13.1408 8.16247 13.1627 8.21457 13.1871 8.26902C13.2138 8.25009 13.3014 8.18378 13.3355 8.20272C13.4328 8.25245 13.5253 8.10091 13.4231 8.04409Z" fill="#F4CE8E"/>
</svg>