<svg width="161" height="137" viewBox="0 0 161 137" fill="none" xmlns="http://www.w3.org/2000/svg">
<path d="M85.1904 1.28881e-05L0.344727 61.1566L36.0795 109.337L120.925 48.1803L85.1904 1.28881e-05Z" fill="#053C75"/>
<path d="M84.2445 4.29839L4.77441 61.5803L37.0227 105.06L116.493 47.7779L84.2445 4.29839Z" fill="#F9F2D9"/>
<path d="M40.6147 45.3518L13.9897 64.543L14.8591 65.7151L41.484 46.5239L40.6147 45.3518Z" fill="#95CBAD"/>
<path d="M42.3587 47.7078L15.7305 66.899L16.5998 68.0712L43.228 48.88L42.3587 47.7078Z" fill="#95CBAD"/>
<path d="M44.0917 50.0535L17.4668 69.2447L18.3361 70.4168L44.9611 51.2256L44.0917 50.0535Z" fill="#95CBAD"/>
<path d="M58.3359 69.2487L31.7109 88.4399L32.5803 89.612L59.2052 70.4208L58.3359 69.2487Z" fill="#95CBAD"/>
<path d="M60.0746 71.5992L33.4497 90.7904L34.319 91.9625L60.944 72.7713L60.0746 71.5992Z" fill="#95CBAD"/>
<path d="M61.8222 73.9626L35.1973 93.1538L36.0666 94.3259L62.6915 75.1347L61.8222 73.9626Z" fill="#95CBAD"/>
<path d="M51.3696 59.855L24.7446 79.0462L25.614 80.2183L52.2389 61.0271L51.3696 59.855Z" fill="#95CBAD"/>
<path d="M53.1078 62.2062L26.4829 81.3974L27.3522 82.5695L53.9772 63.3782L53.1078 62.2062Z" fill="#95CBAD"/>
<path d="M81.5419 15.8515L54.917 35.0427L55.7863 36.2148L82.4113 17.0236L81.5419 15.8515Z" fill="#95CBAD"/>
<path d="M83.2802 18.2021L56.6553 37.3933L57.5246 38.5654L84.1495 19.3742L83.2802 18.2021Z" fill="#95CBAD"/>
<path d="M85.0278 20.566L58.4028 39.7572L59.2722 40.9293L85.8971 21.7381L85.0278 20.566Z" fill="#95CBAD"/>
<path d="M75.32 57.0114L72.6509 58.9351L73.5202 60.1074L76.1893 58.1837L75.32 57.0114Z" fill="#95CBAD"/>
<path d="M92.2968 30.355L65.6719 49.5462L66.5412 50.7183L93.1661 31.5271L92.2968 30.355Z" fill="#95CBAD"/>
<path d="M94.0447 32.7095L67.4165 51.9007L68.2858 53.0729L94.9141 33.8817L94.0447 32.7095Z" fill="#95CBAD"/>
<path d="M82.1865 16.1624L86.997 16.3478L80.2121 7.20303L74.1167 11.5901L80.9016 20.7503L82.1865 16.1624Z" fill="#FE4350"/>
<path d="M86.3076 54.7342C86.3076 54.7342 87.1851 59.909 93.641 55.9082C100.081 51.9074 98.4828 54.8269 98.4828 54.8269L97.6837 49.4976L91.7763 47.783L86.3076 54.7342Z" fill="#C69262"/>
<path d="M117.662 72.3287C117.662 72.3287 111.504 58.5806 110.345 52.8497C109.185 47.1188 103.967 48.8025 103.967 48.8025L92.403 43.396L90.2249 43.3806C85.7905 53.3595 80.9173 53.5912 81.4344 53.9156C87.8118 57.901 91.6039 51.7375 91.6039 51.7375C96.6808 53.5757 98.2007 57.2676 98.2007 57.2676C98.2007 57.2676 99.0155 60.5424 95.0198 62.0099C91.0241 63.462 88.423 56.4798 85.0383 55.9701C81.6537 55.4603 81.4187 55.5839 81.4187 55.5839L84.5056 62.6433L90.9771 69.9653C93.4999 71.062 104.672 79.0174 104.672 79.0174L107.07 82.1377L124.149 110.839L138.91 99.5313L117.662 72.3287Z" fill="#F4CE8E"/>
<path d="M123.334 71.4296L104.48 84.2059L106.398 86.9556L125.251 74.1793L123.334 71.4296Z" fill="#951A45"/>
<path d="M126.727 73.1759L104.942 87.9387L139.461 136.791L139.461 92.8353L126.727 73.1759Z" fill="#471540"/>
<path d="M81.5442 56.5879C81.5128 56.603 81.4815 56.603 81.4658 56.6182C81.4815 56.603 81.5128 56.603 81.5442 56.5879Z" fill="#F4CE8E"/>
<path d="M81.1843 55.2749C81.153 55.2749 81.1216 55.2906 81.106 55.2906C81.1216 55.2906 81.153 55.2906 81.1843 55.2749Z" fill="#F4CE8E"/>
<path d="M81.9048 57.9009L81.5444 56.5879L81.9048 57.9009Z" fill="#F4CE8E"/>
<path d="M81.544 56.5879L81.1836 55.2749L81.544 56.5879Z" fill="#DC5B3E"/>
<path d="M81.5435 56.5879L81.9039 57.901H81.9195L122.41 46.9334L122.049 45.6204L81.5435 56.5879Z" fill="#F89830"/>
<path d="M81.1836 55.2749L81.544 56.5879L122.05 45.6204L121.674 44.3074L81.1836 55.2749Z" fill="#DC5B3E"/>
<path d="M80.8228 53.9619L81.1832 55.2749L121.673 44.3074L121.313 42.9944L80.8071 53.9619H80.8228Z" fill="#951A45"/>
<path d="M81.5436 56.5879C81.5123 56.5879 81.481 56.6034 81.4653 56.6034C80.8699 56.7733 80.4624 57.1904 80.5565 57.5611C80.5878 57.6692 80.6661 57.7619 80.7602 57.8391L81.8884 57.9009L81.5436 56.5879Z" fill="#F6DEBC"/>
<path d="M81.1833 55.2749C81.152 55.2749 81.1206 55.2904 81.1049 55.2904C80.5095 55.4603 80.1021 55.8773 80.1961 56.2326C80.2901 56.5879 80.8699 56.7578 81.4653 56.5879C81.4967 56.5879 81.528 56.5725 81.5437 56.557L81.1833 55.2749Z" fill="#DC5B3E"/>
<path d="M80.8074 53.9619C80.8074 53.9774 80.8074 53.9774 80.8074 53.9619L79.8672 54.5953C79.8202 54.7034 79.7889 54.827 79.8202 54.9351C79.9142 55.2904 80.494 55.4603 81.0895 55.2904C81.1208 55.2749 81.1521 55.2749 81.1678 55.2595L80.8074 53.9619Z" fill="#951A45"/>
<path d="M81.1836 55.2749L80.8232 53.9619L81.1836 55.2749Z" fill="#951A45"/>
<path d="M80.7766 57.8392C80.6669 57.7774 80.6042 57.6847 80.5729 57.5611C80.4788 57.2059 80.8706 56.7733 81.4817 56.6034C80.8863 56.7733 80.3222 56.6034 80.2125 56.2481C80.1185 55.8928 80.5102 55.4603 81.1213 55.3058C80.5259 55.4758 79.9618 55.3058 79.8521 54.9506C79.8207 54.8424 79.8364 54.7188 79.8991 54.6107L77.439 56.2172L77.8464 57.6538L80.7766 57.8392Z" fill="#F4CE8E"/>
<path d="M77.8466 57.6693L77.4392 56.2173L75.4805 57.5303L77.8466 57.6693Z" fill="#471540"/>
<path d="M122.077 42.7927L120.46 43.2307L121.557 47.1628L123.173 46.7248L122.077 42.7927Z" fill="#B3B3B3"/>
<path d="M122.41 46.9334L124.322 46.4236C125.043 46.2228 125.576 45.883 125.497 45.6358L124.635 42.5618C124.573 42.3301 123.93 42.2838 123.21 42.4846L121.298 42.9944L122.41 46.9334Z" fill="#F4CE8E"/>
<path d="M85.0547 55.97C81.6701 55.4602 81.4351 55.5838 81.4351 55.5838L82.3909 57.7773L86.606 56.6342C86.1046 56.2944 85.5875 56.0472 85.0547 55.97Z" fill="#F4CE8E"/>
<path d="M92.1526 50.8878L81.466 53.7765C81.3877 53.8228 81.372 53.8692 81.4347 53.9001C87.8122 57.8854 91.6198 51.722 91.6355 51.7374C91.7452 51.5521 92.0899 50.996 92.1526 50.8878Z" fill="#F4CE8E"/>
<path d="M90.4921 50.6407C90.4607 50.6871 90.4294 50.7334 90.4137 50.7798C90.398 50.7952 90.3824 50.8261 90.3824 50.8415C90.3197 50.9497 90.4764 50.7489 90.3824 50.8415C90.163 51.0733 90.1473 51.4285 90.3824 51.6602C90.6174 51.892 90.9778 51.8765 91.2129 51.6602C91.2442 51.6294 91.2599 51.6139 91.2912 51.583C91.1659 51.6911 91.2755 51.5985 91.2912 51.583C91.3696 51.5367 91.4479 51.4903 91.5263 51.4594C91.824 51.3359 91.8866 50.9188 91.73 50.6716C91.6516 50.548 91.5262 50.4399 91.3852 50.409C91.2129 50.3627 91.0875 50.409 90.9308 50.4708C90.7271 50.5635 90.5391 50.7025 90.3824 50.8415C90.6644 51.1196 90.9308 51.3822 91.2129 51.6602C91.3382 51.5212 91.4166 51.3822 91.5106 51.2277C91.6829 50.9651 91.5733 50.5944 91.3069 50.4399C91.0092 50.27 90.6488 50.3781 90.4921 50.6407Z" fill="#F4CE8E"/>
<path d="M91.1814 50.3164C90.774 50.4863 90.4136 50.6871 90.0218 50.8879C90.3195 51.0578 90.6016 51.2123 90.8993 51.3822C90.8993 51.3204 90.8993 51.2741 90.8993 51.2123C90.8993 50.7798 90.3979 50.5017 90.0218 50.718C89.6928 50.9033 89.5517 51.0578 89.2383 51.2895C89.5047 51.3513 89.7711 51.4285 90.0375 51.4903C90.0218 51.4594 90.0061 51.4131 89.9748 51.3822C89.8338 51.1042 89.4421 51.0269 89.1757 51.1814C88.925 51.3359 88.6586 51.4594 88.3765 51.5521C88.5646 51.8765 88.7526 52.1855 88.9406 52.5099C89.0033 52.4172 89.0817 52.3399 89.1443 52.2473C89.5361 51.7529 89.0503 51.0115 88.4392 51.3513C88.0005 51.583 87.593 51.8302 87.123 51.9847C87.311 52.309 87.499 52.618 87.6871 52.9424C87.7968 52.7725 87.9221 52.6489 88.0945 52.5408C88.6116 52.1237 87.9378 51.305 87.3893 51.6448C87.0289 51.8611 86.6842 52.031 86.2768 52.1391C86.4648 52.4635 86.6529 52.7725 86.8409 53.0969C86.9506 53.0042 87.0603 52.9115 87.1543 52.8034C87.5774 52.4172 87.1386 51.6603 86.5902 51.8456C85.9634 52.0464 85.368 52.2782 84.8195 52.618C84.1928 53.0196 84.7725 54.0082 85.415 53.6066C85.8851 53.3131 86.3865 53.1278 86.9036 52.9424C86.7156 52.618 86.5275 52.309 86.3395 51.9847C86.2298 52.0773 86.1201 52.17 86.0261 52.2781C85.5873 52.6798 86.0418 53.3749 86.5902 53.2359C87.0916 53.0969 87.5304 52.896 87.9848 52.6334C87.7497 52.3399 87.5147 52.031 87.2797 51.7375C87.1073 51.8456 86.9819 51.9692 86.8722 52.1391C86.5432 52.5408 86.8252 53.2977 87.4363 53.0969C88.0005 52.9115 88.5019 52.6334 89.0346 52.3554C88.7996 52.0619 88.5646 51.7529 88.3295 51.4594C88.2668 51.5521 88.1885 51.6294 88.1258 51.722C87.7968 52.1391 88.0788 52.8651 88.6899 52.6798C89.0816 52.5716 89.395 52.3863 89.7554 52.1855C89.4891 52.1237 89.2227 52.0464 88.9563 51.9847C88.972 52.031 88.9876 52.0619 89.019 52.0928C89.1443 52.3399 89.5674 52.479 89.8181 52.2936C90.0688 52.1082 90.3352 51.8611 90.6016 51.722C90.3039 51.5521 90.0218 51.3977 89.7241 51.2277C89.7241 51.2895 89.7241 51.3359 89.7241 51.3977C89.7241 51.8456 90.2099 52.0928 90.6016 51.892C90.8993 51.7375 90.9933 51.5058 91.2911 51.3513C91.9805 51.0578 91.8708 50.0383 91.1814 50.3164Z" fill="#F4CE8E"/>
<path d="M86.449 52.479C85.7282 52.0773 84.9448 52.5099 84.318 52.9115C83.7852 53.2513 84.1143 54.1936 84.7724 53.9619C85.0231 53.8692 85.1798 53.792 85.3835 53.6066C85.7753 53.2668 85.4462 52.6334 84.9761 52.6334C84.5687 52.6334 84.271 52.7879 83.8949 52.9115C84.0829 53.2359 84.271 53.5448 84.459 53.8692C84.5217 53.8229 84.5687 53.7765 84.6314 53.7302C85.0231 53.4058 84.7097 52.7261 84.224 52.757C83.9889 52.7725 83.8322 52.7879 83.5972 52.8651C83.7539 53.2204 83.8949 53.5603 84.0516 53.9156C84.13 53.8692 84.2083 53.8229 84.2866 53.7765C84.8351 53.4058 84.506 52.5871 83.8322 52.7261C83.4405 52.8188 83.1584 53.0196 82.8451 53.2359C82.4063 53.5603 82.516 54.3017 83.1428 54.3017C83.1741 54.3017 83.2211 54.3017 83.2525 54.3017C83.2525 53.9156 83.2525 53.5294 83.2525 53.1586C83.0644 53.1741 82.8764 53.205 82.6884 53.2359C82.2026 53.3286 82.1086 54.07 82.5473 54.2863C82.563 54.3017 82.5787 54.3017 82.61 54.3172C82.657 53.9619 82.704 53.6221 82.751 53.2668C82.61 53.2977 82.5317 53.4676 82.375 53.4985C81.6385 53.6993 82.0146 54.5025 82.751 54.3635C82.9391 54.3326 82.9547 54.3944 83.1428 54.3172C83.8322 54.0237 83.2368 53.0351 82.5473 53.3286C82.469 53.344 82.4533 53.483 82.375 53.5139C82.4847 53.8847 82.516 54.1318 82.61 54.5025C82.751 54.4716 82.9077 54.4253 83.0488 54.3944C83.5188 54.2708 83.6442 53.5757 83.1898 53.344C83.1741 53.3286 83.1584 53.3286 83.1271 53.3131C83.0801 53.6684 83.0331 54.0082 82.9861 54.3635C83.0644 54.3481 83.1584 54.3326 83.2368 54.3326C83.9733 54.2708 84.0046 53.1895 83.2368 53.1895C83.2055 53.1895 83.1584 53.1895 83.1271 53.1895C83.2211 53.5448 83.3308 53.9001 83.4248 54.2554C83.6442 54.0855 83.8479 53.9156 84.13 53.8538C83.9733 53.4985 83.8322 53.1586 83.6755 52.8033C83.5972 52.8651 83.5188 52.9115 83.4405 52.9424C82.8764 53.2668 83.2525 54.209 83.8949 53.9928C84.0046 53.9773 84.0986 53.9464 84.2083 53.931C84.0673 53.6066 83.9262 53.2822 83.8009 52.9578C83.7382 53.0042 83.6912 53.0505 83.6285 53.0968C83.1898 53.4676 83.6599 54.2399 84.1926 54.0546C84.4433 53.9619 84.694 53.8074 84.9761 53.8229C84.8351 53.4985 84.6941 53.1741 84.5687 52.8497C84.5374 52.8651 84.506 52.8806 84.4747 52.896C84.6314 53.2513 84.7724 53.5912 84.9291 53.9464C85.1015 53.8229 85.6656 53.3903 85.8849 53.5139C86.5117 53.8383 87.1072 52.8497 86.449 52.479Z" fill="#F4CE8E"/>
</svg>
