<svg width="22" height="22" viewBox="0 0 22 22" fill="none" xmlns="http://www.w3.org/2000/svg">
<path d="M11.1122 0.791016C5.2957 0.791016 0.56543 5.52128 0.56543 11.3378C0.56543 17.1542 5.2957 21.8845 11.1122 21.8845C16.9287 21.8845 21.6589 17.1542 21.6589 11.3378C21.6589 5.52128 16.9287 0.791016 11.1122 0.791016ZM11.1122 2.19725C16.1687 2.19725 20.2527 6.28126 20.2527 11.3378C20.2527 16.3942 16.1687 20.4783 11.1122 20.4783C6.05568 20.4783 1.97166 16.3942 1.97166 11.3378C1.97166 6.28126 6.05568 2.19725 11.1122 2.19725ZM16.7371 6.65032C16.3488 6.65032 16.034 6.96512 16.034 7.35344C16.034 7.74176 16.3488 8.05655 16.7371 8.05655C17.1254 8.05655 17.4402 7.74176 17.4402 7.35344C17.4402 6.96512 17.1254 6.65032 16.7371 6.65032ZM15.1258 8.27628C14.9421 8.28353 14.7686 8.3624 14.6424 8.496L8.98086 14.3333L5.97064 11.5209C5.9029 11.457 5.82322 11.4072 5.73617 11.3742C5.64913 11.3412 5.55642 11.3257 5.46337 11.3286C5.37033 11.3315 5.27877 11.3527 5.19395 11.3911C5.10913 11.4295 5.03272 11.4842 4.9691 11.5521C4.90548 11.6201 4.8559 11.7 4.8232 11.7871C4.7905 11.8743 4.77533 11.967 4.77856 12.0601C4.78179 12.1531 4.80336 12.2446 4.84202 12.3293C4.88068 12.414 4.93567 12.4902 5.00385 12.5536L8.51944 15.8348C8.65489 15.9611 8.83471 16.0289 9.01984 16.0234C9.20497 16.0179 9.38046 15.9396 9.50819 15.8055L15.6531 9.47744C15.7538 9.37736 15.8218 9.24916 15.8483 9.1097C15.8747 8.97024 15.8583 8.82605 15.8012 8.69608C15.7442 8.56611 15.6491 8.45645 15.5286 8.38153C15.408 8.3066 15.2676 8.26991 15.1258 8.27628Z" fill="#5EB55C"/>
</svg>
