<svg width="20" height="20" viewBox="0 0 20 20" fill="none" xmlns="http://www.w3.org/2000/svg">
<path d="M10 0C4.486 0 0 4.486 0 10C0 15.514 4.486 20 10 20C15.514 20 20 15.514 20 10C20 4.486 15.514 0 10 0ZM10 18.3636C5.38836 18.3636 1.63636 14.6116 1.63636 10C1.63636 5.38836 5.38836 1.63636 10 1.63636C14.6116 1.63636 18.3636 5.38836 18.3636 10C18.3636 14.6116 14.6116 18.3636 10 18.3636Z" fill="#859EB9"/>
<path d="M10.0002 9.88535C11.8242 9.88535 13.308 8.40135 13.308 6.57753C13.308 4.75371 11.8242 3.26953 10.0002 3.26953C8.1762 3.26953 6.69238 4.75353 6.69238 6.57735C6.69238 8.40117 8.1762 9.88535 10.0002 9.88535ZM10.0002 4.90589C10.9218 4.90589 11.6717 5.65571 11.6717 6.57735C11.6717 7.49899 10.9218 8.2488 10.0002 8.2488C9.07856 8.2488 8.32875 7.49899 8.32875 6.57735C8.32875 5.65571 9.07856 4.90589 10.0002 4.90589Z" fill="#859EB9"/>
<path d="M7.04748 11.3398L4.58057 13.8068L5.73766 14.9638L7.72529 12.9762H12.2747L14.2624 14.9638L15.4195 13.8068L12.9526 11.3398H7.04748Z" fill="#859EB9"/>
</svg>
