<svg width="17" height="17" viewBox="0 0 17 17" fill="none" xmlns="http://www.w3.org/2000/svg">
<path d="M14.5195 11.8496C14.0713 12.0109 13.3364 12.2081 12.5297 12.3874C12.2428 12.8535 11.723 13.2478 10.8984 13.4092C10.7012 13.445 10.4861 13.463 10.253 13.463C9.67938 13.4809 9.0161 13.4271 8.2632 13.3554C8.20942 13.3554 8.15564 13.3554 8.10186 13.3375C7.9226 13.3196 7.76126 13.1761 7.74333 12.9969C7.72541 12.7638 7.9226 12.5846 8.13771 12.6025C8.19149 12.6025 8.2632 12.6204 8.31698 12.6204C9.285 12.7101 10.1813 12.7818 10.755 12.6742C11.8126 12.477 12.1174 11.8317 12.0457 11.2939C11.9919 10.8457 11.6692 10.4334 11.1314 10.4693C10.3785 10.523 9.50012 10.4693 8.65758 10.3976C7.68955 10.3259 6.68568 10.3079 5.96862 10.3796C5.17986 10.4693 3.56649 11.0608 2.15031 12.0109C1.45118 12.477 0.680348 13.0507 0.214263 13.3913C-0.0187795 13.5705 -0.0725586 13.8932 0.106705 14.1262L2.16824 16.7973C2.3475 17.0303 2.67017 17.0662 2.90322 16.8869L3.65612 16.2953C3.83539 16.1519 4.06843 16.1161 4.28355 16.1878C5.66388 16.6359 7.15176 16.9228 8.11979 16.9765C10.253 17.1199 14.3223 14.6103 15.4875 13.8036C16.6527 12.9969 15.8102 11.3835 14.5195 11.8496Z" fill="#053C75"/>
<path d="M9.2673 9.05281C11.7591 9.05281 13.7847 7.02713 13.7847 4.53537C13.7847 2.0436 11.7591 0 9.2673 0C6.77554 0 4.73193 2.02568 4.73193 4.51744C4.73193 7.00921 6.75761 9.05281 9.2673 9.05281ZM8.87292 2.27665V1.703C8.87292 1.64922 8.9267 1.59545 8.98048 1.59545H9.5362C9.58998 1.59545 9.64376 1.64922 9.64376 1.703V2.25872C10.2174 2.29457 10.6656 2.72481 10.7193 3.29845C10.7193 3.37016 10.6656 3.42393 10.6118 3.42393H10.0561C10.0023 3.42393 9.96643 3.38808 9.9485 3.3343C9.91265 3.15504 9.75131 3.02955 9.57205 3.02955H9.08804C8.80122 3.02955 8.53232 3.24467 8.49647 3.53149C8.46062 3.85417 8.72951 4.14099 9.05219 4.14099H9.46449C10.2353 4.14099 10.8627 4.80426 10.791 5.59302C10.7373 6.20252 10.2353 6.66861 9.64376 6.75824V7.33188C9.64376 7.38566 9.58998 7.43944 9.5362 7.43944H8.98048C8.9267 7.43944 8.87292 7.38566 8.87292 7.33188V6.77616C8.29928 6.74031 7.85112 6.31008 7.79734 5.73643C7.79734 5.66473 7.85112 5.62888 7.9049 5.62888H8.46062C8.5144 5.62888 8.55025 5.66473 8.56817 5.71851C8.60403 5.89777 8.76536 6.02326 8.94463 6.02326H9.42864C9.71546 6.02326 9.98436 5.80814 10.0202 5.52132C10.0561 5.19864 9.78717 4.91182 9.46449 4.91182H9.10596C8.40684 4.91182 7.79734 4.40988 7.72564 3.71076C7.65393 2.9937 8.17379 2.36628 8.87292 2.27665Z" fill="#053C75"/>
</svg>
