<svg width="27" height="18" viewBox="0 0 27 18" fill="none" xmlns="http://www.w3.org/2000/svg">
<path d="M26.3201 11.0656L22.391 10.165C22.321 10.1499 22.2485 10.1508 22.1789 10.1675C22.1093 10.1842 22.0444 10.2163 21.9889 10.2615L18.837 12.9417C18.7653 13.0004 18.7134 13.0798 18.6885 13.169C18.6636 13.2582 18.6667 13.3529 18.6976 13.4403L19.4749 15.7292C19.4973 15.7911 19.5322 15.8478 19.5774 15.8957C19.6225 15.9437 19.677 15.9818 19.7375 16.0079L22.2891 17.021C22.3458 17.0416 22.4056 17.0525 22.466 17.0532C22.5303 17.052 22.5938 17.0393 22.6536 17.0157L25.6662 15.6648C25.7343 15.6344 25.7938 15.5876 25.8396 15.5287C25.8854 15.4699 25.916 15.4006 25.9288 15.3271L26.6686 11.5748C26.6837 11.4619 26.6565 11.3474 26.5921 11.2533C26.5278 11.1593 26.4309 11.0924 26.3201 11.0656Z" fill="#373E46"/>
<path d="M19.3409 9.85039L18.3599 4.42563C18.3472 4.35284 18.3172 4.28416 18.2725 4.22539C18.2277 4.16662 18.1694 4.11947 18.1026 4.08792L14.7845 2.54947C14.7217 2.52268 14.6544 2.50813 14.5862 2.50659H11.2734L6.42223 0.941345C6.33789 0.91486 6.24776 0.912891 6.16234 0.935668C6.07692 0.958446 5.99974 1.00503 5.93979 1.07L2.27861 5.05816C2.22469 5.11269 2.18749 5.18151 2.1714 5.25649L0.949224 10.1398C0.931072 10.2219 0.935985 10.3075 0.963421 10.3869C0.990857 10.4664 1.03975 10.5367 1.10468 10.5901L6.41687 15.3448C6.48628 15.4057 6.57201 15.4448 6.66345 15.4574L9.84218 15.8916L13.7231 17.0494H13.8518C13.9234 17.0503 13.9943 17.0342 14.0585 17.0026C14.1228 16.9709 14.1787 16.9245 14.2217 16.8672L19.2551 10.1881C19.3252 10.0904 19.3559 9.96974 19.3409 9.85039ZM13.0263 12.6485C12.9301 12.6489 12.8363 12.6189 12.7583 12.5628C12.6584 12.4907 12.591 12.3821 12.5709 12.2606C12.5508 12.139 12.5796 12.0145 12.6511 11.9142L14.2592 9.66277C14.3307 9.569 14.4348 9.50542 14.5509 9.48459C14.667 9.46375 14.7867 9.48716 14.8864 9.5502C14.9863 9.62225 15.0536 9.73088 15.0737 9.8524C15.0938 9.97392 15.065 10.0985 14.9936 10.1988L13.3854 12.4502C13.3446 12.5084 13.2911 12.5566 13.2288 12.591C13.1666 12.6254 13.0973 12.645 13.0263 12.6485ZM17.0305 10.1988L14.5594 13.6885C14.517 13.7485 14.4608 13.7974 14.3954 13.831C14.3301 13.8646 14.2576 13.8819 14.1841 13.8814C14.0888 13.882 13.9954 13.854 13.9161 13.801C13.8165 13.7289 13.749 13.6208 13.728 13.4996C13.707 13.3784 13.7341 13.2539 13.8035 13.1524L16.2747 9.66277C16.3468 9.56317 16.455 9.49566 16.5761 9.47464C16.6973 9.45361 16.8219 9.48072 16.9233 9.5502C17.0232 9.62225 17.0906 9.73088 17.1106 9.8524C17.1307 9.97392 17.1019 10.0985 17.0305 10.1988Z" fill="#373E46"/>
</svg>
