<svg width="16" height="20" viewBox="0 0 16 20" fill="none" xmlns="http://www.w3.org/2000/svg">
<path d="M0.200016 13.6121L4.71162 5.13701C4.98569 4.60995 5.51274 4.27264 6.10305 4.20939L9.41296 3.89315C9.51837 3.38718 9.70811 2.88121 9.9611 2.4174C10.4038 1.57411 11.0363 0.85731 11.7109 0.435664C12.5121 -0.0492275 13.3132 -0.133557 13.9456 0.20376C14.5992 0.541076 14.9576 1.25787 14.9998 2.18549C15.0208 2.98662 14.7889 3.89315 14.3462 4.75753C14.0932 5.24242 13.777 5.68515 13.4186 6.04355L15.0208 8.9529C15.2949 9.47995 15.316 10.0913 15.0208 10.6184L10.5303 19.0724C10.2141 19.6627 9.6027 20 8.97024 20C8.69617 20 8.4221 19.9368 8.14803 19.7892L0.916812 15.9522C0.0735216 15.5095 -0.242711 14.4554 0.200016 13.6121ZM13.6927 2.22766C13.6716 1.80601 13.5451 1.4687 13.3343 1.36328C13.1234 1.25787 12.7861 1.32112 12.4277 1.55302C11.9428 1.84818 11.479 2.39631 11.1417 3.02878C11.0152 3.26069 10.9098 3.51367 10.8255 3.76666L10.9731 3.74558C11.6688 3.68233 12.3434 4.04073 12.6807 4.65212L12.744 4.77861C12.8915 4.58887 13.0391 4.35696 13.1867 4.10398C13.524 3.49259 13.6927 2.79688 13.6927 2.22766ZM1.54928 14.8138L8.78049 18.6507C8.99132 18.7561 9.2443 18.6718 9.34972 18.4821L13.8613 10.007C13.9246 9.88052 13.9246 9.73294 13.8613 9.60645L12.3645 6.86575C11.9639 7.07658 11.5634 7.18199 11.1839 7.18199C11.0785 7.18199 10.9731 7.18199 10.8676 7.1609C10.5092 7.09766 10.2773 6.76034 10.3406 6.40194C10.4038 6.04355 10.7411 5.79056 11.0995 5.87489C11.2682 5.89597 11.5001 5.85381 11.732 5.72731L11.5212 5.32675C11.4369 5.17917 11.3104 5.09484 11.1417 5.09484C11.1206 5.09484 11.1206 5.09484 11.0995 5.09484L6.22954 5.53757C6.08197 5.55865 5.95547 5.64298 5.89223 5.76948L1.38062 14.2235C1.27521 14.4343 1.33846 14.6873 1.54928 14.8138Z" fill="#053C75"/>
<path d="M8.87513 14.2865C9.56666 13.376 9.32815 12.0774 8.37627 11.4829L7.84659 11.1557C7.45319 10.896 7.34626 10.3735 7.63481 9.98779C7.88966 9.67025 8.3862 9.60266 8.72972 9.81817L9.33808 10.1972C9.56358 10.3348 9.65638 10.6221 9.57639 10.863C9.5427 10.9311 9.58486 11.0042 9.63474 11.0484L10.3218 11.4794C10.4005 11.5314 10.5023 11.4969 10.5542 11.4182C10.9171 10.6975 10.6935 9.8042 10.0219 9.31558L10.4529 8.62854C10.5049 8.54986 10.4704 8.44803 10.4023 8.41434L9.71523 7.98331C9.63655 7.93136 9.53472 7.96581 9.50103 8.03395L9.07001 8.72099C8.14769 8.30409 7.01702 8.66476 6.54534 9.6187C6.0891 10.515 6.47574 11.6064 7.32014 12.1413L7.77114 12.4165C8.16454 12.6762 8.27147 13.1987 7.98292 13.5844C7.72807 13.902 7.23153 13.9696 6.88801 13.754L6.27965 13.375C6.05415 13.2374 5.96135 12.9501 6.04134 12.7092C6.07503 12.6411 6.03287 12.568 5.98299 12.5238L5.29595 12.0928C5.21727 12.0408 5.11544 12.0753 5.06349 12.154C4.7006 12.8747 4.92424 13.768 5.59584 14.2566L5.16482 14.9437C5.11287 15.0224 5.14732 15.1242 5.21546 15.1579L5.9025 15.5889C5.98118 15.6408 6.08301 15.6064 6.1167 15.5383L6.56598 14.8407C7.37028 15.1797 8.33174 14.9897 8.87513 14.2865Z" fill="#053C75"/>
</svg>
