<svg width="21" height="19" viewBox="0 0 21 19" fill="none" xmlns="http://www.w3.org/2000/svg">
<path d="M9.10257 4.06641H7.0842V7.09397H4.05664V9.11234H7.0842V12.1399H9.10257V9.11234H12.1301V7.09397H9.10257V4.06641Z" fill="#0862BE"/>
<path d="M17.1975 0.0292969H3.02721C1.37013 0.0292969 0.0205078 1.37892 0.0205078 3.03634V15.1873C0.0205078 16.845 1.37013 18.1947 3.02721 18.1947H14.1491L20.2042 12.1402V3.03634C20.2042 1.37892 18.8546 0.0292969 17.1975 0.0292969ZM15.1583 14.7493V14.1377C15.1583 13.5921 15.6017 13.1487 16.1466 13.1487H16.7575L15.1583 14.7493ZM18.1859 11.3033C17.9258 11.2013 17.6076 11.1304 17.1975 11.1304H16.1463C14.4896 11.1304 13.1399 12.48 13.1399 14.1374V15.1873C13.1399 15.5775 13.2055 15.9021 13.3122 16.176H3.02721C2.48225 16.1763 2.03888 15.7329 2.03888 15.1876V3.03634C2.03888 2.49104 2.48225 2.04767 3.02721 2.04767H17.1979C17.7425 2.04767 18.1859 2.49104 18.1859 3.03634V11.3033Z" fill="#0862BE"/>
</svg>
