<svg width="21" height="22" viewBox="0 0 21 22" fill="none" xmlns="http://www.w3.org/2000/svg">
<path d="M6.22238 9.19141C2.78575 9.19141 0 11.9784 0 15.4135C0 18.8519 2.78575 21.6388 6.22238 21.6388C9.66021 21.6388 12.446 18.8519 12.446 15.4138C12.4462 11.9786 9.66021 9.19141 6.22238 9.19141ZM11.6679 16.4636C11.6227 16.6922 11.4029 16.8444 11.1731 16.7992C10.9444 16.7533 10.7946 16.5335 10.8393 16.3034C11.1418 14.747 10.6544 13.1532 9.53518 12.0337C7.68138 10.1813 4.66456 10.1813 2.81196 12.0337C1.91247 12.932 1.41908 14.1262 1.41908 15.3965C1.41908 16.6658 1.91247 17.86 2.81196 18.7571C4.19474 20.1401 6.32361 20.5347 8.10864 19.7391C8.32215 19.6439 8.57077 19.7415 8.66574 19.955C8.75952 20.1659 8.66454 20.4147 8.45223 20.5083C7.72778 20.8333 6.95693 20.9891 6.18992 20.9891C4.72948 20.9891 3.28299 20.421 2.21495 19.3539C1.15797 18.2972 0.576097 16.8918 0.576097 15.3965C0.576097 13.9026 1.15821 12.4948 2.21495 11.4391C4.39863 9.25681 7.94899 9.2556 10.1312 11.4376C11.4467 12.7559 12.0228 14.635 11.6679 16.4636Z" fill="#A6553B"/>
<path d="M19.0888 10.3043C21.3651 7.75974 21.1487 3.85089 18.6029 1.57487C16.0597 -0.701145 12.1494 -0.485229 9.87342 2.0608L3.69336 8.97157C4.47792 8.66164 5.3298 8.48924 6.22184 8.48924C10.0408 8.48924 13.149 11.596 13.149 15.4147C13.149 16.0369 13.0638 16.639 12.9116 17.2125L19.0888 10.3043Z" fill="#A6553B"/>
</svg>
