<svg width="22" height="22" viewBox="0 0 22 22" fill="none" xmlns="http://www.w3.org/2000/svg">
<path fill-rule="evenodd" clip-rule="evenodd" d="M10.9598 21.9831C10.8278 21.9829 10.6938 21.969 10.5637 21.9851C9.59531 22.1045 8.97721 21.4977 9.08336 20.5127C9.13997 19.9877 8.95089 19.7168 8.47321 19.4823C6.54657 18.5372 5.58855 16.8623 5.03701 14.872C4.82515 14.1083 4.70993 13.3016 4.0341 12.7043C3.24084 12.0032 2.50022 11.9668 1.64415 12.4561C1.36772 12.6141 1.1291 12.8447 0.842935 12.9765C0.649873 13.0655 0.506126 13.4336 0.189663 13.1317C-0.0984927 12.8561 -0.00870655 12.5615 0.133934 12.3007C0.377639 11.8555 0.635056 11.4065 0.958595 11.019C1.76004 10.0594 2.58912 9.11756 3.8291 8.68887C3.93171 8.65316 4.03985 8.5877 4.13959 8.59673C4.7473 8.65184 4.73824 8.26744 4.81652 7.81604C5.25617 5.28266 6.05893 2.91282 8.08288 1.14271C10.0511 -0.578469 12.551 -0.278051 14.2896 1.52578C15.3253 2.6005 16.0283 3.87821 16.4531 5.30867C16.4951 5.45039 16.6044 5.57117 16.6555 5.71158C17.0201 6.71356 17.0367 6.72943 17.7123 5.8998C18.798 4.56721 19.8553 3.21191 20.9263 1.86719C20.9915 1.7852 21.0837 1.72194 21.1381 1.63444C21.3255 1.3327 21.6021 1.39155 21.8321 1.50859C22.0718 1.63092 22.0011 1.90334 21.9447 2.10281C21.218 4.66243 20.4891 7.22447 19.566 9.71972C18.5739 12.4003 17.4456 15.0311 15.7992 17.3942C15.1262 18.3602 14.2954 19.1929 13.1638 19.6368C12.6604 19.8345 12.7478 20.2355 12.7456 20.617C12.7389 21.6886 12.443 21.9815 11.3565 21.9829C11.2245 21.9833 11.0923 21.9831 10.9598 21.9831ZM11.0096 9.60797C10.7451 9.60797 10.4797 9.62164 10.2163 9.60511C9.73265 9.57469 9.52079 9.78937 9.55573 10.2683C9.56988 10.4651 9.5586 10.6635 9.56015 10.8614C9.56347 11.2679 9.7813 11.4581 10.1778 11.4596C10.707 11.4616 11.2358 11.4651 11.7648 11.4561C11.9092 11.4537 12.0804 11.485 12.1677 11.3067C12.3851 10.8628 12.5158 10.4277 12.3017 9.9247C12.1022 9.45699 11.7236 9.65095 11.4061 9.60974C11.276 9.59299 11.1422 9.60709 11.0096 9.60797ZM10.9824 5.93749C11.1586 5.93749 11.3377 5.91567 11.5102 5.94146C12.2153 6.04616 12.3895 5.68314 12.4035 5.06776C12.4209 4.31484 12.1892 4.08495 11.4795 4.08231C11.039 4.08055 10.5976 4.09796 10.1579 4.07768C9.86733 4.06424 9.68687 4.22535 9.59244 4.43827C9.2114 5.29699 9.64574 5.93727 10.5858 5.93794C10.7181 5.93794 10.8503 5.93772 10.9824 5.93749ZM10.9357 8.6201C11.1325 8.6201 11.3296 8.62186 11.5262 8.61988C12.2197 8.6126 12.3884 8.44619 12.4072 7.75367C12.4245 7.11999 12.1188 6.78938 11.4813 6.77086C11.1095 6.76006 10.7371 6.76138 10.3654 6.7713C9.83813 6.78541 9.53383 6.98312 9.5471 7.59079C9.56944 8.61459 9.54135 8.61525 10.5418 8.619C10.6734 8.61966 10.8046 8.61922 10.9357 8.6201ZM10.9019 3.23968C10.9019 3.24057 10.9019 3.24123 10.9019 3.24211C11.1878 3.24211 11.4795 3.27495 11.7592 3.23395C12.121 3.18083 12.3448 2.88879 12.3718 2.56986C12.3984 2.25049 12.1299 2.09157 11.8167 1.95183C11.2053 1.67896 10.6425 1.74068 10.0542 1.97431C9.74614 2.09664 9.55241 2.25688 9.55131 2.62628C9.55042 3.02633 9.82951 3.15483 10.1128 3.22668C10.3612 3.2895 10.6378 3.23968 10.9019 3.23968ZM7.46986 8.61547C8.58754 8.69482 8.73505 8.46515 8.73284 7.73956C8.73085 7.02544 8.41637 6.81913 7.58795 6.75147C6.91964 6.69681 6.62286 7.13718 6.61866 8.18391C6.61579 8.9884 7.24119 8.44245 7.46986 8.61547ZM14.4329 8.61635C14.6698 8.54075 15.0771 8.77989 15.3445 8.49887C15.6293 8.19934 14.9599 6.78982 14.5393 6.77659C13.4077 6.74133 13.1883 6.81032 13.2436 8.02587C13.2624 8.4398 13.3849 8.63817 13.8082 8.61767C13.9829 8.6093 14.1587 8.61635 14.4329 8.61635ZM11.1743 12.2558C10.9195 12.4369 10.4686 11.9893 10.3224 12.5046C10.2422 12.7883 10.9826 13.896 11.1832 13.8815C11.3888 13.8665 12.2564 12.8863 12.2124 12.6714C12.0828 12.0312 11.5445 12.3829 11.1743 12.2558ZM8.73129 5.0466C8.73129 4.9591 8.73063 4.87159 8.73151 4.78409C8.73483 4.45083 8.59772 4.17576 8.27152 4.10347C7.92852 4.02721 7.80335 4.30558 7.69145 4.57999C7.56385 4.89253 7.39312 5.18766 7.25977 5.49822C7.19763 5.64369 7.08705 5.81958 7.3427 5.92251C8.11053 6.23174 8.72532 5.84647 8.73129 5.0466ZM13.2549 4.82399C13.2509 5.86586 13.4986 6.07239 14.3993 5.9386C14.6052 5.90818 14.695 5.88724 14.6379 5.62121C14.5366 5.15085 14.2724 4.76514 14.091 4.33776C14.0055 4.13565 13.8982 4.07239 13.7031 4.0887C13.4782 4.10721 13.3458 4.26371 13.2836 4.44312C13.229 4.60137 13.2566 4.78762 13.2549 4.82399ZM13.2564 11.2703C13.873 10.8509 14.1404 10.3135 14.5212 9.87886C14.5911 9.79907 14.5895 9.67916 14.5179 9.65911C14.1983 9.56962 13.8672 9.58637 13.543 9.63861C13.2951 9.67872 13.26 9.88348 13.2577 10.0887C13.2533 10.4473 13.2564 10.8059 13.2564 11.2703ZM7.70361 9.74771C8.06409 9.8945 8.11605 10.5571 8.65853 10.3296C8.78127 10.2782 8.74544 10.0938 8.68264 9.97341C8.45839 9.54339 8.10942 9.55243 7.70361 9.74771Z" fill="#F4CE03"/>
</svg>
