<svg width="17" height="16" viewBox="0 0 17 16" fill="none" xmlns="http://www.w3.org/2000/svg">
<path d="M16.3597 8.68023C16.1326 8.43569 15.7833 8.33089 15.4689 8.41822L12.7789 9.15185C12.7789 9.22171 12.7789 9.27412 12.7789 9.34399C12.709 10.0951 12.1501 10.7064 11.4165 10.8462L11.2418 10.8811C10.2636 11.0558 9.25053 11.1431 8.27236 11.1431H7.46887C7.22433 11.1431 7.01472 10.951 7.01472 10.689C7.01472 10.4444 7.20686 10.2348 7.46887 10.2348H8.27236C9.21559 10.2173 10.1588 10.1475 11.0846 9.99027L11.2593 9.95534C11.5911 9.90294 11.8531 9.62346 11.8881 9.27412C11.9055 9.06451 11.8357 8.87237 11.7134 8.71516C11.5737 8.55796 11.399 8.47062 11.1894 8.45316L6.94485 8.15621C6.47324 8.12128 6.00162 8.24355 5.59987 8.52302L1.94922 10.9684L5.53 13.868L9.09332 14.3396C9.72214 14.427 10.351 14.2697 10.8575 13.8855L16.2374 9.97281C16.447 9.83307 16.5693 9.60599 16.5868 9.36145C16.6042 9.09944 16.5344 8.8549 16.3597 8.68023Z" fill="#053C75"/>
<path d="M0.0802402 13.0998C-0.0420306 13.257 -0.0245633 13.5016 0.132642 13.6239L2.96234 15.9121C3.0322 15.9819 3.13701 15.9994 3.24181 15.9994C3.34662 15.9819 3.43395 15.947 3.50382 15.8597L4.72653 14.3575L1.30295 11.5977L0.0802402 13.0998Z" fill="#053C75"/>
<path d="M11.0145 1.1179H11.9228C12.2372 1.1179 12.4818 0.873362 12.4818 0.558952C12.4818 0.244542 12.2372 0 11.9228 0H11.0145C10.7001 0 10.4556 0.244542 10.4556 0.558952C10.4556 0.873362 10.7176 1.1179 11.0145 1.1179Z" fill="#053C75"/>
<path d="M8.21953 1.6588C8.3418 1.6588 8.48154 1.6064 8.58634 1.51906C8.76102 1.37933 8.95316 1.25705 9.16276 1.18719C9.45971 1.09985 9.61691 0.785439 9.52958 0.488496C9.44224 0.191553 9.12783 0.0343476 8.83089 0.121684C8.46407 0.243955 8.1322 0.418627 7.85272 0.663168C7.62565 0.872775 7.59071 1.22212 7.80032 1.44919C7.90512 1.58893 8.06233 1.6588 8.21953 1.6588Z" fill="#053C75"/>
<path d="M14.7002 3.10973V4.01803C14.7002 4.33244 14.9447 4.57698 15.2591 4.57698C15.5736 4.57698 15.8181 4.33244 15.8181 4.01803V3.10973C15.8181 2.79532 15.5736 2.55078 15.2591 2.55078C14.9447 2.55078 14.7002 2.79532 14.7002 3.10973Z" fill="#053C75"/>
<path d="M13.7047 1.24107C13.9143 1.32841 14.089 1.45068 14.2462 1.62535C14.351 1.74762 14.5082 1.80003 14.6479 1.80003C14.7877 1.80003 14.9274 1.74762 15.0322 1.64282C15.2768 1.43321 15.2768 1.0664 15.0672 0.839327C14.8052 0.559851 14.4907 0.350244 14.1414 0.210506C13.8619 0.0882357 13.53 0.227974 13.4078 0.50745C13.2855 0.804393 13.4252 1.13627 13.7047 1.24107Z" fill="#053C75"/>
<path d="M7.48654 4.36604C7.80095 4.36604 8.04549 4.1215 8.04549 3.80709V2.8988C8.04549 2.58439 7.80095 2.33984 7.48654 2.33984C7.17213 2.33984 6.92758 2.58439 6.92758 2.8988V3.80709C6.91012 4.1215 7.17213 4.36604 7.48654 4.36604Z" fill="#053C75"/>
<path d="M15.2591 5.4668C14.9447 5.4668 14.7002 5.71134 14.7002 6.02575V6.93405C14.7002 7.24846 14.9447 7.493 15.2591 7.493C15.5736 7.493 15.8181 7.24846 15.8181 6.93405V6.02575C15.8356 5.71134 15.5736 5.4668 15.2591 5.4668Z" fill="#053C75"/>
<path d="M7.48654 7.28401C7.80095 7.28401 8.04549 7.03947 8.04549 6.72506V5.81676C8.04549 5.50235 7.80095 5.25781 7.48654 5.25781C7.17213 5.25781 6.92758 5.50235 6.92758 5.81676V6.72506C6.91012 7.03947 7.17213 7.28401 7.48654 7.28401Z" fill="#053C75"/>
</svg>
