<svg width="17" height="15" viewBox="0 0 17 15" fill="none" xmlns="http://www.w3.org/2000/svg">
<path d="M11 12.5V7.5C11 6.11929 9.88071 5 8.5 5C7.11929 5 6 6.11929 6 7.5V12.5C6 13.8807 7.11929 15 8.5 15C9.88071 15 11 13.8807 11 12.5Z" fill="#859EB9"/>
<path d="M17 12.5V2.5C17 1.11929 15.8807 0 14.5 0C13.1193 0 12 1.11929 12 2.5V12.5C12 13.8807 13.1193 15 14.5 15C15.8807 15 17 13.8807 17 12.5Z" fill="#859EB9"/>
<path d="M5 12.5V10.5C5 9.11929 3.88071 8 2.5 8C1.11929 8 0 9.11929 0 10.5V12.5C0 13.8807 1.11929 15 2.5 15C3.88071 15 5 13.8807 5 12.5Z" fill="#859EB9"/>
</svg>
