<svg width="16" height="16" viewBox="0 0 16 16" fill="none" xmlns="http://www.w3.org/2000/svg">
<path d="M2.66667 16H13.3333C14.8053 16 16 14.8053 16 13.3333V2.66667C16 1.19467 14.8053 0 13.3333 0H2.66667C1.19467 0 0 1.19467 0 2.66667V13.3333C0 14.8053 1.19467 16 2.66667 16ZM1.77067 2.66667C1.77067 2.176 2.176 1.77067 2.66667 1.77067H13.3333C13.824 1.77067 14.2293 2.176 14.2293 2.66667V13.3333C14.2293 13.824 13.824 14.2293 13.3333 14.2293H2.66667C2.176 14.2293 1.77067 13.824 1.77067 13.3333V2.66667Z" fill="#053C75"/>
<path d="M12.4585 7.10352H3.5625V8.87418H12.4585V7.10352Z" fill="#053C75"/>
<path d="M12.4585 3.5625H3.5625V5.33317H12.4585V3.5625Z" fill="#053C75"/>
<path d="M8.89583 10.666H3.5625V12.4367H8.89583V10.666Z" fill="#053C75"/>
</svg>
