<svg width="13" height="17" viewBox="0 0 13 17" fill="none" xmlns="http://www.w3.org/2000/svg">
<path d="M7.71704 2.04851V4.675H10.6506L7.71704 2.04851ZM11.7809 5.95H6.4979V1.275H2.45792C1.78542 1.275 1.23994 1.8445 1.23878 2.5478L1.21915 14.4478C1.21798 15.152 1.76287 15.7238 2.43619 15.725L10.5617 15.725C11.235 15.725 11.7809 15.1542 11.7809 14.45V5.95ZM7.30365 0L13 5.1V14.45C13 15.8583 11.9083 17 10.5617 17H2.43829C1.08746 16.9976 -0.00231931 15.8539 3.70699e-06 14.4456L0.0196326 2.5456C0.0219528 1.13899 1.11293 0 2.45792 0H7.30365Z" fill="#053C75"/>
</svg>
