<svg width="12" height="15" viewBox="0 0 12 15" fill="none" xmlns="http://www.w3.org/2000/svg">
<path d="M11.136 5.48953C11.1348 5.39548 11.0994 5.30576 11.0374 5.23993L6.9126 0.782753C6.85191 0.71557 6.76922 0.677121 6.68253 0.675781H2.5577C2.07826 0.675781 1.61847 0.882402 1.27946 1.25019C0.940453 1.61798 0.75 2.11681 0.75 2.63694V12.9419C0.75 13.4621 0.940453 13.9609 1.27946 14.3287C1.61847 14.6965 2.07826 14.9031 2.5577 14.9031H9.32833C9.80777 14.9031 10.2676 14.6965 10.6066 14.3287C10.9456 13.9609 11.136 13.4621 11.136 12.9419V5.48953ZM7.04407 1.92379L9.98568 5.11513H8.35875C8.01008 5.11513 7.67568 4.96486 7.42913 4.69737C7.18258 4.42989 7.04407 4.06711 7.04407 3.68883V1.92379ZM10.4787 12.9419C10.4787 13.2729 10.3575 13.5904 10.1418 13.8244C9.92602 14.0584 9.63343 14.1899 9.32833 14.1899H2.5577C2.2526 14.1899 1.96001 14.0584 1.74427 13.8244C1.52854 13.5904 1.40734 13.2729 1.40734 12.9419V2.63694C1.40734 2.30595 1.52854 1.98851 1.74427 1.75446C1.96001 1.52042 2.2526 1.38893 2.5577 1.38893H6.38672V3.68883C6.38672 4.25625 6.59449 4.80042 6.96432 5.20165C7.33414 5.60287 7.83574 5.82828 8.35875 5.82828H10.4787V12.9419Z" fill="#FE4350"/>
</svg>
