<svg width="26" height="16" viewBox="0 0 26 16" fill="none" xmlns="http://www.w3.org/2000/svg">
<path d="M10.9796 16H0.97965C0.820805 15.9968 0.665017 15.9557 0.525191 15.8803C0.385365 15.8049 0.265525 15.6972 0.175599 15.5662C0.0856738 15.4352 0.0282505 15.2847 0.0080866 15.1271C-0.0120773 14.9695 0.00559841 14.8094 0.0596496 14.66L1.80965 9.66C1.87707 9.47299 1.9987 9.31032 2.15901 9.19277C2.31932 9.07521 2.51102 9.0081 2.70965 9H9.59965C9.81387 9.00491 10.0208 9.07851 10.1901 9.20993C10.3593 9.34136 10.4819 9.52367 10.5396 9.73L11.9396 14.73C11.9813 14.8784 11.988 15.0344 11.9594 15.1859C11.9307 15.3373 11.8675 15.4801 11.7745 15.603C11.6816 15.726 11.5615 15.8258 11.4236 15.8946C11.2857 15.9635 11.1338 15.9996 10.9796 16Z" fill="#FFC414"/>
<path d="M24.9796 16H14.9796C14.8208 15.9968 14.665 15.9557 14.5252 15.8803C14.3854 15.8049 14.2655 15.6972 14.1756 15.5662C14.0857 15.4352 14.0283 15.2847 14.0081 15.1271C13.9879 14.9695 14.0056 14.8094 14.0596 14.66L15.8096 9.66C15.8783 9.4699 16.003 9.30507 16.1672 9.18725C16.3315 9.06943 16.5276 9.00414 16.7296 9H23.6196C23.8339 9.00491 24.0408 9.07851 24.2101 9.20993C24.3793 9.34136 24.5019 9.52367 24.5596 9.73L25.9596 14.73C26.0017 14.88 26.0082 15.0378 25.9785 15.1908C25.9488 15.3438 25.8837 15.4877 25.7885 15.6111C25.6933 15.7344 25.5706 15.8338 25.4302 15.9014C25.2897 15.9689 25.1355 16.0027 24.9796 16Z" fill="#FFC414"/>
<path d="M18.1496 7.00068H7.89957C7.74073 6.99745 7.58494 6.95642 7.44511 6.88098C7.30529 6.80554 7.18545 6.69788 7.09552 6.5669C7.0056 6.43592 6.94817 6.2854 6.92801 6.12781C6.90784 5.97021 6.92552 5.81008 6.97957 5.66068L8.76957 0.660683C8.83763 0.472138 8.96079 0.308399 9.12305 0.19071C9.28532 0.0730218 9.47921 0.00681597 9.67957 0.000683195H16.6796C16.904 -0.00761545 17.1247 0.0598865 17.3061 0.192314C17.4875 0.324741 17.6191 0.514381 17.6796 0.730683L19.1096 5.73068C19.1512 5.87908 19.1579 6.0351 19.1293 6.18654C19.1006 6.33798 19.0374 6.48075 18.9444 6.6037C18.8515 6.72665 18.7314 6.82645 18.5935 6.89532C18.4556 6.96418 18.3037 7.00024 18.1496 7.00068Z" fill="#FFC414"/>
</svg>
