<svg xmlns="http://www.w3.org/2000/svg" style="display: none;">

    <symbol id="icon-dashboard"  viewBox="0 0 20 17">
        <path d="M12.94 14.058v-5.45a2.941 2.941 0 1 0-5.881 0v5.45a2.941 2.941 0 0 0 5.882 0zM20 14.059V2.94a2.941 2.941 0 1 0-5.883 0V14.06a2.941 2.941 0 1 0 5.883 0zM5.882 14.059v-2.051a2.941 2.941 0 1 0-5.882 0v2.05a2.941 2.941 0 0 0 5.882 0z"/>
    </symbol>

    <symbol id="icon-trader" viewBox="0 0 20 20">
        <path d="M14.871 10.944H6.666v1.887h8.205c1.436 0 1.966-1.258 2.051-1.887V4.339H20L15.897.564 11.794 4.34h3.077v6.605z"/>
        <path d="M5.128 9.056h8.205V7.17H5.128c-1.436 0-1.966 1.258-2.051 1.887v6.605H0l4.102 3.775 4.103-3.775H5.128V9.056z"/>
    </symbol>
    <symbol id="icon-account" viewBox="0 0 20 20">
        <path d="M10 0C4.486 0 0 4.486 0 10s4.486 10 10 10 10-4.486 10-10S15.514 0 10 0zm0 18.364c-4.612 0-8.364-3.752-8.364-8.364 0-4.612 3.752-8.364 8.364-8.364 4.612 0 8.364 3.752 8.364 8.364 0 4.612-3.752 8.364-8.364 8.364z" />
        <path d="M10 9.885a3.312 3.312 0 0 0 3.308-3.307A3.312 3.312 0 0 0 10 3.27a3.312 3.312 0 0 0-3.308 3.307A3.312 3.312 0 0 0 10 9.885zm0-4.98c.922 0 1.672.75 1.672 1.672 0 .922-.75 1.672-1.672 1.672-.921 0-1.671-.75-1.671-1.672 0-.921.75-1.671 1.671-1.671zM7.047 11.34l-2.466 2.467 1.157 1.157 1.987-1.988h4.55l1.987 1.988 1.157-1.157-2.466-2.467H7.047z" />
    </symbol>
    <symbol id="icon-transaction" viewBox="0 0 19 22" >
        <path d="M1.416 9.771a7.828 7.828 0 0 1 3.146-5.146 7.824 7.824 0 0 1 4.269-1.503L7.805 4.148l.934.933 2.54-2.54L8.74 0l-.934.934.874.873a9.137 9.137 0 0 0-4.894 1.75A9.14 9.14 0 0 0 .112 9.567a9.2 9.2 0 0 0 1.276 6.29l1.121-.698a7.88 7.88 0 0 1-1.093-5.387zM3.337 16.26l-.983.881a9.215 9.215 0 0 0 1.695 1.48l.74-1.093a7.894 7.894 0 0 1-1.452-1.268zM17.201 6.145l-1.12.697a7.88 7.88 0 0 1 1.092 5.388 7.828 7.828 0 0 1-3.146 5.145 7.826 7.826 0 0 1-4.268 1.503l1.025-1.025-.934-.934-2.54 2.541L9.85 22l.934-.933-.874-.874a9.139 9.139 0 0 0 4.894-1.75 9.14 9.14 0 0 0 3.673-6.008 9.2 9.2 0 0 0-1.276-6.29zM15.253 5.738l.983-.881a9.212 9.212 0 0 0-1.695-1.48L13.8 4.47c.533.36 1.021.787 1.452 1.268z"/>
        <path d="M14.377 11.012a5.175 5.175 0 1 0-10.351 0 5.175 5.175 0 0 0 10.35 0zm-7.75 2.036l.702-1.018c.41.457 1.346.796 1.99.808.538.011 1.04-.27 1.04-.69 0-.399-.327-.562-1.146-.61-1.088-.081-2.387-.479-2.387-1.79 0-1.057.867-1.57 1.752-1.737v-.802h1.247v.766c.634.07 1.162.276 1.681.732l-.795.936c-.41-.386-.878-.515-1.428-.515-.679 0-1.053.211-1.053.574 0 .374.34.585 1.077.632 1.088.07 2.468.316 2.468 1.848 0 .903-.653 1.694-1.95 1.863v.771H8.578v-.78a3.142 3.142 0 0 1-1.951-.988z"/>
    </symbol>
    <symbol id="icon-logout" fill="none" viewBox="0 0 20 19">
        <path d="M12.427 10.107a.717.717 0 0 0 0-.542.716.716 0 0 0-.15-.235h0l-.002-.003-2.267-2.266a.719.719 0 1 0-1.016 1.016h0l1.046 1.042H1.567a.717.717 0 1 0 0 1.433h8.47l-1.045 1.042s0 0 0 0a.717.717 0 0 0 .232 1.173.718.718 0 0 0 .785-.156s0 0 0 0l2.266-2.267h0l.002-.002a.717.717 0 0 0 .15-.235zm0 0v.001l-.139-.057.14.054v.002z" fill="#FF4343" stroke="#FF4343" stroke-width=".3"/>
        <mask id="aa" fill="#fff">
            <path d="M1.363 12.1a9.5 9.5 0 1 0-.208-4.308l1.919.35a7.55 7.55 0 1 1 .165 3.424l-1.876.533z"/>
        </mask>
        <path d="M1.363 12.1a9.5 9.5 0 1 0-.208-4.308l1.919.35a7.55 7.55 0 1 1 .165 3.424l-1.876.533z" stroke="#FF4343" stroke-width="4" mask="url(#aa)"/>
    </symbol>
    <symbol id="icon-accept" fill="none" viewBox="0 0 22 22">
        <path d="M11.112.791C5.296.791.565 5.521.565 11.338c0 5.816 4.73 10.546 10.547 10.546s10.547-4.73 10.547-10.546C21.659 5.52 16.929.79 11.112.79zm0 1.406a9.13 9.13 0 0 1 9.14 9.14 9.13 9.13 0 0 1-9.14 9.141 9.13 9.13 0 0 1-9.14-9.14 9.13 9.13 0 0 1 9.14-9.14zm5.625 4.453a.703.703 0 1 0 0 1.407.703.703 0 0 0 0-1.407zm-1.611 1.626a.703.703 0 0 0-.484.22l-5.661 5.837-3.01-2.812a.707.707 0 1 0-.967 1.033l3.515 3.28a.703.703 0 0 0 .99-.028l6.144-6.329a.704.704 0 0 0-.527-1.2z" fill="#5EB55C"/>
    </symbol>
    <symbol id="icon-wallet" fill="none" viewBox="0 0 19 17">
        <path d="M11.234.604c-.039-.143-.195-.208-.325-.169L2.842 2.972a.39.39 0 0 0-.104.052h9.25l-.754-2.42zM15.358 3.024L15.02 1.11a.254.254 0 0 0-.3-.208l-2.446.43.56 1.69h2.524z" fill="#fff"/>
        <path d="M17.885 7.818V4.326c0-.57-.466-1.031-1.044-1.031H2.14c-.577 0-1.043.46-1.043 1.03v10.8c0 .57.466 1.03 1.043 1.03h14.702c.578 0 1.044-.46 1.044-1.03V11.22c.231-.155.364-.443.364-.74V8.572c.012-.295-.117-.602-.364-.754zm-1.044 7.316H2.14a.04.04 0 0 1-.015-.002.017.017 0 0 1-.006-.004l-.002-.002v-10.8-.002h0l.002-.002a.018.018 0 0 1 .006-.004.041.041 0 0 1 .015-.003h14.702a.04.04 0 0 1 .016.003.018.018 0 0 1 .006.004.007.007 0 0 1 .001.002s0 0 0 0V7.718h-3.197a.672.672 0 0 0-.53.274.94.94 0 0 0-.189.575v1.912c0 .418.268.849.719.849h3.197V15.126h0v.001l-.001.001a.017.017 0 0 1-.006.004.04.04 0 0 1-.016.002zM14.77 9.53c0 .148-.122.27-.27.27a.272.272 0 0 1-.271-.27c0-.148.122-.27.27-.27.149 0 .27.122.27.27z" fill="#fff" stroke="#fff" stroke-width=".5"/>
    </symbol>
    <symbol id="icon-receivable" fill="none" viewBox="0 0 23 22">
        <path d="M8.56 14.011h1.495c.518 0 .945.429.945.96 0 .531-.427.959-.945.959H7.357c-.39 0-.7.319-.7.706 0 .387.31.706.7.706H8.64v.688c0 .387.31.707.7.707.39 0 .701-.32.701-.706v-.69h.014c1.297 0 2.347-1.065 2.347-2.37 0-1.305-1.05-2.37-2.347-2.37H8.627a.953.953 0 0 1-.945-.96c0-.53.427-.958.945-.958h2.592c.39 0 .7-.319.7-.706a.704.704 0 0 0-.7-.706H10.04v-.689a.704.704 0 0 0-.7-.706c-.39 0-.701.319-.701.706v.689h-.013c-1.297 0-2.347 1.066-2.347 2.37 0 1.282 1.014 2.334 2.28 2.37zm0 0h-.003l.013-.25-.007.25H8.56zm7.77-2.606c-.39 0-.702.319-.702.706v6.154c0 .87-.7 1.573-1.553 1.573H3.705a1.566 1.566 0 0 1-1.553-1.573V7.325c0-.87.7-1.573 1.553-1.573h8.341c.39 0 .7-.32.7-.706a.704.704 0 0 0-.7-.706h-8.34C2.072 4.34.75 5.68.75 7.325v10.94c0 1.643 1.323 2.985 2.955 2.985h10.37c1.632 0 2.955-1.342 2.955-2.985V12.11a.703.703 0 0 0-.7-.706zM14.863 6.018h0l2.97 3.002s0 0 0 0a.71.71 0 0 0 .993 0l2.97-3.002a.71.71 0 0 0 0-.996.697.697 0 0 0-.993 0L19.03 6.814V1.457a.704.704 0 0 0-.7-.706c-.39 0-.701.319-.701.706v5.356l-1.773-1.792s0 0 0 0a.696.696 0 0 0-.993 0 .71.71 0 0 0 0 .997z" fill="#fff" stroke="#fff" stroke-width=".5"/>
    </symbol>
    <symbol id="icon-payable" fill="none" viewBox="0 0 23 22">
        <path d="M8.685 14.011h1.495c.518 0 .945.429.945.96 0 .531-.427.959-.945.959H7.482c-.39 0-.7.319-.7.706 0 .387.31.706.7.706h1.283v.688c0 .387.31.707.7.707.39 0 .701-.32.701-.706v-.69h.014c1.297 0 2.347-1.065 2.347-2.37 0-1.305-1.05-2.37-2.347-2.37H8.752a.953.953 0 0 1-.945-.96c0-.53.427-.958.945-.958h2.592c.39 0 .7-.319.7-.706a.704.704 0 0 0-.7-.706h-1.178v-.689a.704.704 0 0 0-.7-.706c-.39 0-.701.319-.701.706v.689h-.013c-1.297 0-2.347 1.066-2.347 2.37 0 1.283 1.014 2.334 2.28 2.37zm0 0h-.003l.013-.25-.007.25h-.003zm7.77-2.606c-.39 0-.702.319-.702.706v6.154c0 .87-.7 1.573-1.553 1.573H3.83a1.566 1.566 0 0 1-1.553-1.573V7.325c0-.87.7-1.573 1.553-1.573h8.341c.39 0 .7-.32.7-.706a.704.704 0 0 0-.7-.706h-8.34C2.197 4.34.874 5.68.874 7.325v10.94c0 1.643 1.323 2.985 2.955 2.985H14.2c1.632 0 2.955-1.342 2.955-2.985V12.11a.704.704 0 0 0-.7-.706zM21.92 3.955h0L18.95.952a.71.71 0 0 0-.993 0l-2.97 3.003a.71.71 0 0 0 0 .996c.274.277.72.277.993 0l1.773-1.792v5.357c0 .387.311.706.7.706.39 0 .702-.319.702-.706V3.159l1.773 1.792s0 0 0 0a.696.696 0 0 0 .992 0 .71.71 0 0 0 0-.996z" fill="#fff" stroke="#fff" stroke-width=".5"/>
    </symbol>
    <symbol id="icon-tradeFinance" fill="none" viewBox="0 0 15 18" >
        <path d="M7.5 17.466C1.36 15.095-.54 8.24 1.013 2.802L7.5.53l6.487 2.272C15.54 8.24 13.64 15.095 7.5 17.466z" stroke="#053C75"/>
        <path d="M7.224 13a.201.201 0 0 1-.149-.062.19.19 0 0 1-.061-.151v-.623a2.82 2.82 0 0 1-1.086-.31 1.921 1.921 0 0 1-.683-.605A1.566 1.566 0 0 1 5 10.476c0-.048.018-.09.053-.125a.191.191 0 0 1 .14-.062h.788c.07 0 .122.015.157.044.041.024.08.066.114.125.064.201.199.37.403.506.21.137.496.205.858.205.403 0 .707-.068.91-.205a.664.664 0 0 0 .316-.577.547.547 0 0 0-.158-.4c-.105-.107-.265-.199-.481-.276a9.573 9.573 0 0 0-.937-.293c-.689-.166-1.194-.385-1.515-.658-.321-.273-.482-.664-.482-1.173 0-.463.164-.854.49-1.174.333-.32.786-.515 1.358-.586v-.614a.19.19 0 0 1 .061-.15.201.201 0 0 1 .15-.063h.542c.064 0 .114.02.149.062a.19.19 0 0 1 .061.151v.631c.38.054.704.17.972.347.275.172.482.373.622.605.146.23.225.456.236.675a.182.182 0 0 1-.184.187h-.831c-.123 0-.208-.054-.254-.16-.035-.19-.152-.347-.35-.471-.193-.13-.436-.196-.727-.196-.321 0-.575.062-.762.187a.617.617 0 0 0-.272.542c0 .16.044.293.132.4.093.107.239.201.438.284.204.083.493.172.866.267.52.119.932.252 1.235.4.31.148.537.335.683.56.146.225.219.513.219.862 0 .516-.184.934-.552 1.254-.362.32-.852.512-1.47.577v.623a.19.19 0 0 1-.062.15.184.184 0 0 1-.149.063h-.543z" fill="#053C75"/>
    </symbol>
    <symbol id="icon-refresh" fill="none" viewBox="0 0 13 15">
        <path d="M2.167 8.436c0-2.34 1.808-4.248 4.083-4.38V5.44a.478.478 0 0 0 .74.404l3.224-2.104-.137-.21.137.21a.48.48 0 0 0 .142-.144l-.21-.134.21.134a.483.483 0 0 0-.142-.664L6.99.828a.477.477 0 0 0-.74.404v1.396C3.188 2.76.75 5.313.75 8.436c0 3.208 2.572 5.814 5.75 5.814s5.75-2.606 5.75-5.814a.711.711 0 0 0-.708-.714.711.711 0 0 0-.709.714c0 2.425-1.942 4.387-4.333 4.387-2.39 0-4.333-1.962-4.333-4.387z" fill="#0862BE" stroke="#0862BE" stroke-width=".5"/>
    </symbol>
    <symbol id="icon-contactDetails" fill="none" viewBox="0 0 15 15" >
        <path d="M12.733 2.133A7.496 7.496 0 0 0 .039 8.267 7.502 7.502 0 0 0 7.493 15h.09a7.44 7.44 0 0 0 4.891-1.894.478.478 0 0 0 .127-.112l.258-.24a7.5 7.5 0 0 0-.126-10.621zM7.569 14.04a6.492 6.492 0 0 1-4.067-1.355c.09-.203.478-.46 1.72-1.013.854-.38 1.213-.904 1.364-1.314.323.142.671.217 1.024.218h.03c.33-.003.655-.07.958-.196.165.4.54.878 1.373 1.237 1.125.48 1.558.719 1.707.908a6.49 6.49 0 0 1-4.109 1.515zM5.691 7.337c-.014-1.269.845-2.303 1.893-2.322h.019a1.763 1.763 0 0 1 1.325.632 2.52 2.52 0 0 1 .606 1.647c.014 1.269-.835 2.313-1.895 2.325-1.06.012-1.934-1.01-1.948-2.282zm6.68 4.518c-.359-.386-1.017-.697-2.029-1.12-.717-.305-.885-.719-.918-.887a3.426 3.426 0 0 0 1.064-2.566 3.48 3.48 0 0 0-.842-2.27 2.73 2.73 0 0 0-2.07-.957c-1.586.02-2.87 1.496-2.84 3.292a3.449 3.449 0 0 0 1.01 2.44v.02c0 .008 0 .582-.907.99-1.06.478-1.725.81-2.058 1.235A6.543 6.543 0 0 1 7.416.965h.077a6.537 6.537 0 0 1 5.959 3.866 6.546 6.546 0 0 1-1.08 7.023z" fill="#053C75"/>
    </symbol>
    <symbol id="icon-kycproofs" fill="none" viewBox="0 0 16 16" >
        <path d="M14.933 3.995l-2.09-.838-.838-2.09-2.217.3L8 0 6.212 1.369l-2.217-.302-.838 2.09-2.09.838.305 2.217L0 8l1.37 1.788-.303 2.217 2.096.838.832 2.09 2.217-.305L8 16l1.788-1.369 2.217.302.838-2.094 2.09-.834-.3-2.217L16 8l-1.367-1.788.3-2.217zM14.658 8L13.51 9.493l.253 1.831-1.744.7-.696 1.743-1.83-.256L8 14.658 6.507 13.51l-1.831.256-.7-1.744-1.743-.699.256-1.83L1.342 8 2.49 6.507l-.256-1.831 1.744-.7.699-1.743 1.83.256L8 1.342 9.493 2.49l1.831-.253.7 1.744 1.743.7-.256 1.827L14.658 8z" fill="#053C75"/>
        <path d="M7.25 9.195l-1.967-1.61-.676.827 2.77 2.265 4.014-4.656-.809-.695L7.25 9.195z" fill="#053C75"/>
    </symbol>
    <symbol id="icon-recentActivity" fill="none" viewBox="0 0 16 15">
        <path d="M8.209 13.996A6.998 6.998 0 1 1 8.209 0a6.998 6.998 0 0 1 0 13.996zm0-1.076a5.922 5.922 0 1 0 0-11.843 5.922 5.922 0 0 0 0 11.843zm-8.15-1.754a.538.538 0 0 1 .959-.491c.35.684.798 1.316 1.327 1.874a.538.538 0 1 1-.782.74 9.174 9.174 0 0 1-1.504-2.123zm3.118 3.478a.538.538 0 0 1 .593-.9c.133.088.268.172.406.252a.538.538 0 1 1-.539.932 9.114 9.114 0 0 1-.46-.284zm7.45-6.053a.538.538 0 1 1-.53.937L7.405 8.005a.538.538 0 0 1-.273-.468V3.23a.538.538 0 1 1 1.077 0v3.993l2.418 1.368z" fill="#053C75"/>
    </symbol>
    <symbol id="icon-contract" fill="none" viewBox="0 0 21 19">
        <path d="M9.103 4.066H7.084v3.028H4.057v2.018h3.027v3.028h2.019V9.112h3.027V7.094H9.103V4.066z" fill="#0862BE"/>
        <path d="M17.198.03H3.028A3.011 3.011 0 0 0 .02 3.035v12.151a3.011 3.011 0 0 0 3.006 3.008H14.15l6.055-6.055V3.036A3.011 3.011 0 0 0 17.198.03zm-2.04 14.72v-.612a.99.99 0 0 1 .989-.99h.61l-1.599 1.601zm3.028-3.447a2.656 2.656 0 0 0-.988-.173h-1.052a3.011 3.011 0 0 0-3.006 3.007v1.05c0 .39.066.715.172.989H3.027a.99.99 0 0 1-.988-.988V3.036a.99.99 0 0 1 .988-.988h14.17a.99.99 0 0 1 .989.988v8.267z" fill="#0862BE"/>
    </symbol>
    <symbol id="icon-tradestats" fill="none" viewBox="0 0 16 11">
        <path fill-rule="evenodd" clip-rule="evenodd" d="M0 11h16V9.952H0V11zm1.6-5.653l1.495 1.4 2.972-2.815L9.055 6.81l4.45-4.199 1.428 1.383V0h-4.2l1.278 1.196-2.94 2.798-3.02-2.846-4.452 4.199z" fill="#053C75"/>
    </symbol>
    <symbol id="icon-declaration" fill="none" viewBox="0 0 14 14">
        <path d="M7.002 13.998A6.998 6.998 0 1 1 10.324.84c.113.056.224.12.333.19a.528.528 0 1 1-.555.898c-.09-.053-.184-.11-.28-.158a5.943 5.943 0 1 0 2.547 2.678L7.245 9.57a.528.528 0 0 1-.75 0L4.382 7.46a.528.528 0 1 1 .75-.745L6.87 8.452l5.25-5.25a.528.528 0 0 1 .824.094 7.005 7.005 0 0 1-5.942 10.702z" fill="#053C75"/>
    </symbol>
    <symbol id="icon-edit" fill="none" viewBox="0 0 13 14">
        <path d="M11.693.56c-.62-.62-1.62-.62-2.24 0l-8.15 8.135c-.032.032-.048.048-.064.08 0 0 0 .015-.016.015-.016.032-.031.048-.031.08v.016l-1.08 3.527c-.048.174 0 .35.11.476a.457.457 0 0 0 .334.143c.048 0 .095 0 .143-.016l3.511-1.08h.016c.032-.016.064-.016.08-.032 0 0 .015 0 .015-.016.032-.016.064-.031.08-.063l8.134-8.135c.62-.62.62-1.62 0-2.24l-.842-.89zM1.287 11.825l.588-1.89 1.318 1.318-1.906.572zm2.796-1.033L2.32 9.044 8.484 2.88l1.764 1.764-6.165 6.148zm7.785-7.8l-.953.952-1.748-1.747.953-.953a.633.633 0 0 1 .906 0l.858.858a.628.628 0 0 1-.016.89z" fill="#848A91"/>
    </symbol>
    <symbol id="icon-org-details" fill="none" viewBox="0 0 17 17">
        <path d="M8.5 0C3.813 0 0 3.813 0 8.5 0 13.187 3.813 17 8.5 17c4.687 0 8.5-3.813 8.5-8.5C17 3.813 13.187 0 8.5 0zm0 16.015a7.473 7.473 0 0 1-4.589-1.57c.263-.657.712-1.294 1.054-1.469.553-.281 1.446-.48 2.515-.562l.562-.042-.497-.266c-1.476-.79-2.58-3.204-2.58-4.836a3.552 3.552 0 0 1 3.549-3.548 3.552 3.552 0 0 1 3.548 3.548c0 1.631-1.102 4.045-2.577 4.835l-.498.266.563.043c1.074.08 1.971.28 2.526.562.342.175.78.79 1.044 1.444a7.472 7.472 0 0 1-4.62 1.595zm3.725-3.331c-.506-.258-1.266-.45-2.172-.553 1.397-1.04 2.338-3.285 2.338-4.86a3.88 3.88 0 0 0-3.877-3.877A3.88 3.88 0 0 0 4.638 7.27c0 1.577.941 3.823 2.34 4.862-.902.103-1.658.295-2.162.552-.438.223-.895.9-1.17 1.546A7.5 7.5 0 0 1 .986 8.5C.985 4.356 4.355.985 8.5.985c4.143 0 7.515 3.371 7.515 7.515a7.5 7.5 0 0 1-2.63 5.704c-.272-.63-.716-1.294-1.16-1.52z" fill="#053C75"/>
    </symbol>
    <symbol id="icon-marketNews" fill="none" viewBox="0 0 15 15">
        <path d="M12.236 1.896H4.31c-1.293 0-2.413 1.12-2.413 2.413v7.927c0 .603.258 1.12.603 1.551h-.086c-.862 0-1.551-.689-1.551-1.55V2.067c0-.603.517-1.12 1.12-1.206H13.96A1.961 1.961 0 0 0 12.322 0H2.069C.948 0 0 .948 0 2.068V12.323c0 1.292 1.034 2.412 2.327 2.412h9.823c1.293 0 2.413-1.12 2.413-2.412V4.394c.086-1.465-1.034-2.5-2.327-2.5zm1.551 10.34c0 .862-.689 1.551-1.55 1.551H4.308c-.862 0-1.552-.689-1.552-1.55V4.308c0-.862.69-1.552 1.552-1.552h7.927c.862 0 1.551.69 1.551 1.552v7.927z" fill="#053C75"/>
        <path d="M11.891 5.084H8.358V6.29h3.533V5.084zM11.891 7.67H8.358v1.206h3.533V7.67zM7.41 5.084H4.74v3.792h2.67V5.084zM11.892 10.254H4.739v1.206h7.153v-1.206z" fill="#053C75"/>
    </symbol>
    <symbol id="icon-description" fill="none" viewBox="0 0 16 16">
        <path d="M2.667 16h10.666A2.668 2.668 0 0 0 16 13.333V2.667A2.668 2.668 0 0 0 13.333 0H2.667A2.668 2.668 0 0 0 0 2.667v10.666A2.668 2.668 0 0 0 2.667 16zM1.77 2.667c0-.491.405-.896.896-.896h10.666c.491 0 .896.405.896.896v10.666c0 .491-.405.896-.896.896H2.667a.901.901 0 0 1-.896-.896V2.667z" fill="#053C75"/>
        <path d="M12.459 7.104H3.563v1.77h8.896v-1.77zM12.459 3.563H3.563v1.77h8.896v-1.77zM8.896 10.666H3.562v1.77h5.334v-1.77z" fill="#053C75"/>
    </symbol>
    <symbol id="icon-quantity" fill="none" viewBox="0 0 17 16">
        <path fill-rule="evenodd" clip-rule="evenodd" d="M.009 15.295l1.933-11.17a.605.605 0 0 1 .597-.502h11.224a.605.605 0 0 1 .597.502l1.933 11.17A.602.602 0 0 1 15.7 16H.602a.601.601 0 0 1-.593-.705z" fill="#053C75"/>
        <path d="M8.15 0a2.424 2.424 0 0 0-2.416 2.415c0 .21.037.41.088.604h1.27a1.22 1.22 0 0 1-.162-.604c0-.68.539-1.22 1.22-1.22.68 0 1.219.54 1.219 1.22 0 .222-.062.426-.163.604h1.271a2.37 2.37 0 0 0 .087-.604A2.424 2.424 0 0 0 8.15 0z" fill="#053C75"/>
    </symbol>
    <symbol id="icon-contract-price" fill="none" viewBox="0 0 16 20">
        <path d="M.438 13.612L4.95 5.137a1.766 1.766 0 0 1 1.391-.928l3.31-.316a5.427 5.427 0 0 1 .548-1.476c.443-.843 1.076-1.56 1.75-1.981.801-.485 1.603-.57 2.235-.232.654.337 1.012 1.054 1.054 1.981.021.802-.21 1.708-.653 2.573-.254.484-.57.927-.928 1.286l1.602 2.909c.274.527.295 1.138 0 1.665l-4.49 8.454c-.317.59-.928.928-1.56.928-.275 0-.549-.063-.823-.21l-7.23-3.838a1.735 1.735 0 0 1-.718-2.34zM13.931 2.228c-.021-.422-.148-.76-.358-.865-.211-.105-.549-.042-.907.19-.485.295-.949.843-1.286 1.476a4.57 4.57 0 0 0-.316.738l.147-.021a1.774 1.774 0 0 1 1.708.906l.063.127c.148-.19.295-.422.443-.675.337-.611.506-1.307.506-1.876zM1.788 14.814l7.23 3.837c.212.105.465.02.57-.169l4.512-8.475a.447.447 0 0 0 0-.4l-1.497-2.741c-.4.21-.801.316-1.18.316-.106 0-.212 0-.317-.021a.65.65 0 0 1-.527-.76c.063-.357.4-.61.759-.526.169.021.4-.021.632-.148l-.21-.4a.42.42 0 0 0-.38-.232h-.042l-4.87.443a.44.44 0 0 0-.337.231l-4.512 8.454a.445.445 0 0 0 .169.59z" fill="#053C75"/>
        <path d="M9.113 14.287c.692-.911.453-2.21-.498-2.804l-.53-.327a.807.807 0 0 1-.212-1.168c.255-.318.751-.385 1.095-.17l.608.38a.577.577 0 0 1 .239.665c-.034.068.008.141.058.185l.687.431c.079.052.18.018.232-.06.363-.722.14-1.615-.532-2.103l.431-.687c.052-.08.018-.181-.05-.215l-.687-.43c-.08-.053-.181-.018-.215.05l-.43.687a1.93 1.93 0 0 0-2.525.898c-.457.896-.07 1.987.774 2.522l.451.275c.394.26.5.783.212 1.168-.255.318-.751.386-1.095.17l-.608-.379a.577.577 0 0 1-.238-.666c.033-.068-.009-.141-.059-.185l-.687-.431c-.078-.052-.18-.018-.232.061-.363.72-.14 1.614.532 2.103l-.43.687c-.053.078-.018.18.05.214l.687.43c.078.053.18.018.214-.05l.45-.697c.804.339 1.765.149 2.308-.554z" fill="#053C75"/>
    </symbol>
    <symbol id="icon-shipment-period" fill="none" viewBox="0 0 19 17" >
        <path d="M16.15 1.889h-.95V.944c0-.25-.1-.49-.278-.667A.953.953 0 0 0 13.3.944v.945H5.7V.944c0-.25-.1-.49-.278-.667A.953.953 0 0 0 3.8.944v.945h-.95c-.756 0-1.48.298-2.015.83A2.825 2.825 0 0 0 0 4.722v9.445c0 .751.3 1.472.835 2.003.534.531 1.26.83 2.015.83h13.3c.756 0 1.48-.299 2.015-.83A2.825 2.825 0 0 0 19 14.167V4.722c0-.751-.3-1.472-.835-2.003a2.859 2.859 0 0 0-2.015-.83zM2.85 3.778h.95v.944c0 .25.1.49.278.668A.953.953 0 0 0 5.7 4.722v-.944h7.6v.944c0 .25.1.49.278.668a.953.953 0 0 0 1.622-.668v-.944h.95c.252 0 .494.1.672.276a.942.942 0 0 1 .278.668v1.89H1.9v-1.89c0-.25.1-.49.278-.668a.953.953 0 0 1 .672-.276zm13.3 11.333H2.85a.953.953 0 0 1-.672-.277.942.942 0 0 1-.278-.667V8.5h15.2v5.667c0 .25-.1.49-.278.668a.953.953 0 0 1-.672.276z" fill="#053C75"/>
    </symbol>
    <symbol id="icon-port" fill="none" viewBox="0 0 15 19">
        <path d="M7.5 0C3.358 0 0 3.34 0 7.46c0 5.665 7.5 10.595 7.5 10.595S15 13.125 15 7.46C15 3.34 11.642 0 7.5 0zm0 13.257c-3.22 0-5.829-2.595-5.829-5.798 0-3.201 2.61-5.797 5.829-5.797 3.22 0 5.83 2.596 5.83 5.797 0 3.203-2.61 5.798-5.83 5.798z" fill="#053C75"/>
        <path d="M9.562 4.676a.347.347 0 0 0-.348-.346H5.738a.347.347 0 0 0-.347.346v2.346l1.993-.58.098-.03.098.03 1.982.578V4.676z" fill="#053C75"/>
        <path d="M6.086 11.245h1.22v-4.42L4 7.786l2.086 3.458zM7.652 11.245h1.22l2.086-3.458-3.306-.965v4.423z" fill="#053C75"/>
    </symbol>
    <symbol id="icon-advance-payment" fill="none" viewBox="0 0 17 17">
        <path d="M14.52 11.85c-.449.16-1.184.358-1.99.537-.287.466-.807.86-1.632 1.022a3.619 3.619 0 0 1-.645.054c-.574.018-1.237-.036-1.99-.108-.054 0-.107 0-.161-.018-.18-.017-.34-.16-.359-.34a.367.367 0 0 1 .395-.395c.053 0 .125.018.179.018.968.09 1.864.162 2.438.054 1.058-.197 1.362-.842 1.29-1.38-.053-.448-.376-.86-.914-.825-.752.054-1.63 0-2.473-.071-.968-.072-1.972-.09-2.69-.018-.788.09-2.402.68-3.818 1.63-.699.467-1.47 1.04-1.936 1.381a.52.52 0 0 0-.107.735l2.061 2.671c.18.233.502.27.735.09l.753-.592a.66.66 0 0 1 .628-.107c1.38.448 2.868.735 3.836.789 2.133.143 6.202-2.367 7.368-3.173 1.165-.807.322-2.42-.968-1.954zM9.266 9.053a4.522 4.522 0 0 0 4.517-4.518C13.783 2.044 11.758 0 9.266 0 6.774 0 4.73 2.026 4.73 4.517a4.54 4.54 0 0 0 4.536 4.536zM8.87 2.277v-.574c0-.054.054-.108.108-.108h.556c.054 0 .107.054.107.108v.556a1.138 1.138 0 0 1 1.076 1.04c0 .071-.054.125-.108.125h-.555c-.054 0-.09-.036-.108-.09a.384.384 0 0 0-.376-.304h-.484c-.287 0-.556.215-.592.501a.56.56 0 0 0 .556.61h.412c.77 0 1.398.663 1.327 1.452-.054.61-.556 1.076-1.148 1.165v.574a.116.116 0 0 1-.107.107h-.556a.116.116 0 0 1-.108-.107v-.556a1.138 1.138 0 0 1-1.075-1.04c0-.071.054-.107.107-.107h.556c.054 0 .09.036.108.09.036.179.197.304.376.304h.484c.287 0 .556-.215.592-.502a.56.56 0 0 0-.556-.61h-.358c-.7 0-1.31-.501-1.38-1.2A1.318 1.318 0 0 1 8.87 2.277z" fill="#053C75"/>
    </symbol>
    <symbol id="icon-credit-terms" fill="none" viewBox="0 0 17 16">
        <path d="M16.36 8.68a.902.902 0 0 0-.891-.262l-2.69.734v.192a1.689 1.689 0 0 1-1.363 1.502l-.174.035c-.978.175-1.991.262-2.97.262H7.47a.451.451 0 0 1-.454-.454c0-.245.192-.454.454-.454h.803a18.903 18.903 0 0 0 2.813-.245l.174-.035a.761.761 0 0 0 .63-.68.795.795 0 0 0-.176-.56.762.762 0 0 0-.524-.262l-4.244-.297a2.074 2.074 0 0 0-1.345.367l-3.65 2.445 3.58 2.9 3.563.472a2.362 2.362 0 0 0 1.764-.454l5.38-3.913a.796.796 0 0 0 .35-.612c.017-.262-.053-.506-.227-.68zM.08 13.1c-.122.157-.105.402.053.524l2.83 2.288c.07.07.174.087.279.087a.391.391 0 0 0 .262-.14l1.223-1.502-3.424-2.76L.08 13.1zM11.016 1.118h.908a.552.552 0 0 0 .56-.559.552.552 0 0 0-.56-.559h-.908a.552.552 0 0 0-.559.559c0 .314.262.559.559.559zM8.219 1.659a.6.6 0 0 0 .366-.14c.175-.14.367-.262.577-.332a.556.556 0 0 0 .367-.699.556.556 0 0 0-.7-.366 2.82 2.82 0 0 0-.977.541c-.227.21-.262.56-.053.786a.52.52 0 0 0 .42.21zM14.7 3.11v.908c0 .314.244.559.558.559a.552.552 0 0 0 .56-.559V3.11a.552.552 0 0 0-.56-.56.552.552 0 0 0-.559.56zM13.705 1.241c.21.087.384.21.541.384a.53.53 0 0 0 .402.175c.14 0 .28-.052.384-.157a.56.56 0 0 0 .035-.804 2.567 2.567 0 0 0-.926-.628.565.565 0 0 0-.733.296c-.122.297.017.63.297.734zM7.486 4.366a.552.552 0 0 0 .559-.559V2.9a.552.552 0 0 0-.56-.56.552.552 0 0 0-.558.56v.908c-.018.315.244.559.559.559zM15.258 5.467a.552.552 0 0 0-.559.559v.908c0 .314.245.559.56.559a.552.552 0 0 0 .558-.559v-.908c.018-.315-.244-.56-.559-.56zM7.486 7.284a.552.552 0 0 0 .559-.559v-.908a.552.552 0 0 0-.56-.56.552.552 0 0 0-.558.56v.908c-.018.314.244.559.559.559z" fill="#053C75"/>
    </symbol>
    <symbol id="icon-document" fill="none" viewBox="0 0 13 17">
        <path d="M7.717 2.049v2.626h2.934L7.717 2.049zm4.064 3.901H6.498V1.275h-4.04c-.673 0-1.218.57-1.22 1.273l-.019 11.9c-.001.704.544 1.276 1.217 1.277h8.126c.673 0 1.219-.57 1.219-1.275v-8.5zM7.304 0L13 5.1v9.35c0 1.408-1.092 2.55-2.438 2.55H2.438c-1.35-.002-2.44-1.146-2.438-2.554l.02-11.9C.022 1.139 1.113 0 2.458 0h4.846z" fill="#053C75"/>
    </symbol>
    <symbol id="icon-telegram" fill="none" viewBox="0 0 18 18">
        <path d="M.02 17.165l1.521-6.584c.06-.28.3-.5.6-.54l8.502-.88c.24-.02.24-.381 0-.421l-8.502-.82a.66.66 0 0 1-.6-.521L.021.835c-.14-.56.46-1.02.98-.76L17.625 8.4c.5.26.5.98 0 1.24L1 17.925c-.52.26-1.12-.2-.98-.76z" fill="#0862BE" fill-opacity=".42"/>
    </symbol>
    <symbol id="icon-doc2" fill="none" viewBox="0 0 12 15">
        <path d="M11.134 5.49a.372.372 0 0 0-.098-.25L6.91.783a.317.317 0 0 0-.23-.107H2.556c-.48 0-.94.206-1.278.574-.34.368-.53.867-.53 1.387v10.305c0 .52.19 1.019.53 1.387.339.367.798.574 1.278.574h6.77c.48 0 .94-.207 1.279-.574.339-.368.53-.867.53-1.387V5.49zM7.042 1.924l2.942 3.191H8.357c-.349 0-.683-.15-.93-.418a1.49 1.49 0 0 1-.385-1.008V1.924zm3.435 11.018c0 .33-.122.648-.337.882a1.107 1.107 0 0 1-.814.366h-6.77c-.305 0-.598-.132-.814-.366a1.304 1.304 0 0 1-.337-.882V2.637c0-.331.122-.648.337-.883.216-.234.509-.365.814-.365h3.829v2.3c0 .567.208 1.111.577 1.513.37.4.872.626 1.395.626h2.12v7.114z" fill="#FE4350"/>
    </symbol>
    <symbol id="icon-refresh2" fill="none" viewBox="0 0 16 15">
        <path d="M12.332 2.969c-1.112-.898-2.646-1.453-4.17-1.453a5.813 5.813 0 1 0 5.813 5.812.727.727 0 0 1 1.453 0A7.266 7.266 0 1 1 8.162.062c1.852 0 3.711.666 5.086 1.78V.789a.726.726 0 1 1 1.454 0v2.906a.726.726 0 0 1-.727.727h-2.906a.727.727 0 0 1 0-1.453h1.262z" fill="#272829"/>
    </symbol>
    <symbol id="icon-amend" fill="none" viewBox="0 0 15 15">
        <path d="M9.343 2.516h-8.15V.556h8.15c2.795 0 5.064 2.281 5.064 5.078A5.065 5.065 0 0 1 9.343 10.7H4.547l.388.387 1.254 1.255-1.391 1.38L.796 9.717l4.002-4.002 1.391 1.38L4.935 8.35l-.388.388h4.796c1.703 0 3.119-1.381 3.119-3.104a3.121 3.121 0 0 0-3.119-3.118z" fill="#272829" stroke="#fff" stroke-width=".454"/>
    </symbol>
    <symbol id="icon-seen" fill="none" viewBox="0 0 19 9">
        <path d="M18.847 4.075c-2.3-2.525-5.57-4-8.993-4.075H9.522C5.972 0 2.548 1.5.172 4.1a.58.58 0 0 0 0 .825c.384.4.767.8 1.201 1.15A.634.634 0 0 0 2.267 6a.599.599 0 0 0-.076-.875c-.23-.2-.46-.4-.69-.625a11.085 11.085 0 0 1 4.47-2.7c-.587.75-.92 1.7-.92 2.7 0 2.475 2.07 4.5 4.6 4.5 2.528 0 4.597-2.025 4.597-4.5 0-.95-.306-1.825-.817-2.55a11.23 11.23 0 0 1 4.062 2.55c-.18.175-.358.35-.537.5a.618.618 0 0 0-.05.875c.23.25.638.275.893.05.358-.325.716-.675 1.048-1.025a.631.631 0 0 0 0-.825z" fill="#0862BE"/>
    </symbol>
    <symbol id="icon-plus"  viewBox="0 0 12 13">
        <path d="M6.53 5.176h4.761v1.66H6.52v5.237H4.846V6.836H0v-1.66h4.858V0h1.673v5.176z" />
    </symbol>
</svg>