<svg xmlns="http://www.w3.org/2000/svg" style="display: none;">

    <symbol id="dashboard"  viewBox="0 0 20 17">
        <path d="M12.94 14.058v-5.45a2.941 2.941 0 1 0-5.881 0v5.45a2.941 2.941 0 0 0 5.882 0zM20 14.059V2.94a2.941 2.941 0 1 0-5.883 0V14.06a2.941 2.941 0 1 0 5.883 0zM5.882 14.059v-2.051a2.941 2.941 0 1 0-5.882 0v2.05a2.941 2.941 0 0 0 5.882 0z"/>
    </symbol>

    <symbol id="trader" viewBox="0 0 20 20">
        <path d="M14.871 10.944H6.666v1.887h8.205c1.436 0 1.966-1.258 2.051-1.887V4.339H20L15.897.564 11.794 4.34h3.077v6.605z"/>
        <path d="M5.128 9.056h8.205V7.17H5.128c-1.436 0-1.966 1.258-2.051 1.887v6.605H0l4.102 3.775 4.103-3.775H5.128V9.056z"/>
    </symbol>
    <symbol id="account" viewBox="0 0 20 20">
        <path d="M10 0C4.486 0 0 4.486 0 10s4.486 10 10 10 10-4.486 10-10S15.514 0 10 0zm0 18.364c-4.612 0-8.364-3.752-8.364-8.364 0-4.612 3.752-8.364 8.364-8.364 4.612 0 8.364 3.752 8.364 8.364 0 4.612-3.752 8.364-8.364 8.364z" />
        <path d="M10 9.885a3.312 3.312 0 0 0 3.308-3.307A3.312 3.312 0 0 0 10 3.27a3.312 3.312 0 0 0-3.308 3.307A3.312 3.312 0 0 0 10 9.885zm0-4.98c.922 0 1.672.75 1.672 1.672 0 .922-.75 1.672-1.672 1.672-.921 0-1.671-.75-1.671-1.672 0-.921.75-1.671 1.671-1.671zM7.047 11.34l-2.466 2.467 1.157 1.157 1.987-1.988h4.55l1.987 1.988 1.157-1.157-2.466-2.467H7.047z" />
    </symbol>
    <symbol id="transaction" viewBox="0 0 19 22" >
        <path d="M1.416 9.771a7.828 7.828 0 0 1 3.146-5.146 7.824 7.824 0 0 1 4.269-1.503L7.805 4.148l.934.933 2.54-2.54L8.74 0l-.934.934.874.873a9.137 9.137 0 0 0-4.894 1.75A9.14 9.14 0 0 0 .112 9.567a9.2 9.2 0 0 0 1.276 6.29l1.121-.698a7.88 7.88 0 0 1-1.093-5.387zM3.337 16.26l-.983.881a9.215 9.215 0 0 0 1.695 1.48l.74-1.093a7.894 7.894 0 0 1-1.452-1.268zM17.201 6.145l-1.12.697a7.88 7.88 0 0 1 1.092 5.388 7.828 7.828 0 0 1-3.146 5.145 7.826 7.826 0 0 1-4.268 1.503l1.025-1.025-.934-.934-2.54 2.541L9.85 22l.934-.933-.874-.874a9.139 9.139 0 0 0 4.894-1.75 9.14 9.14 0 0 0 3.673-6.008 9.2 9.2 0 0 0-1.276-6.29zM15.253 5.738l.983-.881a9.212 9.212 0 0 0-1.695-1.48L13.8 4.47c.533.36 1.021.787 1.452 1.268z"/>
        <path d="M14.377 11.012a5.175 5.175 0 1 0-10.351 0 5.175 5.175 0 0 0 10.35 0zm-7.75 2.036l.702-1.018c.41.457 1.346.796 1.99.808.538.011 1.04-.27 1.04-.69 0-.399-.327-.562-1.146-.61-1.088-.081-2.387-.479-2.387-1.79 0-1.057.867-1.57 1.752-1.737v-.802h1.247v.766c.634.07 1.162.276 1.681.732l-.795.936c-.41-.386-.878-.515-1.428-.515-.679 0-1.053.211-1.053.574 0 .374.34.585 1.077.632 1.088.07 2.468.316 2.468 1.848 0 .903-.653 1.694-1.95 1.863v.771H8.578v-.78a3.142 3.142 0 0 1-1.951-.988z"/>
    </symbol>
    <symbol id="logout" viewBox="0 0 82 84">
        <path d="M44.4 59.6c.8.7 1.7 1 2.6 1 1.1 0 2.2-.5 3-1.4l12.6-14.6c1.3-1.5 1.3-3.7 0-5.2L50 24.8c-1.4-1.7-4-1.9-5.6-.4-1.7 1.4-1.9 4-.4 5.6l6.9 8H25.6c-2.2 0-4 1.8-4 4s1.8 4 4 4h25.3L44 54c-1.5 1.7-1.3 4.2.4 5.6z" fill="#FF4343"/>
        <path d="M73.5 29.1c.8 2 3.2 3 5.2 2.2 2-.8 3-3.2 2.2-5.2C74.4 10.2 59.1 0 42 0 18.8 0 0 18.8 0 42s18.8 42 42 42c17.1 0 32.4-10.2 38.9-26.1.8-2-.1-4.4-2.2-5.2-2-.8-4.4.1-5.2 2.2C68.2 67.7 55.9 76 42 76 23.3 76 8 60.7 8 42S23.3 8 42 8c13.9 0 26.2 8.3 31.5 21.1z" fill="#FF4343"/>
    </symbol>
    <symbol id="logout" viewBox="0 0 100 125" >
        <path d="M53.8 68.6c.8.7 1.7 1 2.6 1 1.1 0 2.2-.5 3-1.4L72 53.6c1.3-1.5 1.3-3.7 0-5.2L59.4 33.8c-1.4-1.7-4-1.9-5.6-.4-1.7 1.4-1.9 4-.4 5.6l6.9 8H35c-2.2 0-4 1.8-4 4s1.8 4 4 4h25.3l-6.9 8c-1.5 1.7-1.3 4.2.4 5.6z" fill="#FF4343" stroke="#FF4343"/>
        <path d="M82.9 38.1c.8 2 3.2 3 5.2 2.2 2-.8 3-3.2 2.2-5.2C83.8 19.2 68.5 9 51.4 9c-23.2 0-42 18.8-42 42s18.8 42 42 42c17.1 0 32.4-10.2 38.9-26.1.8-2-.1-4.4-2.2-5.2-2-.8-4.4.1-5.2 2.2C77.6 76.7 65.3 85 51.4 85c-18.7 0-34-15.3-34-34s15.3-34 34-34c13.9 0 26.2 8.3 31.5 21.1z" fill="#FF4343" stroke="#FF4343"/>
    </symbol>
    <symbol id="accept" fill="none" viewBox="0 0 22 22">
        <path d="M11.112.791C5.296.791.565 5.521.565 11.338c0 5.816 4.73 10.546 10.547 10.546s10.547-4.73 10.547-10.546C21.659 5.52 16.929.79 11.112.79zm0 1.406a9.13 9.13 0 0 1 9.14 9.14 9.13 9.13 0 0 1-9.14 9.141 9.13 9.13 0 0 1-9.14-9.14 9.13 9.13 0 0 1 9.14-9.14zm5.625 4.453a.703.703 0 1 0 0 1.407.703.703 0 0 0 0-1.407zm-1.611 1.626a.703.703 0 0 0-.484.22l-5.661 5.837-3.01-2.812a.707.707 0 1 0-.967 1.033l3.515 3.28a.703.703 0 0 0 .99-.028l6.144-6.329a.704.704 0 0 0-.527-1.2z" fill="#5EB55C"/>
    </symbol>
    <symbol id="wallet" fill="none" viewBox="0 0 19 17">
        <path d="M11.234.604c-.04-.143-.195-.208-.326-.169L2.842 2.972a.39.39 0 0 0-.104.052h9.25l-.754-2.42zM15.358 3.024L15.02 1.11a.254.254 0 0 0-.3-.208l-2.446.43.56 1.69h2.524z" fill="#fff"/>
        <path d="M17.885 7.818V4.326c0-.57-.466-1.031-1.044-1.031H2.14c-.577 0-1.043.46-1.043 1.03v10.8c0 .57.466 1.03 1.043 1.03h14.702c.578 0 1.044-.46 1.044-1.03V11.22c.231-.155.364-.443.364-.74V8.572c.012-.295-.117-.602-.364-.754zm-1.044 7.316H2.14a.04.04 0 0 1-.015-.002.017.017 0 0 1-.006-.004l-.002-.002v-10.8-.002h0l.002-.002a.018.018 0 0 1 .006-.004.041.041 0 0 1 .015-.003h14.702a.04.04 0 0 1 .016.003.018.018 0 0 1 .006.004.007.007 0 0 1 .001.002h0V7.718h-3.197a.672.672 0 0 0-.53.274.94.94 0 0 0-.189.575v1.912c0 .418.268.849.719.849h3.197V15.126h0l-.001.002-.003.002-.003.002a.04.04 0 0 1-.016.002zM14.77 9.53c0 .148-.122.27-.27.27a.272.272 0 0 1-.271-.27c0-.148.122-.27.27-.27.149 0 .27.122.27.27z" fill="#fff" stroke="#fff" stroke-width=".5"/>
    </symbol>
    <symbol id="receivable" fill="none" viewBox="0 0 23 22">
        <path d="M8.56 14.011h1.495c.518 0 .945.429.945.96 0 .531-.427.959-.945.959H7.357c-.39 0-.7.319-.7.706 0 .387.31.706.7.706H8.64v.688c0 .387.31.707.7.707.39 0 .701-.32.701-.706v-.69h.014c1.297 0 2.347-1.065 2.347-2.37 0-1.305-1.05-2.37-2.347-2.37H8.627a.953.953 0 0 1-.945-.96c0-.53.427-.958.945-.958h2.592c.39 0 .7-.319.7-.706a.704.704 0 0 0-.7-.706H10.04v-.689a.704.704 0 0 0-.7-.706c-.39 0-.701.319-.701.706v.689h-.013c-1.297 0-2.347 1.066-2.347 2.37 0 1.282 1.014 2.334 2.28 2.37zm0 0h-.003l.013-.25-.007.25H8.56zm7.77-2.606c-.39 0-.702.319-.702.706v6.154c0 .87-.7 1.573-1.553 1.573H3.705a1.566 1.566 0 0 1-1.553-1.573V7.325c0-.87.7-1.573 1.553-1.573h8.341c.39 0 .7-.32.7-.706a.704.704 0 0 0-.7-.706h-8.34C2.072 4.34.75 5.68.75 7.325v10.94c0 1.643 1.323 2.985 2.955 2.985h10.37c1.632 0 2.955-1.342 2.955-2.985V12.11a.703.703 0 0 0-.7-.706zM20.803 5.022L19.03 6.814V1.457a.704.704 0 0 0-.7-.706c-.39 0-.701.319-.701.706v5.356l-1.773-1.792s0 0 0 0a.696.696 0 0 0-.993 0 .71.71 0 0 0 0 .997h0l2.97 3.002s0 0 0 0a.71.71 0 0 0 .993 0l2.97-3.002a.71.71 0 0 0 0-.996.697.697 0 0 0-.993 0z" fill="#fff" stroke="#fff" stroke-width=".5"/>
    </symbol>
    <symbol id="payable" fill="none" viewBox="0 0 23 22">
        <path d="M8.685 14.011h1.495c.518 0 .945.429.945.96 0 .531-.427.959-.945.959H7.482c-.39 0-.7.319-.7.706 0 .387.31.706.7.706h1.283v.688c0 .387.31.707.7.707.39 0 .701-.32.701-.706v-.69h.014c1.297 0 2.347-1.065 2.347-2.37 0-1.305-1.05-2.37-2.347-2.37H8.752a.953.953 0 0 1-.945-.96c0-.53.427-.958.945-.958h2.592c.39 0 .7-.319.7-.706a.704.704 0 0 0-.7-.706h-1.178v-.689a.704.704 0 0 0-.7-.706c-.39 0-.701.319-.701.706v.689h-.013c-1.297 0-2.347 1.066-2.347 2.37 0 1.283 1.014 2.334 2.28 2.37zm0 0h-.003l.013-.25-.007.25h-.003zm7.77-2.606c-.39 0-.702.319-.702.706v6.154c0 .87-.7 1.573-1.553 1.573H3.83a1.566 1.566 0 0 1-1.553-1.573V7.325c0-.87.7-1.573 1.553-1.573h8.341c.39 0 .7-.32.7-.706a.704.704 0 0 0-.7-.706h-8.34C2.197 4.34.874 5.68.874 7.325v10.94c0 1.643 1.323 2.985 2.955 2.985H14.2c1.632 0 2.955-1.342 2.955-2.985V12.11a.704.704 0 0 0-.7-.706zM17.753 3.16v5.356c0 .387.312.706.701.706.39 0 .701-.319.701-.706V3.159l1.773 1.792s0 0 0 0a.696.696 0 0 0 .993 0 .71.71 0 0 0 0-.996h0L18.95.952a.71.71 0 0 0-.993 0l-2.97 3.003a.71.71 0 0 0 0 .996c.274.277.72.277.993 0l1.772-1.792z" fill="#fff" stroke="#fff" stroke-width=".5"/>
    </symbol>
    <symbol id="tradeFinance" fill="none" viewBox="0 0 15 18" >
        <path d="M7.5 17.466C1.36 15.095-.54 8.24 1.013 2.802L7.5.53l6.487 2.272C15.54 8.24 13.64 15.095 7.5 17.466z" stroke="#053C75"/>
        <path d="M7.224 13a.201.201 0 0 1-.149-.062.19.19 0 0 1-.061-.151v-.623a2.82 2.82 0 0 1-1.086-.31 1.921 1.921 0 0 1-.683-.605A1.566 1.566 0 0 1 5 10.476c0-.048.018-.09.053-.125a.191.191 0 0 1 .14-.062h.788c.07 0 .122.015.157.044.041.024.08.066.114.125.064.201.199.37.403.506.21.137.496.205.858.205.403 0 .707-.068.91-.205a.664.664 0 0 0 .316-.577.547.547 0 0 0-.158-.4c-.105-.107-.265-.199-.481-.276a9.573 9.573 0 0 0-.937-.293c-.689-.166-1.194-.385-1.515-.658-.321-.273-.482-.664-.482-1.173 0-.463.164-.854.49-1.174.333-.32.786-.515 1.358-.586v-.614a.19.19 0 0 1 .061-.15.201.201 0 0 1 .15-.063h.542c.064 0 .114.02.149.062a.19.19 0 0 1 .061.151v.631c.38.054.704.17.972.347.275.172.482.373.622.605.146.23.225.456.236.675a.182.182 0 0 1-.184.187h-.831c-.123 0-.208-.054-.254-.16-.035-.19-.152-.347-.35-.471-.193-.13-.436-.196-.727-.196-.321 0-.575.062-.762.187a.617.617 0 0 0-.272.542c0 .16.044.293.132.4.093.107.239.201.438.284.204.083.493.172.866.267.52.119.932.252 1.235.4.31.148.537.335.683.56.146.225.219.513.219.862 0 .516-.184.934-.552 1.254-.362.32-.852.512-1.47.577v.623a.19.19 0 0 1-.062.15.184.184 0 0 1-.149.063h-.543z" fill="#053C75"/>
    </symbol>
    <symbol id="refresh" fill="none" viewBox="0 0 13 15">
        <path d="M2.167 8.436c0-2.34 1.808-4.248 4.083-4.38V5.44a.478.478 0 0 0 .74.404l3.224-2.104-.137-.21.137.21a.48.48 0 0 0 .142-.144l-.21-.134.21.134a.483.483 0 0 0-.142-.664L6.99.828a.477.477 0 0 0-.74.404v1.396C3.188 2.76.75 5.313.75 8.436c0 3.208 2.572 5.814 5.75 5.814s5.75-2.606 5.75-5.814a.711.711 0 0 0-.708-.714.711.711 0 0 0-.709.714c0 2.425-1.942 4.387-4.333 4.387-2.39 0-4.333-1.962-4.333-4.387z" fill="#0862BE" stroke="#0862BE" stroke-width=".5"/>
    </symbol>
    <symbol id="contactDetails" fill="none" viewBox="0 0 15 15" >
        <path d="M12.733 2.133A7.496 7.496 0 0 0 .039 8.267 7.502 7.502 0 0 0 7.493 15h.09a7.44 7.44 0 0 0 4.891-1.894.478.478 0 0 0 .127-.112l.258-.24a7.5 7.5 0 0 0-.126-10.621zM7.569 14.04a6.492 6.492 0 0 1-4.067-1.355c.09-.203.478-.46 1.72-1.013.854-.38 1.213-.904 1.364-1.314.323.142.671.217 1.024.218h.03c.33-.003.655-.07.958-.196.165.4.54.878 1.373 1.237 1.125.48 1.558.719 1.707.908a6.49 6.49 0 0 1-4.109 1.515zM5.691 7.337c-.014-1.269.845-2.303 1.893-2.322h.019a1.763 1.763 0 0 1 1.325.632 2.52 2.52 0 0 1 .606 1.647c.014 1.269-.835 2.313-1.895 2.325-1.06.012-1.934-1.01-1.948-2.282zm6.68 4.518c-.359-.386-1.017-.697-2.029-1.12-.717-.305-.885-.719-.918-.887a3.426 3.426 0 0 0 1.064-2.566 3.48 3.48 0 0 0-.842-2.27 2.73 2.73 0 0 0-2.07-.957c-1.586.02-2.87 1.496-2.84 3.292a3.449 3.449 0 0 0 1.01 2.44v.02c0 .008 0 .582-.907.99-1.06.478-1.725.81-2.058 1.235A6.543 6.543 0 0 1 7.416.965h.077a6.537 6.537 0 0 1 5.959 3.866 6.546 6.546 0 0 1-1.08 7.023z" fill="#053C75"/>
    </symbol>
    <symbol id="kycproofs" fill="none" viewBox="0 0 16 16" >
        <path d="M14.933 3.995l-2.09-.838-.838-2.09-2.217.3L8 0 6.212 1.369l-2.217-.302-.838 2.09-2.09.838.305 2.217L0 8l1.37 1.788-.303 2.217 2.096.838.832 2.09 2.217-.305L8 16l1.788-1.369 2.217.302.838-2.094 2.09-.834-.3-2.217L16 8l-1.367-1.788.3-2.217zM14.658 8L13.51 9.493l.253 1.831-1.744.7-.696 1.743-1.83-.256L8 14.658 6.507 13.51l-1.831.256-.7-1.744-1.743-.699.256-1.83L1.342 8 2.49 6.507l-.256-1.831 1.744-.7.699-1.743 1.83.256L8 1.342 9.493 2.49l1.831-.253.7 1.744 1.743.7-.256 1.827L14.658 8z" fill="#053C75"/>
        <path d="M7.25 9.195l-1.967-1.61-.676.827 2.77 2.265 4.014-4.656-.809-.695L7.25 9.195z" fill="#053C75"/>
    </symbol>
    <symbol id="recentActivity" fill="none" viewBox="0 0 16 15">
        <path d="M8.209 13.996A6.998 6.998 0 1 1 8.209 0a6.998 6.998 0 0 1 0 13.996zm0-1.076a5.922 5.922 0 1 0 0-11.843 5.922 5.922 0 0 0 0 11.843zm-8.15-1.754a.538.538 0 0 1 .959-.491c.35.684.798 1.316 1.327 1.874a.538.538 0 1 1-.782.74 9.174 9.174 0 0 1-1.504-2.123zm3.118 3.478a.538.538 0 0 1 .593-.9c.133.088.268.172.406.252a.538.538 0 1 1-.539.932 9.114 9.114 0 0 1-.46-.284zm7.45-6.053a.538.538 0 1 1-.53.937L7.405 8.005a.538.538 0 0 1-.273-.468V3.23a.538.538 0 1 1 1.077 0v3.993l2.418 1.368z" fill="#053C75"/>
    </symbol>
    <symbol id="contract" fill="none" viewBox="0 0 21 19">
        <path d="M9.103 4.066H7.084v3.028H4.057v2.018h3.027v3.028h2.019V9.112h3.027V7.094H9.103V4.066z" fill="#0862BE"/>
        <path d="M17.198.03H3.028A3.011 3.011 0 0 0 .02 3.035v12.151a3.011 3.011 0 0 0 3.006 3.008H14.15l6.055-6.055V3.036A3.011 3.011 0 0 0 17.198.03zm-2.04 14.72v-.612a.99.99 0 0 1 .989-.99h.61l-1.599 1.601zm3.028-3.447a2.656 2.656 0 0 0-.988-.173h-1.052a3.011 3.011 0 0 0-3.006 3.007v1.05c0 .39.066.715.172.989H3.027a.99.99 0 0 1-.988-.988V3.036a.99.99 0 0 1 .988-.988h14.17a.99.99 0 0 1 .989.988v8.267z" fill="#0862BE"/>
    </symbol>
    <symbol id="tradeStatistics" fill="none" viewBox="0 0 16 11">
        <path fill-rule="evenodd" clip-rule="evenodd" d="M0 11h16V9.952H0V11zm1.6-5.653l1.495 1.4 2.972-2.815L9.055 6.81l4.45-4.199 1.428 1.383V0h-4.2l1.278 1.196-2.94 2.798-3.02-2.846-4.452 4.199z" fill="#053C75"/>
    </symbol>
    <symbol id="declaration" fill="none" viewBox="0 0 14 14">
        <path d="M7.002 13.998A6.998 6.998 0 1 1 10.324.84c.113.056.224.12.333.19a.528.528 0 1 1-.555.898c-.09-.053-.184-.11-.28-.158a5.943 5.943 0 1 0 2.547 2.678L7.245 9.57a.528.528 0 0 1-.75 0L4.382 7.46a.528.528 0 1 1 .75-.745L6.87 8.452l5.25-5.25a.528.528 0 0 1 .824.094 7.005 7.005 0 0 1-5.942 10.702z" fill="#053C75"/>
    </symbol>
    <symbol id="edit" fill="none" viewBox="0 0 13 14">
        <path d="M11.693.56c-.62-.62-1.62-.62-2.24 0l-8.15 8.135c-.032.032-.048.048-.064.08 0 0 0 .015-.016.015-.016.032-.031.048-.031.08v.016l-1.08 3.527c-.048.174 0 .35.11.476a.457.457 0 0 0 .334.143c.048 0 .095 0 .143-.016l3.511-1.08h.016c.032-.016.064-.016.08-.032 0 0 .015 0 .015-.016.032-.016.064-.031.08-.063l8.134-8.135c.62-.62.62-1.62 0-2.24l-.842-.89zM1.287 11.825l.588-1.89 1.318 1.318-1.906.572zm2.796-1.033L2.32 9.044 8.484 2.88l1.764 1.764-6.165 6.148zm7.785-7.8l-.953.952-1.748-1.747.953-.953a.633.633 0 0 1 .906 0l.858.858a.628.628 0 0 1-.016.89z" fill="#848A91"/>
    </symbol>
    <symbol id="org-details" fill="none" viewBox="0 0 17 17">
        <path d="M8.5 0C3.813 0 0 3.813 0 8.5 0 13.187 3.813 17 8.5 17c4.687 0 8.5-3.813 8.5-8.5C17 3.813 13.187 0 8.5 0zm0 16.015a7.473 7.473 0 0 1-4.589-1.57c.263-.657.712-1.294 1.054-1.469.553-.281 1.446-.48 2.515-.562l.562-.042-.497-.266c-1.476-.79-2.58-3.204-2.58-4.836a3.552 3.552 0 0 1 3.549-3.548 3.552 3.552 0 0 1 3.548 3.548c0 1.631-1.102 4.045-2.577 4.835l-.498.266.563.043c1.074.08 1.971.28 2.526.562.342.175.78.79 1.044 1.444a7.472 7.472 0 0 1-4.62 1.595zm3.725-3.331c-.506-.258-1.266-.45-2.172-.553 1.397-1.04 2.338-3.285 2.338-4.86a3.88 3.88 0 0 0-3.877-3.877A3.88 3.88 0 0 0 4.638 7.27c0 1.577.941 3.823 2.34 4.862-.902.103-1.658.295-2.162.552-.438.223-.895.9-1.17 1.546A7.5 7.5 0 0 1 .986 8.5C.985 4.356 4.355.985 8.5.985c4.143 0 7.515 3.371 7.515 7.515a7.5 7.5 0 0 1-2.63 5.704c-.272-.63-.716-1.294-1.16-1.52z" fill="#053C75"/>
    </symbol>
    <symbol id="marketNews" fill="none" viewBox="0 0 15 15">
        <path d="M12.236 1.896H4.31c-1.293 0-2.413 1.12-2.413 2.413v7.927c0 .603.258 1.12.603 1.551h-.086c-.862 0-1.551-.689-1.551-1.55V2.067c0-.603.517-1.12 1.12-1.206H13.96A1.961 1.961 0 0 0 12.322 0H2.069C.948 0 0 .948 0 2.068V12.323c0 1.292 1.034 2.412 2.327 2.412h9.823c1.293 0 2.413-1.12 2.413-2.412V4.394c.086-1.465-1.034-2.5-2.327-2.5zm1.551 10.34c0 .862-.689 1.551-1.55 1.551H4.308c-.862 0-1.552-.689-1.552-1.55V4.308c0-.862.69-1.552 1.552-1.552h7.927c.862 0 1.551.69 1.551 1.552v7.927z" fill="#053C75"/>
        <path d="M11.891 5.084H8.358V6.29h3.533V5.084zM11.891 7.67H8.358v1.206h3.533V7.67zM7.41 5.084H4.74v3.792h2.67V5.084zM11.892 10.254H4.739v1.206h7.153v-1.206z" fill="#053C75"/>
    </symbol>
    <symbol id="description" fill="none" viewBox="0 0 16 16">
        <path d="M2.667 16h10.666A2.668 2.668 0 0 0 16 13.333V2.667A2.668 2.668 0 0 0 13.333 0H2.667A2.668 2.668 0 0 0 0 2.667v10.666A2.668 2.668 0 0 0 2.667 16zM1.77 2.667c0-.491.405-.896.896-.896h10.666c.491 0 .896.405.896.896v10.666c0 .491-.405.896-.896.896H2.667a.901.901 0 0 1-.896-.896V2.667z" fill="#053C75"/>
        <path d="M12.459 7.104H3.563v1.77h8.896v-1.77zM12.459 3.563H3.563v1.77h8.896v-1.77zM8.896 10.666H3.562v1.77h5.334v-1.77z" fill="#053C75"/>
    </symbol>
    <symbol id="quantity" fill="none" viewBox="0 0 17 16">
        <path fill-rule="evenodd" clip-rule="evenodd" d="M.009 15.295l1.933-11.17a.605.605 0 0 1 .597-.502h11.224a.605.605 0 0 1 .597.502l1.933 11.17A.602.602 0 0 1 15.7 16H.602a.601.601 0 0 1-.593-.705z" fill="#053C75"/>
        <path d="M8.15 0a2.424 2.424 0 0 0-2.416 2.415c0 .21.037.41.088.604h1.27a1.22 1.22 0 0 1-.162-.604c0-.68.539-1.22 1.22-1.22.68 0 1.219.54 1.219 1.22 0 .222-.062.426-.163.604h1.271a2.37 2.37 0 0 0 .087-.604A2.424 2.424 0 0 0 8.15 0z" fill="#053C75"/>
    </symbol>
    <symbol id="contractPrice" fill="none" viewBox="0 0 16 20">
        <path d="M.438 13.612L4.95 5.137a1.766 1.766 0 0 1 1.391-.928l3.31-.316a5.427 5.427 0 0 1 .548-1.476c.443-.843 1.076-1.56 1.75-1.981.801-.485 1.603-.57 2.235-.232.654.337 1.012 1.054 1.054 1.981.021.802-.21 1.708-.653 2.573-.254.484-.57.927-.928 1.286l1.602 2.909c.274.527.295 1.138 0 1.665l-4.49 8.454c-.317.59-.928.928-1.56.928-.275 0-.549-.063-.823-.21l-7.23-3.838a1.735 1.735 0 0 1-.718-2.34zM13.931 2.228c-.021-.422-.148-.76-.358-.865-.211-.105-.549-.042-.907.19-.485.295-.949.843-1.286 1.476a4.57 4.57 0 0 0-.316.738l.147-.021a1.774 1.774 0 0 1 1.708.906l.063.127c.148-.19.295-.422.443-.675.337-.611.506-1.307.506-1.876zM1.788 14.814l7.23 3.837c.212.105.465.02.57-.169l4.512-8.475a.447.447 0 0 0 0-.4l-1.497-2.741c-.4.21-.801.316-1.18.316-.106 0-.212 0-.317-.021a.65.65 0 0 1-.527-.76c.063-.357.4-.61.759-.526.169.021.4-.021.632-.148l-.21-.4a.42.42 0 0 0-.38-.232h-.042l-4.87.443a.44.44 0 0 0-.337.231l-4.512 8.454a.445.445 0 0 0 .169.59z" fill="#053C75"/>
        <path d="M9.113 14.287c.692-.911.453-2.21-.498-2.804l-.53-.327a.807.807 0 0 1-.212-1.168c.255-.318.751-.385 1.095-.17l.608.38a.577.577 0 0 1 .239.665c-.034.068.008.141.058.185l.687.431c.079.052.18.018.232-.06.363-.722.14-1.615-.532-2.103l.431-.687c.052-.08.018-.181-.05-.215l-.687-.43c-.08-.053-.181-.018-.215.05l-.43.687a1.93 1.93 0 0 0-2.525.898c-.457.896-.07 1.987.774 2.522l.451.275c.394.26.5.783.212 1.168-.255.318-.751.386-1.095.17l-.608-.379a.577.577 0 0 1-.238-.666c.033-.068-.009-.141-.059-.185l-.687-.431c-.078-.052-.18-.018-.232.061-.363.72-.14 1.614.532 2.103l-.43.687c-.053.078-.018.18.05.214l.687.43c.078.053.18.018.214-.05l.45-.697c.804.339 1.765.149 2.308-.554z" fill="#053C75"/>
    </symbol>
    <symbol id="shipmentPeriod" fill="none" viewBox="0 0 19 17" >
        <path d="M16.15 1.889h-.95V.944c0-.25-.1-.49-.278-.667A.953.953 0 0 0 13.3.944v.945H5.7V.944c0-.25-.1-.49-.278-.667A.953.953 0 0 0 3.8.944v.945h-.95c-.756 0-1.48.298-2.015.83A2.825 2.825 0 0 0 0 4.722v9.445c0 .751.3 1.472.835 2.003.534.531 1.26.83 2.015.83h13.3c.756 0 1.48-.299 2.015-.83A2.825 2.825 0 0 0 19 14.167V4.722c0-.751-.3-1.472-.835-2.003a2.859 2.859 0 0 0-2.015-.83zM2.85 3.778h.95v.944c0 .25.1.49.278.668A.953.953 0 0 0 5.7 4.722v-.944h7.6v.944c0 .25.1.49.278.668a.953.953 0 0 0 1.622-.668v-.944h.95c.252 0 .494.1.672.276a.942.942 0 0 1 .278.668v1.89H1.9v-1.89c0-.25.1-.49.278-.668a.953.953 0 0 1 .672-.276zm13.3 11.333H2.85a.953.953 0 0 1-.672-.277.942.942 0 0 1-.278-.667V8.5h15.2v5.667c0 .25-.1.49-.278.668a.953.953 0 0 1-.672.276z" fill="#053C75"/>
    </symbol>
    <symbol id="port" fill="none" viewBox="0 0 15 19">
        <path d="M7.5 0C3.358 0 0 3.34 0 7.46c0 5.665 7.5 10.595 7.5 10.595S15 13.125 15 7.46C15 3.34 11.642 0 7.5 0zm0 13.257c-3.22 0-5.829-2.595-5.829-5.798 0-3.201 2.61-5.797 5.829-5.797 3.22 0 5.83 2.596 5.83 5.797 0 3.203-2.61 5.798-5.83 5.798z" fill="#053C75"/>
        <path d="M9.562 4.676a.347.347 0 0 0-.348-.346H5.738a.347.347 0 0 0-.347.346v2.346l1.993-.58.098-.03.098.03 1.982.578V4.676z" fill="#053C75"/>
        <path d="M6.086 11.245h1.22v-4.42L4 7.786l2.086 3.458zM7.652 11.245h1.22l2.086-3.458-3.306-.965v4.423z" fill="#053C75"/>
    </symbol>
    <symbol id="advancePayment" fill="none" viewBox="0 0 17 17">
        <path d="M14.52 11.85c-.449.16-1.184.358-1.99.537-.287.466-.807.86-1.632 1.022a3.619 3.619 0 0 1-.645.054c-.574.018-1.237-.036-1.99-.108-.054 0-.107 0-.161-.018-.18-.017-.34-.16-.359-.34a.367.367 0 0 1 .395-.395c.053 0 .125.018.179.018.968.09 1.864.162 2.438.054 1.058-.197 1.362-.842 1.29-1.38-.053-.448-.376-.86-.914-.825-.752.054-1.63 0-2.473-.071-.968-.072-1.972-.09-2.69-.018-.788.09-2.402.68-3.818 1.63-.699.467-1.47 1.04-1.936 1.381a.52.52 0 0 0-.107.735l2.061 2.671c.18.233.502.27.735.09l.753-.592a.66.66 0 0 1 .628-.107c1.38.448 2.868.735 3.836.789 2.133.143 6.202-2.367 7.368-3.173 1.165-.807.322-2.42-.968-1.954zM9.266 9.053a4.522 4.522 0 0 0 4.517-4.518C13.783 2.044 11.758 0 9.266 0 6.774 0 4.73 2.026 4.73 4.517a4.54 4.54 0 0 0 4.536 4.536zM8.87 2.277v-.574c0-.054.054-.108.108-.108h.556c.054 0 .107.054.107.108v.556a1.138 1.138 0 0 1 1.076 1.04c0 .071-.054.125-.108.125h-.555c-.054 0-.09-.036-.108-.09a.384.384 0 0 0-.376-.304h-.484c-.287 0-.556.215-.592.501a.56.56 0 0 0 .556.61h.412c.77 0 1.398.663 1.327 1.452-.054.61-.556 1.076-1.148 1.165v.574a.116.116 0 0 1-.107.107h-.556a.116.116 0 0 1-.108-.107v-.556a1.138 1.138 0 0 1-1.075-1.04c0-.071.054-.107.107-.107h.556c.054 0 .09.036.108.09.036.179.197.304.376.304h.484c.287 0 .556-.215.592-.502a.56.56 0 0 0-.556-.61h-.358c-.7 0-1.31-.501-1.38-1.2A1.318 1.318 0 0 1 8.87 2.277z" fill="#053C75"/>
    </symbol>
    <symbol id="creditTerms" fill="none" viewBox="0 0 17 16">
        <path d="M16.36 8.68a.902.902 0 0 0-.891-.262l-2.69.734v.192a1.689 1.689 0 0 1-1.363 1.502l-.174.035c-.978.175-1.991.262-2.97.262H7.47a.451.451 0 0 1-.454-.454c0-.245.192-.454.454-.454h.803a18.903 18.903 0 0 0 2.813-.245l.174-.035a.761.761 0 0 0 .63-.68.795.795 0 0 0-.176-.56.762.762 0 0 0-.524-.262l-4.244-.297a2.074 2.074 0 0 0-1.345.367l-3.65 2.445 3.58 2.9 3.563.472a2.362 2.362 0 0 0 1.764-.454l5.38-3.913a.796.796 0 0 0 .35-.612c.017-.262-.053-.506-.227-.68zM.08 13.1c-.122.157-.105.402.053.524l2.83 2.288c.07.07.174.087.279.087a.391.391 0 0 0 .262-.14l1.223-1.502-3.424-2.76L.08 13.1zM11.016 1.118h.908a.552.552 0 0 0 .56-.559.552.552 0 0 0-.56-.559h-.908a.552.552 0 0 0-.559.559c0 .314.262.559.559.559zM8.219 1.659a.6.6 0 0 0 .366-.14c.175-.14.367-.262.577-.332a.556.556 0 0 0 .367-.699.556.556 0 0 0-.7-.366 2.82 2.82 0 0 0-.977.541c-.227.21-.262.56-.053.786a.52.52 0 0 0 .42.21zM14.7 3.11v.908c0 .314.244.559.558.559a.552.552 0 0 0 .56-.559V3.11a.552.552 0 0 0-.56-.56.552.552 0 0 0-.559.56zM13.705 1.241c.21.087.384.21.541.384a.53.53 0 0 0 .402.175c.14 0 .28-.052.384-.157a.56.56 0 0 0 .035-.804 2.567 2.567 0 0 0-.926-.628.565.565 0 0 0-.733.296c-.122.297.017.63.297.734zM7.486 4.366a.552.552 0 0 0 .559-.559V2.9a.552.552 0 0 0-.56-.56.552.552 0 0 0-.558.56v.908c-.018.315.244.559.559.559zM15.258 5.467a.552.552 0 0 0-.559.559v.908c0 .314.245.559.56.559a.552.552 0 0 0 .558-.559v-.908c.018-.315-.244-.56-.559-.56zM7.486 7.284a.552.552 0 0 0 .559-.559v-.908a.552.552 0 0 0-.56-.56.552.552 0 0 0-.558.56v.908c-.018.314.244.559.559.559z" fill="#053C75"/>
    </symbol>
    <symbol id="document" fill="none" viewBox="0 0 13 17">
        <path d="M7.717 2.049v2.626h2.934L7.717 2.049zm4.064 3.901H6.498V1.275h-4.04c-.673 0-1.218.57-1.22 1.273l-.019 11.9c-.001.704.544 1.276 1.217 1.277h8.126c.673 0 1.219-.57 1.219-1.275v-8.5zM7.304 0L13 5.1v9.35c0 1.408-1.092 2.55-2.438 2.55H2.438c-1.35-.002-2.44-1.146-2.438-2.554l.02-11.9C.022 1.139 1.113 0 2.458 0h4.846z" fill="#053C75"/>
    </symbol>
    <symbol id="telegram" fill="none" viewBox="0 0 18 18">
        <path d="M.02 17.165l1.521-6.584c.06-.28.3-.5.6-.54l8.502-.88c.24-.02.24-.381 0-.421l-8.502-.82a.66.66 0 0 1-.6-.521L.021.835c-.14-.56.46-1.02.98-.76L17.625 8.4c.5.26.5.98 0 1.24L1 17.925c-.52.26-1.12-.2-.98-.76z" fill="#0862BE" fill-opacity=".42"/>
    </symbol>
    <symbol id="doc2" fill="none" viewBox="0 0 12 15">
        <path d="M11.134 5.49a.372.372 0 0 0-.098-.25L6.91.783a.317.317 0 0 0-.23-.107H2.556c-.48 0-.94.206-1.278.574-.34.368-.53.867-.53 1.387v10.305c0 .52.19 1.019.53 1.387.339.367.798.574 1.278.574h6.77c.48 0 .94-.207 1.279-.574.339-.368.53-.867.53-1.387V5.49zM7.042 1.924l2.942 3.191H8.357c-.349 0-.683-.15-.93-.418a1.49 1.49 0 0 1-.385-1.008V1.924zm3.435 11.018c0 .33-.122.648-.337.882a1.107 1.107 0 0 1-.814.366h-6.77c-.305 0-.598-.132-.814-.366a1.304 1.304 0 0 1-.337-.882V2.637c0-.331.122-.648.337-.883.216-.234.509-.365.814-.365h3.829v2.3c0 .567.208 1.111.577 1.513.37.4.872.626 1.395.626h2.12v7.114z" fill="#FE4350"/>
    </symbol>
    <symbol id="refresh2" fill="none" viewBox="0 0 16 15">
        <path d="M12.332 2.969c-1.112-.898-2.646-1.453-4.17-1.453a5.813 5.813 0 1 0 5.813 5.812.727.727 0 0 1 1.453 0A7.266 7.266 0 1 1 8.162.062c1.852 0 3.711.666 5.086 1.78V.789a.726.726 0 1 1 1.454 0v2.906a.726.726 0 0 1-.727.727h-2.906a.727.727 0 0 1 0-1.453h1.262z" fill="#272829"/>
    </symbol>
    <symbol id="amend" fill="none" viewBox="0 0 15 15">
        <path d="M9.343 2.516h-8.15V.556h8.15c2.795 0 5.064 2.281 5.064 5.078A5.065 5.065 0 0 1 9.343 10.7H4.547l.388.387 1.254 1.255-1.391 1.38L.796 9.717l4.002-4.002 1.391 1.38L4.935 8.35l-.388.388h4.796c1.703 0 3.119-1.381 3.119-3.104a3.121 3.121 0 0 0-3.119-3.118z" fill="#272829" stroke="#fff" stroke-width=".454"/>
    </symbol>
    <symbol id="seen" fill="none" viewBox="0 0 19 9">
        <path d="M18.847 4.075c-2.3-2.525-5.57-4-8.993-4.075H9.522C5.972 0 2.548 1.5.172 4.1a.58.58 0 0 0 0 .825c.384.4.767.8 1.201 1.15A.634.634 0 0 0 2.267 6a.599.599 0 0 0-.076-.875c-.23-.2-.46-.4-.69-.625a11.085 11.085 0 0 1 4.47-2.7c-.587.75-.92 1.7-.92 2.7 0 2.475 2.07 4.5 4.6 4.5 2.528 0 4.597-2.025 4.597-4.5 0-.95-.306-1.825-.817-2.55a11.23 11.23 0 0 1 4.062 2.55c-.18.175-.358.35-.537.5a.618.618 0 0 0-.05.875c.23.25.638.275.893.05.358-.325.716-.675 1.048-1.025a.631.631 0 0 0 0-.825z" fill="#0862BE"/>
    </symbol>
    <symbol id="plus"  viewBox="0 0 12 13">
        <path d="M6.53 5.176h4.761v1.66H6.52v5.237H4.846V6.836H0v-1.66h4.858V0h1.673v5.176z" />
    </symbol>
    <symbol id="warning" fill="none" viewBox="0 0 24 20">
        <path d="M11.54 0c-.7 0-1.339.349-1.699.954L.266 17.084c-.36.606-.352 1.349.008 1.954.36.606.997.964 1.699.962h19.134a1.951 1.951 0 0 0 1.7-.962c.36-.605.367-1.348.007-1.955L13.239.953A1.953 1.953 0 0 0 11.54 0zm0 1.538c.136 0 .318.101.377.2l9.567 16.13a.44.44 0 0 1 0 .385c-.06.1-.24.209-.377.209H1.973a.52.52 0 0 1-.377-.209.44.44 0 0 1 0-.384l9.568-16.13c.059-.1.24-.2.376-.2zm0 3.59c-.85 0-1.538.689-1.538 1.539l.256 5.128a1.282 1.282 0 0 0 2.564 0l.257-5.128c0-.85-.69-1.539-1.539-1.539zm0 8.718a1.538 1.538 0 1 0 0 3.077 1.538 1.538 0 0 0 0-3.077z" fill="#faa05a"/>
    </symbol>
    <symbol id="fail" fill="none" viewBox="0 0 21 21">
        <path d="M17.687 0H3.337A3.336 3.336 0 0 0 0 3.337v14.35C0 19.507 1.493 21 3.337 21h14.35A3.326 3.326 0 0 0 21 17.687V3.337C21 1.493 19.507 0 17.687 0zm.98 17.687a1.01 1.01 0 0 1-1.004 1.003H3.337a1.01 1.01 0 0 1-1.004-1.003V3.337a1.01 1.01 0 0 1 1.004-1.004h14.35a1.01 1.01 0 0 1 1.003 1.004v14.35h-.023zm-3.524-4.48c.467.443.514 1.166.07 1.656a1.132 1.132 0 0 1-.863.374c-.28 0-.56-.094-.793-.304l-2.987-2.776-2.777 2.986a1.133 1.133 0 0 1-.863.374c-.28 0-.56-.094-.793-.304a1.177 1.177 0 0 1-.07-1.656l2.776-3.01-2.986-2.754a1.177 1.177 0 0 1-.07-1.656 1.177 1.177 0 0 1 1.656-.07l3.01 2.776 2.777-3.01a1.177 1.177 0 0 1 1.657-.07c.466.444.513 1.167.07 1.657l-2.8 3.01 2.986 2.777z" fill="#f0506e"/>
    </symbol>
    <symbol id="failRounded" viewBox="0 0 78 78">
        <path d="M54.8 26.1c0-.8-.3-1.6-.9-2.2-.6-.6-1.4-.9-2.2-.9-.8 0-1.6.3-2.2.9L39.2 34.3l-9.9-9.9c-.6-.6-1.4-.9-2.2-.9-.8 0-1.6.3-2.2.9-.6.6-.9 1.4-.9 2.2 0 .8.3 1.6.9 2.2l9.9 9.9-9.9 9.9c-.6.6-.9 1.4-.9 2.2 0 .8.3 1.6.9 2.2 1.1 1.1 3.2 1.1 4.4 0l9.9-9.9 10.4 10.2c.6.6 1.4.9 2.2.9.8 0 1.6-.3 2.2-.9.6-.6.9-1.4.9-2.2 0-.8-.3-1.6-.9-2.2L43.6 38.6l10.3-10.3c.6-.6.9-1.4.9-2.2z"/>
        <path d="M39 0a39 39 0 1 0 0 78 39 39 0 0 0 0-78zm0 70.2a31.2 31.2 0 1 1 0-62.4 31.2 31.2 0 0 1 0 62.4z"/>
    </symbol>
    <symbol id="info" fill="none" viewBox="0 0 21 21">
        <path d="M10.398 7.615a1.444 1.444 0 1 0 0-2.888 1.444 1.444 0 0 0 0 2.888zM11.6 10.127v4.76a1.201 1.201 0 1 1-2.403 0v-4.76a1.202 1.202 0 1 1 2.403 0z" fill="#1e87f0"/>
        <path d="M10.399 0C4.655 0 0 4.656 0 10.399c0 5.742 4.656 10.398 10.399 10.398 5.742 0 10.398-4.656 10.398-10.399C20.797 4.657 16.14 0 10.398 0zm6.045 16.444A8.549 8.549 0 1 1 4.353 4.353a8.55 8.55 0 1 1 12.09 12.09z" fill="#1e87f0"/>
        <path d="M10.399 0C4.655 0 0 4.656 0 10.399c0 5.742 4.656 10.398 10.399 10.398 5.742 0 10.398-4.656 10.398-10.399C20.797 4.657 16.14 0 10.398 0zm6.045 16.444A8.549 8.549 0 1 1 4.353 4.353a8.55 8.55 0 1 1 12.09 12.09z" fill="#1e87f0"/>
    </symbol>
    <symbol id="success" viewBox="0 0 21 21">
        <path d="M10.5 0a10.5 10.5 0 1 0 0 21 10.5 10.5 0 0 0 0-21zm0 18.9a8.4 8.4 0 1 1 0-16.8 8.4 8.4 0 0 1 0 16.8z" />
        <path d="M12.905 7.654L9.45 11.12 8.096 9.755a1.054 1.054 0 1 0-1.491 1.49l2.1 2.1a1.05 1.05 0 0 0 1.49 0l4.2-4.2a1.054 1.054 0 0 0-1.49-1.49z" />
    </symbol>
    <symbol id="infoRounded" fill="none" viewBox="0 0 23 23">
        <path d="M10.7 6.947v5.75a.9.9 0 0 0 1.8 0v-5.75a.9.9 0 0 0-1.8 0zm.9 7.403a1.1 1.1 0 1 0 .001 2.201 1.1 1.1 0 0 0-.001-2.201zm0 8.15c6.01 0 10.9-4.89 10.9-10.9C22.5 5.59 17.61.7 11.6.7 5.59.7.7 5.59.7 11.6c0 6.01 4.89 10.9 10.9 10.9zm0-20c5.017 0 9.1 4.083 9.1 9.1 0 5.018-4.083 9.1-9.1 9.1-5.017 0-9.1-4.082-9.1-9.1 0-5.017 4.083-9.1 9.1-9.1z" fill="#fff" stroke="#fff" stroke-width=".6"/>
    </symbol>
    <symbol id="coal" fill="none" viewBox="0 0 27 18">
        <path d="M26.32 11.066l-3.929-.901a.478.478 0 0 0-.402.097l-3.152 2.68a.45.45 0 0 0-.14.498l.778 2.29a.481.481 0 0 0 .262.278l2.552 1.013c.057.02.117.031.177.032a.538.538 0 0 0 .188-.037l3.012-1.351a.454.454 0 0 0 .263-.338l.74-3.752a.46.46 0 0 0-.349-.51zM19.34 9.85l-.98-5.424a.462.462 0 0 0-.257-.338l-3.319-1.539a.536.536 0 0 0-.198-.042h-3.313L6.423.94a.466.466 0 0 0-.483.129L2.279 5.058a.402.402 0 0 0-.108.198L.95 10.14a.456.456 0 0 0 .156.45l5.312 4.755c.07.06.155.1.246.112l3.18.435 3.88 1.157h.129a.455.455 0 0 0 .37-.182l5.033-6.679c.07-.098.1-.218.086-.338zm-6.314 2.799a.456.456 0 0 1-.268-.086.467.467 0 0 1-.107-.649l1.608-2.251a.472.472 0 0 1 .627-.113.466.466 0 0 1 .108.649l-1.609 2.251a.467.467 0 0 1-.359.199zm4.005-2.45l-2.472 3.49a.456.456 0 0 1-.375.192.477.477 0 0 1-.268-.08.471.471 0 0 1-.113-.649l2.472-3.49a.472.472 0 0 1 .648-.112.466.466 0 0 1 .108.649z" fill="#373E46"/>
    </symbol>
    <symbol id="wheat" fill="none">
        <path fill-rule="evenodd" clip-rule="evenodd" d="M8.627.352c-1.584 1.336-2.47 3.67-.709 5.507v.204C7.048 5.21 5.69 4.871 4.48 4.956c-.323 2.139.641 4.591 3.438 4.624v.833C7.048 9.558 5.69 9.22 4.48 9.306c-.139.924.306 2.218.562 3.121.552.874 1.488 1.486 2.876 1.502v1.198c-.62-.61-1.49-.955-2.376-1.073a57.952 57.952 0 0 0 1.733 4.536c.202.032.417.051.643.054v.833a3.289 3.289 0 0 0-.408-.34c.653 1.505 1.352 2.989 2.011 4.491l.19-.018c1.148-1.53 2.406-3.016 3.459-4.608l-.002-.014c-1.311-.092-2.797.312-3.647 1.333v-1.197c2.957.089 3.977-2.43 3.647-4.622-1.311-.092-2.797.313-3.647 1.334v-1.291c2.957.09 3.977-2.43 3.647-4.622-1.311-.092-2.797.313-3.647 1.334V10.06c2.957.089 3.977-2.43 3.647-4.622-1.311-.092-2.797.313-3.647 1.333V5.91c1.875-1.924.725-4.326-.894-5.557zM3.66 2.368C.556.885-2.542 18.193 7.441 26.432c1.313 1.085 1.328 1.439 3.103 1.018 5.055-1.2 5.616-10.005 3.946-9.547-.863 1.918-3.557 4.94-5.045 7.096-1.8-4.552-7.4-14.236-5.785-22.63z" fill="#FCBD22"/>
    </symbol>
    <symbol id="eye">
        <path fill-rule="evenodd" clip-rule="evenodd" d="M17.826 6.774c.65.407 1.292.871 1.925 1.385.9.732 1.716 1.515 2.435 2.298.252.275.86 1 .903 1.056a.517.517 0 0 1 0 .613c-.043.056-.65.782-.903 1.056a23.061 23.061 0 0 1-2.435 2.298c-2.587 2.101-5.332 3.367-8.126 3.367-1.274 0-2.538-.264-3.782-.75L9.41 16.32c.656.416 1.411.653 2.216.653 2.508 0 4.543-2.307 4.543-5.153 0-.913-.21-1.77-.576-2.513l2.233-2.533zm-2.418-1.232c-1.244-.486-2.508-.75-3.782-.75-2.794 0-5.54 1.266-8.126 3.367-.9.732-1.716 1.515-2.435 2.298a36.88 36.88 0 0 0-.903 1.056.517.517 0 0 0 0 .613c.043.056.65.782.903 1.056A23.063 23.063 0 0 0 3.5 15.48c.633.514 1.275.978 1.925 1.386l2.233-2.534a5.677 5.677 0 0 1-.575-2.512c0-2.846 2.034-5.154 4.543-5.154.804 0 1.56.237 2.215.653l1.567-1.777zm-3.68 8.148c.83-.058 1.495-.812 1.546-1.753L11.73 13.69zm-.206-3.74c-.83.057-1.494.81-1.545 1.752l1.545-1.753zm9.31-9.237L1.01 23.2a.514.514 0 0 0 0 .663.38.38 0 0 0 .584 0L21.416 1.376a.514.514 0 0 0 0-.663.38.38 0 0 0-.584 0z"/>
    </symbol>
    <symbol id="rightArrow" fill="none">
        <path d="M9.46 5.46a.65.65 0 0 0 0-.92L5.323.404a.65.65 0 1 0-.92.919L8.082 5 4.404 8.677a.65.65 0 1 0 .919.92L9.46 5.46zM0 5.65h9v-1.3H0v1.3z" fill="#0862BE"/>
    </symbol>
    <symbol id="roundedRightArrow" fill="none">
        <path d="M23 12.5C23 18.89 18.037 24 12 24S1 18.89 1 12.5 5.963 1 12 1s11 5.11 11 11.5z" stroke="#0862BE" stroke-width="2"/>
        <path d="M16.46 12.46a.65.65 0 0 0 0-.92l-4.137-4.136a.65.65 0 1 0-.92.919L15.082 12l-3.677 3.677a.65.65 0 0 0 .919.92l4.137-4.137zM7 12.65h9v-1.3H7v1.3z" fill="#0862BE"/>
    </symbol>
    <symbol id="chat" fill="none" viewBox="0 0 18 18">
        <path d="M1.25 0C.958 0 .714.11.469.324A1.4 1.4 0 0 0 0 1.364v10.372c0 .455.224.826.469 1.04.245.214.49.324.781.324h8.805l4.601 4.76a.48.48 0 0 0 .585.072.581.581 0 0 0 .243-.584l-.867-4.248h2.133c.292 0 .536-.11.781-.324a1.4 1.4 0 0 0 .469-1.04V1.365a1.4 1.4 0 0 0-.469-1.04C17.286.11 17.041 0 16.75 0H1.25zm0 1.092h15.5c-.003 0 .001.008 0 .008.022.01.106.033.156.077.068.059.094.097.094.188v10.37c0 .092-.026.13-.094.188-.05.044-.134.075-.156.086H14c-.294.003-.544.342-.484.656l.648 3.182-3.57-3.693a.483.483 0 0 0-.344-.145H1.258c.002-.006-.105-.034-.164-.086-.068-.059-.094-.096-.094-.187V1.365c0-.091.026-.13.094-.188.05-.044.134-.067.156-.077-.001 0 .003-.008 0-.008zm1.703 3.275c-.262.013-.489.285-.477.571.013.286.262.534.524.52h6c.264.005.507-.257.507-.545 0-.289-.243-.55-.507-.546H2.953zm0 3.275c-.262.013-.489.285-.477.571.013.286.262.534.524.52h12c.264.005.507-.257.507-.545 0-.289-.243-.55-.507-.546H2.953z" fill="#053C75"/>
    </symbol>
    <symbol id="bankAccount" fill="none" viewBox="0 0 20 21">
        <path fill-rule="evenodd" clip-rule="evenodd" d="M6.661.5H20v17.422h-9.993v-.77h9.187V1.27H7.468v9.422l-.807-.415V.5zM8.403 3H18v1H8.403V3zm1.825 12.304h3.042V16h-3.028l-.014-.696zm4.31 0h2.312V16h-2.312v-.696zM11.432 13.4h1.838v.616h-1.838V13.4zm3.106 0h2.312v.616h-2.312V13.4zm-5.37-2.18h4.102V12H10l-.832-.405v-.375zm5.37 0H16.85V12H14.538v-.78zM8.403 9.182h9.857v.858H8.403v-.858zm0-1.616h2.434v.615H8.403v-.615zm0-2.205h3.088V6H8.403v-.639zm4.52 2.205h5.337v.615h-5.337v-.615zm0-2.205h5.337V6h-5.337v-.639zM2.509 14.973v4.433h1.227v-4.433h-.235v-.488h1.554v.488H4.82v4.433h1.37v-4.433h-.235v-.488H7.51v.488h-.235v4.433h1.227v-4.433h-.235v-.488H9.82v.488h-.235v4.433h.521V20.5H.905v-1.094h.521v-4.433H1.19v-.488h1.554v.488h-.235zm8.502-2.002v1.223H0V12.97l5.505-2.831 5.506 2.831zm-1.843 0l-3.663-1.883-3.662 1.883h7.325z" fill="#053C75"/>
    </symbol>
    <symbol id="organizationDetails">
        <path d="M13.889 12.336c-2.294 0-4.133 1.71-4.133 3.822S11.596 20 13.889 20C16.16 20 18 18.27 18 16.158s-1.84-3.822-4.111-3.822zm.947 1.778l.347.322-.345.32.14.39.418.13.345-.321.347.323-.56.52-.678-.21-1.596 1.483.227.631-.56.52-.348-.323.345-.32-.14-.39-.417-.128-.346.32-.347-.323.56-.52.679.21 1.596-1.484-.227-.63.56-.52z" fill="#053C75"/>
        <path fill-rule="evenodd" clip-rule="evenodd" d="M0 0v18.72h10.004c-.112-.147-.411-.561-.504-.72H1V1h13.23v10.5c.167.028.835.388.995.432V0H0z" fill="#053C75"/>
        <path fill-rule="evenodd" clip-rule="evenodd" d="M3 11v1h8v-1H3zM3 14v-1h7l-.5 1H3z" fill="#053C75"/>
        <path d="M6.135 6.695v1.426h2.96V6.695h-.49V7.5h-1.98v-.805h-.49z" fill="#053C75"/>
        <path d="M7.612 5.25c-.473 0-.862.361-.862.802 0 .44.389.801.862.801.474 0 .863-.36.863-.801 0-.44-.389-.802-.863-.802zm0 .456c.21 0 .373.151.373.346 0 .194-.164.346-.373.346s-.372-.152-.372-.346c0-.195.163-.346.372-.346z" fill="#053C75"/>
        <path d="M7.614 3.643C5.892 3.643 4.5 4.899 4.5 6.5c0 1.6 1.392 3.09 3.114 3.09 1.721 0 3.122-1.303 3.122-2.904 0-1.6-1.4-3.043-3.122-3.043zm0 .675C9.07 4.318 10 5.332 10 6.686c0 1.355-.93 2.278-2.386 2.278-1.457 0-2.381-1.1-2.381-2.455 0-1.354.924-2.19 2.38-2.19z" fill="#053C75"/>
        <path fill-rule="evenodd" clip-rule="evenodd" d="M3 15v1h5.823c.05-.341.108-.676.177-1H3z" fill="#053C75"/>
    </symbol>
    <symbol id="navigationDownArrow" fill="none" viewBox="0 0 18 34">
        <path stroke="#60778F" stroke-dasharray="3 3" d="M9 0v34"/>
        <circle cx="9" cy="16.5" r="9" transform="rotate(90 9 16.5)" fill="#0862BE"/>
        <path d="M8.417 20.96a.65.65 0 0 0 .92 0l4.136-4.137a.65.65 0 1 0-.92-.92l-3.676 3.678L5.2 15.904a.65.65 0 0 0-.92.919l4.137 4.137zm-.19-9.46v9h1.3v-9h-1.3z" fill="#fff"/>
    </symbol>
    <symbol id="tradeCounterParties" fill="none" viewBox="0 0 81 79">
        <path d="M40.204 0c3.993 0 7.609 1.619 10.226 4.236a14.418 14.418 0 0 1 4.236 10.226c0 3.994-1.62 7.61-4.236 10.226a14.417 14.417 0 0 1-10.226 4.236 14.417 14.417 0 0 1-10.226-4.236 14.417 14.417 0 0 1-4.236-10.226c0-3.993 1.618-7.609 4.235-10.226A14.417 14.417 0 0 1 40.204 0zM13.883 28.048l9.685 5.754a.913.913 0 0 1 .068 1.527c-.311.264-.615.531-.912.804a4.252 4.252 0 0 0 2.227 1.34c1.16.295 2.685.327 4.811.303 1.182-1.19 2.105-1.853 4.019-2.375 1.087-.296 2.474-.533 3.92-.706a51.597 51.597 0 0 1 4.81-.34c1.397-.03 2.573.016 3.621.113a27.4 27.4 0 0 1 2.854.418c.368.073.777.161 1.181.248 1.247.268 2.465.53 3.772.573.858.028 1.79-.034 2.633-.123.148-.015.294-.032.439-.05a25.49 25.49 0 0 0-.24-.205.913.913 0 0 1 .069-1.527l9.685-5.754v.002a.91.91 0 0 1 1.05.087c3.337 2.809 5.864 6.097 7.896 9.693 2.009 3.555 3.528 7.396 4.87 11.366a.913.913 0 0 1-.382 1.126l-9.685 5.755a.911.911 0 0 1-1.33-.497l-.115-.34a16.872 16.872 0 0 1-4.69 3.643c.73.88.982 1.937.87 2.96a4.477 4.477 0 0 1-.576 1.747 4.437 4.437 0 0 1-1.228 1.375 3.878 3.878 0 0 1-2.448.758 4.475 4.475 0 0 1-1.286 3.687 4.475 4.475 0 0 1-4.111 1.216 4.226 4.226 0 0 1-.606 2.082 4.187 4.187 0 0 1-1.638 1.556 4.154 4.154 0 0 1-1.943.476c-.368 0-.726-.049-1.068-.14a4.034 4.034 0 0 1-2.64 3.24 4.002 4.002 0 0 1-1.325.227c-1.048 0-3.02-.16-5.207-.633-1.316-.285-2.715-.683-4.047-1.228l-.866 1.08.002.001a4.41 4.41 0 0 1-2.966 1.628 4.408 4.408 0 0 1-3.25-.942l-.001-.001-.002.001a4.401 4.401 0 0 1-1.573-2.613 4.255 4.255 0 0 1-1.54.47c-1.112.123-2.293-.167-3.305-.817-.11-.07-.21-.142-.3-.214-.914-.72-1.367-1.745-1.447-2.805a4.796 4.796 0 0 1-.012-.325c-.29.091-.587.153-.887.186-1.164.129-2.38-.174-3.281-.854-.025-.018-.003-.003-.09-.073l-.002.002c-.98-.781-1.482-1.873-1.572-2.987-.06-.74.066-1.492.356-2.17a4.405 4.405 0 0 1-2.792-.968 4.41 4.41 0 0 1-1.63-2.966 4.409 4.409 0 0 1 .94-3.25l.298-.37c-.214-.514-.429-.945-.732-1.365a7.388 7.388 0 0 0-.907-1.015.912.912 0 0 1-1.193.237v.001L.448 50.322a.913.913 0 0 1-.383-1.126c1.342-3.97 2.861-7.811 4.87-11.366 2.033-3.596 4.56-6.884 7.896-9.693a.91.91 0 0 1 1.05-.087v-.002zm7.531 9.361c-2.074 2.145-3.768 4.524-5.206 7.068-1.681 2.975-3.016 6.187-4.198 9.52.773.67 1.298 1.232 1.703 1.792.204.283.374.559.524.841l1.184-1.478h-.002a4.406 4.406 0 0 1 2.964-1.626 4.407 4.407 0 0 1 3.248.94l.004.003.001-.001.006.004v-.002l.042.036c.73.601 1.217 1.393 1.45 2.247l.224-.282c1.484-1.862 3.26-2.345 4.78-1.98a4.187 4.187 0 0 1 1.669.831c.48.393.88.89 1.164 1.454.545 1.084.678 2.42.154 3.757a4.416 4.416 0 0 1 2.827.934c.043.03.083.064.12.1.848.848 1.381 1.927 1.503 3.034a4.205 4.205 0 0 1-.885 3.114l-.106.135c.9.042 1.797.358 2.554.964a4.411 4.411 0 0 1 1.63 2.966 4.412 4.412 0 0 1-.704 2.924 23.25 23.25 0 0 0 3.254.944c2.04.44 3.86.59 4.822.59.263 0 .506-.043.725-.119.43-.15.791-.436 1.047-.799a2.187 2.187 0 0 0 .384-1.527 35.553 35.553 0 0 1-5.815-2.1 43.267 43.267 0 0 1-6.242-3.556.913.913 0 0 1 1.029-1.508 41.412 41.412 0 0 0 5.978 3.407 33.483 33.483 0 0 0 6.024 2.122c.15.037.283.11.39.206a2.356 2.356 0 0 0 1.513.546c.409 0 .777-.095 1.093-.261a2.396 2.396 0 0 0 1.266-2.107c0-.254-.042-.511-.13-.762-4.559-1.488-9.616-3.998-15.17-7.53a.914.914 0 0 1 .979-1.543c5.58 3.548 10.625 6.033 15.135 7.456.125.039.235.103.328.184.224.173.475.31.743.404.27.095.566.146.88.146.734 0 1.4-.298 1.88-.78a2.651 2.651 0 0 0 .688-2.581 2.82 2.82 0 0 0-.128-.366c-1.293-.461-3.24-1.37-5.84-2.728-2.84-1.482-6.445-3.489-10.816-6.019a.912.912 0 1 1 .915-1.579c4.389 2.54 7.97 4.535 10.744 5.983 2.737 1.43 4.701 2.336 5.892 2.722a.882.882 0 0 1 .159.062c.901.453 1.734.316 2.342-.125a2.653 2.653 0 0 0 1.062-1.837c.083-.76-.211-1.564-1.047-2.117l-.003-.001-.005-.004-.002-.001-.002-.002h-.001l-.003-.002-.014-.01v-.001a.793.793 0 0 1-.037-.027l-.001-.001-.018-.015h-.001l-.003-.003-.002-.002-.002-.002-.002-.002-.094-.079a91.024 91.024 0 0 0-9.91-7.776c-3.697-2.545-8.069-5.087-12.454-7.629a8.569 8.569 0 0 0-1.33.323 6.236 6.236 0 0 0-1.775.968c-.695.526-1.51 1.318-2.35 2.135-.852.828-1.73 1.681-2.593 2.367-.924.734-1.836 1.28-2.724 1.58-.973.33-1.917.371-2.822.057h-.003a4.1 4.1 0 0 1-2.372-2.184c-.401-.897-.509-2-.115-3.236.668-2.1 2.827-4.559 4.525-6.385-1.424-.02-2.56-.108-3.535-.356-1.253-.318-2.213-.876-3.086-1.835zm.144-2.677l-8.044-4.78c-2.915 2.562-5.161 5.533-6.991 8.771-1.83 3.237-3.25 6.756-4.508 10.406l7.934 4.714a.91.91 0 0 1 .33-.418c1.213-3.428 2.592-6.743 4.343-9.841 1.832-3.243 4.067-6.236 6.936-8.852zm-3.407 28.243a.916.916 0 0 1 .126-.128l2.542-3.19a.902.902 0 0 1 .085-.122v-.002l.004.003c.44-.554.614-1.242.54-1.904a2.59 2.59 0 0 0-.916-1.712l-.047-.035.002-.002-.003-.003a2.592 2.592 0 0 0-1.9-.54 2.589 2.589 0 0 0-1.744.954l-.008.009v-.001l-2.065 2.578a.927.927 0 0 1-.093.117l-.584.729a2.595 2.595 0 0 0-.548 1.913c.073.664.396 1.3.952 1.744a2.595 2.595 0 0 0 1.913.548 2.593 2.593 0 0 0 1.744-.956zM30.8 69.702a.91.91 0 0 1 .123-.202c.098-.123.201-.238.31-.348l2.021-2.566a2.41 2.41 0 0 0 .507-1.785c-.076-.68-.413-1.357-.952-1.909a2.612 2.612 0 0 0-1.873-.519c-.6.066-1.175.336-1.603.8l-5.147 6.459a.915.915 0 0 1-.136.24 2.539 2.539 0 0 0-.14.196 2.96 2.96 0 0 0-.45 1.79c.044.58.28 1.132.753 1.505.054.042.107.08.159.113.66.425 1.417.617 2.117.54a2.336 2.336 0 0 0 1.608-.883l.63-.8a4.43 4.43 0 0 1 .39-.575.909.909 0 0 1 .217-.196l1.466-1.86zm-.56 3.662a2.619 2.619 0 0 0-.25 1.443c.074.663.399 1.298.956 1.745l-.001.001c.555.444 1.246.62 1.91.547a2.592 2.592 0 0 0 1.745-.955l.002.001 1.24-1.55a.898.898 0 0 1 .12-.147l.444-.556a2.595 2.595 0 0 0 .548-1.913 2.59 2.59 0 0 0-.952-1.745 2.592 2.592 0 0 0-1.913-.548c-.544.06-1.069.29-1.486.677l-2.363 3zM27.726 62.26a.99.99 0 0 1 .048-.067l.017-.021a.943.943 0 0 1 .056-.064l.003-.004.991-1.243c.914-1.148.953-2.363.5-3.264a2.645 2.645 0 0 0-.685-.86 2.365 2.365 0 0 0-.94-.474c-.882-.212-1.958.125-2.929 1.344l-6.612 8.297-.04.054a2.727 2.727 0 0 0-.519 1.842c.052.64.335 1.262.886 1.701l-.002.002.002.002c.04.032-.019-.017.056.039.53.4 1.265.575 1.981.496.65-.072 1.273-.358 1.69-.882l5.497-6.898zM58.73 37.14c-.497.076-1.171.174-1.972.258-.904.095-1.916.162-2.876.13-1.49-.048-2.777-.325-4.093-.608-.365-.078-.732-.158-1.153-.24a25.765 25.765 0 0 0-2.668-.397 29.67 29.67 0 0 0-3.421-.106c-1.396.03-3.05.145-4.63.333-1.388.165-2.687.384-3.658.649-1.924.524-2.648 1.295-4.2 2.948l-.066.07c-1.634 1.741-4.12 4.39-4.747 6.358-.244.766-.188 1.424.044 1.943a2.262 2.262 0 0 0 1.307 1.205v.002c.495.17 1.046.136 1.64-.065.679-.23 1.408-.673 2.174-1.281.803-.638 1.642-1.454 2.456-2.245.87-.846 1.715-1.667 2.522-2.279.834-.633 1.58-1.004 2.281-1.246.688-.236 1.317-.343 1.945-.45a.911.911 0 0 1 .607.111l.036.021c4.492 2.604 8.984 5.208 12.825 7.853a92.559 92.559 0 0 1 5.348 3.986 204.504 204.504 0 0 1 4.228 3.494 15.73 15.73 0 0 0 2.933-1.804 15.522 15.522 0 0 0 2.538-2.526c-1.115-3.068-2.375-6.024-3.93-8.777-1.499-2.65-3.276-5.122-5.47-7.337zm8.164-7.187l-8.045 4.78c2.87 2.615 5.104 5.608 6.937 8.851 1.836 3.25 3.264 6.74 4.521 10.349l8.085-4.804c-1.258-3.65-2.678-7.169-4.507-10.406-1.83-3.238-4.077-6.209-6.991-8.77zM40.573 19.93v1.536a.457.457 0 0 1-.915 0v-1.58a3.434 3.434 0 0 1-1.093-.414c-.661-.388-1.139-.955-1.356-1.424a1.788 1.788 0 0 1-.118-.335.457.457 0 0 1 .89-.207.86.86 0 0 0 .057.16c.152.329.499.733.988 1.02a2.431 2.431 0 0 0 1.815.277c.185-.044.377-.11.573-.2.513-.237.84-.601 1.007-1.009a2.03 2.03 0 0 0 .113-1.102 2.186 2.186 0 0 0-.454-1.017 1.708 1.708 0 0 0-1.122-.634v-.002l-1.599-.25-.017-.002a2.614 2.614 0 0 1-1.723-.966 3.098 3.098 0 0 1-.647-1.442 2.938 2.938 0 0 1 .17-1.599c.251-.61.727-1.148 1.469-1.491a3.933 3.933 0 0 1 1.047-.317v-1.27a.458.458 0 0 1 .915 0v1.264c.472.063.9.227 1.269.443.66.387 1.139.954 1.356 1.424.053.116.093.229.118.335a.457.457 0 0 1-.89.207.87.87 0 0 0-.057-.16c-.152-.329-.499-.734-.988-1.02a2.448 2.448 0 0 0-1.25-.344h-.024a2.492 2.492 0 0 0-.54.067 2.993 2.993 0 0 0-.574.2c-.514.237-.84.601-1.008 1.009a2.024 2.024 0 0 0-.112 1.102c.062.373.22.73.453 1.016.276.338.66.579 1.123.635a.487.487 0 0 1 .052.009l1.564.245a2.614 2.614 0 0 1 1.723.966 3.1 3.1 0 0 1 .646 1.442c.089.53.04 1.087-.17 1.598-.25.61-.727 1.149-1.468 1.492a3.92 3.92 0 0 1-.748.26 3.51 3.51 0 0 1-.475.078zm4.312-10.062a.456.456 0 0 1 .65-.64 7.712 7.712 0 0 1 .549.62.456.456 0 0 1-.715.565 6.532 6.532 0 0 0-.484-.545zm1.282 1.831a.455.455 0 0 1 .825-.386 7.463 7.463 0 0 1 .712 3.189 7.478 7.478 0 0 1-2.17 5.274.456.456 0 1 1-.647-.643 6.566 6.566 0 0 0 1.902-4.631 6.556 6.556 0 0 0-.623-2.803zM35.52 19.133a.456.456 0 1 1-.647.643 7.39 7.39 0 0 1-.267-.283l-.023-.027a7.262 7.262 0 0 1-.227-.27.456.456 0 0 1 .71-.572c.07.086.136.165.199.237l.024.025c.081.091.159.174.231.247zm-1.215-1.7a.457.457 0 0 1-.818.408 7.469 7.469 0 0 1-.784-3.34 7.478 7.478 0 0 1 2.17-5.274.456.456 0 1 1 .647.643 6.566 6.566 0 0 0-1.902 4.631 6.548 6.548 0 0 0 .687 2.932zm5.899-13.845a10.84 10.84 0 0 1 7.689 3.185 10.84 10.84 0 0 1 3.185 7.69 10.84 10.84 0 0 1-3.185 7.688 10.841 10.841 0 0 1-7.69 3.185 10.842 10.842 0 0 1-7.689-3.185 10.841 10.841 0 0 1-3.185-7.689 10.84 10.84 0 0 1 3.185-7.689 10.84 10.84 0 0 1 7.69-3.185zm7.042 3.832a9.929 9.929 0 0 0-7.042-2.917A9.929 9.929 0 0 0 33.16 7.42a9.929 9.929 0 0 0-2.917 7.042 9.93 9.93 0 0 0 2.917 7.043 9.93 9.93 0 0 0 7.043 2.917 9.93 9.93 0 0 0 7.042-2.917 9.929 9.929 0 0 0 2.917-7.043c0-2.75-1.114-5.24-2.917-7.042zm2.322-2.322a13.202 13.202 0 0 0-9.364-3.878 13.201 13.201 0 0 0-9.364 3.878 13.201 13.201 0 0 0-3.879 9.364c0 3.657 1.482 6.968 3.879 9.364a13.203 13.203 0 0 0 9.364 3.879c3.657 0 6.967-1.483 9.364-3.879a13.202 13.202 0 0 0 3.878-9.364c0-3.657-1.482-6.968-3.878-9.364z" fill="#053C75"/>
    </symbol>
    <symbol id="traderSubscription" fill="none" viewBox="0 0 81 79">
        <svg xmlns="http://www.w3.org/2000/svg">
            <path d="M56 51H0V0h56v51zM2 49h52V2H2v47z" fill="#000"/>
            <path d="M52 47H4V20h48v27zM6 45h44V22H6v23zM10.5 17c-3 0-5.5-2.5-5.5-5.5S7.5 6 10.5 6 16 8.5 16 11.5 13.5 17 10.5 17zm0-9C8.6 8 7 9.6 7 11.5S8.6 15 10.5 15s3.5-1.6 3.5-3.5S12.4 8 10.5 8zM48 6H20v4h28V6zM43 12H20v4h23v-4z" fill="#053C75"/>
        </svg>
    </symbol>
    <symbol id="outBoundTransaction" fill="none" viewBox="0 0 57 61">
        <path d="M23.335 60.968H1.176A1.175 1.175 0 0 1 0 59.792V1.176C0 .557.495 0 1.176 0h37.138c.31 0 .62.124.805.31l10.708 10.522c.248.247.371.495.371.866v10.709a1.175 1.175 0 1 1-2.352 0V12.194L37.82 2.352H2.352v56.202h20.921c.62 0 1.176.496 1.176 1.176 0 .681-.495 1.238-1.114 1.238z" fill="#053C75"/>
        <path d="M9.284 20.116h24.821c.743 0 1.362-.619 1.362-1.362 0-.742-.62-1.3-1.362-1.3H9.285c-.743 0-1.362.62-1.362 1.362 0 .743.619 1.3 1.361 1.3zM9.408 12.627H34.23c.743 0 1.362-.62 1.362-1.362 0-.743-.62-1.362-1.362-1.362H9.409c-.743 0-1.362.62-1.362 1.362.062.805.619 1.362 1.361 1.362zM9.408 27.791h14.484c.743 0 1.362-.619 1.362-1.361 0-.743-.619-1.362-1.362-1.362H9.408c-.742 0-1.361.619-1.361 1.362 0 .742.619 1.361 1.361 1.361zM18.445 35.715H9.346a1.374 1.374 0 0 1-1.361-1.362c0-.743.619-1.362 1.361-1.362h9.037c.743 0 1.362.62 1.362 1.362 0 .743-.557 1.362-1.3 1.362zM41.409 39.923c0 .434.371.743.805.743a.82.82 0 0 0 .804-.804c0-1.177-.804-3.405-3.652-3.714v-.867a.82.82 0 0 0-.804-.804.82.82 0 0 0-.805.804v.867c-1.052.124-1.919.495-2.6 1.176-.99.99-1.052 2.29-1.052 2.538 0 .31-.062 1.67.929 2.723.619.68 1.547 1.114 2.723 1.238v4.642c-1.919-.371-2.042-1.857-2.042-2.166 0-.433-.372-.805-.805-.743a.82.82 0 0 0-.805.805c0 1.176.805 3.404 3.652 3.714v.866a.82.82 0 0 0 .805.805.82.82 0 0 0 .804-.805v-.866c1.053-.124 1.92-.496 2.6-1.177.99-.99 1.052-2.29 1.052-2.537 0-.31.062-1.671-.928-2.724-.62-.68-1.548-1.114-2.724-1.238v-4.642c1.857.31 2.043 1.795 2.043 2.166zm-3.652 2.353c-.68-.124-1.176-.31-1.547-.743-.62-.681-.495-1.548-.495-1.548v-.123s0-.867.618-1.486c.372-.371.805-.557 1.424-.68v4.58zm3.157 2.352c.619.68.495 1.547.495 1.547v.124s0 .866-.619 1.485c-.371.372-.805.558-1.424.681v-4.58c.681.186 1.176.371 1.548.743z" fill="#053C75"/>
        <path d="M38.933 25.254c-9.841 0-17.826 7.985-17.826 17.827 0 9.841 7.985 17.826 17.826 17.826 9.842 0 17.826-7.985 17.826-17.826 0-9.842-7.984-17.827-17.826-17.827zM55.15 42.276h-1.919a14.433 14.433 0 0 0-3.652-8.79l1.3-1.3c2.538 2.662 4.085 6.252 4.271 10.09zm-6.685-9.904c-2.414-2.228-5.632-3.59-9.099-3.713v-1.733a16.461 16.461 0 0 1 10.461 4.147l-1.362 1.3zM37.757 28.66c-3.466.247-6.561 1.67-8.913 3.9l-1.114-1.115a16.513 16.513 0 0 1 10.089-4.518v1.733h-.062zM27.73 33.734a14.546 14.546 0 0 0-3.405 8.542h-1.547c.186-3.714 1.61-7.056 3.838-9.718l1.114 1.176zm-3.405 10.151c.186 3.405 1.548 6.5 3.714 8.913l-1.114 1.176c-2.414-2.723-3.961-6.19-4.147-10.027h1.547v-.062zm4.828 10.09c2.353 2.042 5.324 3.404 8.604 3.59v1.733a15.833 15.833 0 0 1-9.718-4.21l1.114-1.114zm10.213 3.59c3.343-.124 6.376-1.424 8.79-3.405l1.3 1.3a15.784 15.784 0 0 1-10.09 3.838v-1.733zm-.619-1.734c-6.994 0-12.688-5.694-12.688-12.75 0-6.995 5.694-12.69 12.688-12.69 6.995 0 12.69 5.695 12.69 12.69.061 7.056-5.633 12.75-12.69 12.75zm11.885-1.485l-1.3-1.3c2.29-2.414 3.714-5.633 3.961-9.16h1.857c-.186 4.084-1.857 7.736-4.518 10.46z" fill="#053C75"/>
    </symbol>
    <symbol id="fundWithdral" fill="none" viewBox="0 0 90 62">
        <path d="M88.094 1a.983.983 0 0 0-.094.032H2a.992.992 0 0 0-.707.298c-.188.19-.293.449-.293.719v30.474c0 .27.105.528.293.719.187.19.442.297.707.298h12a.993.993 0 0 0 .704-.3 1.026 1.026 0 0 0 0-1.435.992.992 0 0 0-.704-.3H3V3.066h84v28.44H76a.986.986 0 0 0-.71.297 1.019 1.019 0 0 0-.295.72 1.031 1.031 0 0 0 .294.722 1 1 0 0 0 .711.296h12c.265 0 .52-.108.707-.298.188-.191.293-.45.293-.72V2.05a1.027 1.027 0 0 0-.224-.66.997.997 0 0 0-.588-.357.99.99 0 0 0-.094-.032v0zm-75.25 12.234a.997.997 0 0 0-.594.385 1.023 1.023 0 0 0 .104 1.332.992.992 0 0 0 .646.285h63.906a.988.988 0 0 0 .822-.157 1.012 1.012 0 0 0 .42-.733 1.031 1.031 0 0 0-.276-.801 1.002 1.002 0 0 0-.778-.31.996.996 0 0 0-.188 0H13a.993.993 0 0 0-.156 0zm5 7.086a.996.996 0 0 0-.608.35 1.027 1.027 0 0 0-.236.667v30.506c0 .27.105.528.293.72.187.19.442.297.707.297h54c.265 0 .52-.107.707-.298.188-.19.293-.45.293-.719V21.337a1.027 1.027 0 0 0-.224-.659.998.998 0 0 0-.588-.358.995.995 0 0 0-.188 0H18a.993.993 0 0 0-.156 0v0zM19 22.354h12c0 7.85 6.28 14.236 14 14.236s14-6.386 14-14.236h12v18.304a.978.978 0 0 0-.094 0C65.444 40.658 61 45.2 61 50.795a.8.8 0 0 0 0 .03H29a.8.8 0 0 0 0-.03c0-5.595-4.444-10.137-9.906-10.137a.978.978 0 0 0-.094 0V22.354v0zm14 0h24c0 6.751-5.36 12.203-12 12.203s-12-5.452-12-12.203zM19 42.691a.978.978 0 0 0 .094 0c4.39 0 7.937 3.606 7.937 8.104a.8.8 0 0 0 0 .03H19v-8.134 0zm51.906 0a.978.978 0 0 0 .094 0v8.135h-8.031v-.032c0-4.497 3.546-8.103 7.937-8.103v0zM17.812 54.894a.991.991 0 0 0-.687.362 1.026 1.026 0 0 0-.23.751 1.034 1.034 0 0 0 .364.695 1 1 0 0 0 .741.225h54a.984.984 0 0 0 .719-.29 1.02 1.02 0 0 0 .3-.726 1.031 1.031 0 0 0-.3-.726 1 1 0 0 0-.719-.291H18a.979.979 0 0 0-.188 0v0zm0 4.067a.992.992 0 0 0-.683.364 1.027 1.027 0 0 0-.228.749 1.035 1.035 0 0 0 .361.693 1 1 0 0 0 .738.228h54a.984.984 0 0 0 .717-.292 1.017 1.017 0 0 0 .298-.725 1.032 1.032 0 0 0-.298-.724.998.998 0 0 0-.717-.293H18a.995.995 0 0 0-.188 0v0z" fill="#053C75" stroke="#000" stroke-width=".5"/>
    </symbol>
    <symbol id="fundReceived" fill="none" viewBox="0 0 74 67">
        <path d="M57.94 23.945l4.675-.203c.814-.203 1.627-1.017 1.627-2.033v-5.692H13.824c-1.016 0-1.83-.813-1.83-1.627 0-1.016.814-1.83 1.83-1.83h9.352l6.505-3.049H10.978a2.256 2.256 0 0 0-2.236 2.236v43.1a2.256 2.256 0 0 0 2.236 2.236h51.028a2.256 2.256 0 0 0 2.236-2.237v-9.961a2.256 2.256 0 0 0-2.237-2.236h-6.912c-3.049 0-5.489-2.44-5.489-5.693v-7.522c0-5.082 4.27-5.489 8.336-5.489zM31.104 12.561h22.363l-4.27-8.539-18.093 8.539zm26.226 0h6.912v-.814a2.256 2.256 0 0 0-2.237-2.236h-6.302l1.627 3.05zm-3.253-6.506h7.928c3.05 0 5.49 2.643 5.49 5.692v9.962c0 .813 0 1.423-.407 2.236h1.22c3.05 0 5.692 2.44 5.692 5.49v7.521c0 3.05-2.643 5.692-5.692 5.692h-1.22c.407.61.407 1.424.407 2.237v9.961c0 3.05-2.44 5.49-5.49 5.49H10.978c-3.05 0-5.692-2.44-5.692-5.49V11.747c0-3.049 2.643-5.692 5.692-5.692h25.819L49.4.16c.813-.407 1.83 0 2.236.813l2.44 5.082zm14.23 21.346H55.094c-1.22 0-2.033.814-2.033 2.033v7.522c0 1.22.814 2.236 2.033 2.236h13.215a2.256 2.256 0 0 0 2.236-2.236v-7.522c0-1.22-1.016-2.033-2.236-2.033z" fill="#053C75"/>
        <path d="M59.16 35.94a2.643 2.643 0 1 0 0-5.286 2.643 2.643 0 0 0 0 5.286z" fill="#000"/>
        <circle cx="12.604" cy="54.28" r="11.486" fill="#E5E5E5" stroke="#000" stroke-width="2.236"/>
        <path d="M11.121 56.92l5.912-5.912.18.18-6.537 6.537-2.75-2.75.18-.18 2.124 2.125.446.446.445-.446z" fill="#fff" stroke="#000" stroke-width="1.26"/>
    </symbol>
    <symbol id="tradeRoom" fill="none" viewBox="0 0 60 55">
        <path d="M53 33h-2v2h2v-2zM53 41h-2v2h2v-2z" fill="#053C75"/>
        <path d="M59 0H32a1 1 0 0 0-1 1v18a1 1 0 0 0 1 1h9.674l-1.429 5H26.508l.484-3.876c.005-.041.008-.083.008-.124 0-.342-.035-.677-.101-1H28a1 1 0 0 0 1-1V1a1 1 0 0 0-1-1H1a1 1 0 0 0-1 1v18a1 1 0 0 0 1 1h6.101A4.995 4.995 0 0 0 7 21c0 .041.003.083.008.124L7.492 25H1a1 1 0 0 0-1 1v4a1 1 0 0 0 1 1h1v24h2V31h4.242l.652 5.217A3 3 0 0 0 7 39c0 1.654 1.346 3 3 3h6v2.382l-.553-.276A.99.99 0 0 0 15 44h-2v2h1.764l1.236.618V50h-4a1 1 0 0 0-1 1v2h-1v2h4v-2h-1v-1h8v1h-1v2h4v-2h-1v-2a1 1 0 0 0-1-1h-4v-8h6c1.654 0 3-1.346 3-3a3 3 0 0 0-1.894-2.783L25.758 31H30v23a1 1 0 0 0 1 1h26a1 1 0 0 0 1-1V31h1a1 1 0 0 0 1-1v-4a1 1 0 0 0-1-1h-8.245l-1.429-5H59a1 1 0 0 0 1-1V1a1 1 0 0 0-1-1zM10.883 36L9.001 20.942A3.002 3.002 0 0 1 12 18h10a3.002 3.002 0 0 1 2.999 2.942L23.117 36H10.883zM2 18V2h25v16h-1.026c-.914-1.207-2.348-2-3.974-2H12c-1.627 0-3.061.793-3.974 2H2zm0 11v-2h5.742l.25 2H2zm22 11H10a1 1 0 0 1 0-2h14a1 1 0 0 1 0 2zm8 13V39h24v14H32zm24-16H32v-6h24v6zm2-8H26.008l.25-2H58v2zm-9.326-4h-6.348l1.429-5h3.491l1.428 5zM58 18H33V2h25v16z" fill="#053C75"/>
        <path d="M43.048 9.194l4.438 2.663a.994.994 0 0 0 1.165-.099l7-6-1.301-1.517-6.453 5.53-4.382-2.629a.999.999 0 0 0-1.096.044l-7 5 1.162 1.627 6.467-4.619zM8 7H6v7h2V7zM12 4h-2v6h2V4zM16 7h-2v7h2V7zM20 10h-2v3h2v-3zM24 6h-2v5h2V6z" fill="#053C75"/>
    </symbol>
    <symbol id="traders" fill="none" viewBox="0 0 90 99">
        <path d="M21.394 89c0-.1-.6-7.6-10.1-7.6-9.6 0-10.1 7.6-10.1 7.6v2.2c0 .6.5 1.1 1.1 1.1h18c.6 0 1.1-.5 1.1-1.1V89zM11.094 79.6c2.8 0 5-2.5 5-5.5s-2.3-5.5-5-5.5c-2.8 0-5 2.5-5 5.5s2.2 5.5 5 5.5zM88.294 89c0-.1-.6-7.6-10.1-7.6-9.6 0-10.1 7.6-10.1 7.6v2.2c0 .6.5 1.1 1.1 1.1h18c.6 0 1.1-.5 1.1-1.1V89zM77.894 79.6c2.8 0 5-2.5 5-5.5s-2.3-5.5-5-5.5c-2.8 0-5 2.5-5 5.5s2.2 5.5 5 5.5zM54.394 20.4c0-.1-.6-7.6-10.1-7.6-9.6 0-10.1 7.6-10.1 7.6v2.2c0 .6.5 1.1 1.1 1.1h18c.6 0 1.1-.5 1.1-1.1v-2.2zM43.994 11c2.8 0 5-2.5 5-5.5s-2.3-5.5-5-5.5c-2.8 0-5 2.5-5 5.5s2.3 5.5 5 5.5zM28.894 13.9c-.2-.5-.7-.8-1.2-.8-.2 0-.4 0-.5.1-37.1 16.3-25.5 54-25.4 54.3.2.7 1 1.1 1.6.8.3-.1.6-.3.8-.6.2-.3.2-.7.1-1 0-.1-2.9-9-1.3-19.8 2-14.4 10.5-24.9 25.2-31.3.7-.2 1-1 .7-1.7zM62.794 13.3c-.2-.1-.3-.2-.5-.2s-.3 0-.5.1c-.3.1-.6.4-.7.7-.1.3-.1.7 0 1 .1.3.4.6.7.7 34.9 15.3 24.4 49.6 23.9 51.1-.2.7.2 1.4.8 1.6.7.2 1.4-.2 1.6-.8.2-.3 11.9-38-25.3-54.2zM61.894 92.1c-18.2 7.7-33.1.1-33.3 0-.2-.1-.4-.1-.6-.1-.1 0-.3 0-.4.1-.3.1-.6.3-.8.6-.2.3-.2.7-.1 1 .1.3.3.6.6.8.3.2 7.3 3.7 17.6 3.7 6.1 0 12.1-1.2 17.9-3.7.7-.3 1-1 .7-1.7-.1-.7-.9-1-1.6-.7zM52.894 36h-2.6v2.7h-3.4v10.1h3.4v6.5h2.6v-6.5h3.4v-10h-3.4V36zm1.8 4.3v6.9H48.494v-6.9h6.2zM65.094 44.2v-3.5h-2.4v3.5h-3.6v24h3.6v4.4h2.4v-4.4h3.3v-24h-3.3zm1.8 22.5H60.694v-21h6.2v21zM28.494 54.3h-2.6v4.6h-3.4v12.5h3.4v2.4h2.6v-2.4h3.4V58.9h-3.4v-4.6zm1.8 6.1v9.4H24.094v-9.4h6.2zM40.694 32.5h-2.6v8h-3.4v26.6h3.4v4.1h2.6v-4.1h3.4V40.6h-3.4v-8.1zm1.8 9.6v23.4H36.294V42.1h6.2z" fill="#053C75"/>
    </symbol>
    <symbol id="subscriptionDetails" fill="none" viewBox="0 0 67 58">
        <path d="M33 51H0V0h56v35h-6V22H6v23h27v6zM2 49h29v-2H4V20h48v13h2V2H2v47z" fill="#053C75"/>
        <path d="M10.5 17c-3 0-5.5-2.5-5.5-5.5S7.5 6 10.5 6 16 8.5 16 11.5 13.5 17 10.5 17zm0-9C8.6 8 7 9.6 7 11.5S8.6 15 10.5 15s3.5-1.6 3.5-3.5S12.4 8 10.5 8zM48 6H20v4h28V6zM43 12H20v4h23v-4zM66.894 39.933l-2.828-2.828-18.031 18.03 2.828 2.83 18.031-18.032z" fill="#053C75"/>
        <path d="M51.413 55.049L40.665 44.3l-2.828 2.828 10.748 10.748 2.828-2.828z" fill="#053C75"/>
    </symbol>
    <symbol id="show" fill="none" viewBox="0 0 71 36">
        <path d="M69.825 17.15l-4.4-4.4c-16.8-17-44-17-60.8 0l-4.4 4.4c-.3.3-.3.9 0 1.2l4.8 4.9c16.5 16.8 43.3 16.8 59.8 0l4.8-4.9c.5-.3.5-.8.2-1.2zm-34.7 13.9c-7.2 0-13-5.9-13-13.2 0-7.3 5.8-13.2 13-13.2s13 5.9 13 13.2c0 7.3-5.9 13.2-13 13.2z" fill="#053C75"/>
        <path d="M35.125 25.55c4.253 0 7.7-3.492 7.7-7.8s-3.447-7.8-7.7-7.8-7.7 3.492-7.7 7.8 3.447 7.8 7.7 7.8z" fill="#053C75"/>
    </symbol>
    <symbol id="salesQuoteList" fill="none" viewBox="0 0 62 80">
        <path d="M61 4H32.602c-.347-.6-.744-1.167-1.235-1.657A7.95 7.95 0 0 0 25.71 0a7.918 7.918 0 0 0-5.658 2.343A6.923 6.923 0 0 0 18.82 4H14.6c-.346-.6-.743-1.167-1.234-1.657A7.95 7.95 0 0 0 7.71 0a7.913 7.913 0 0 0-5.654 2.34A6.92 6.92 0 0 0 0 7.29c0 1.873.729 3.633 2.054 4.958l2.45 2.442-1.315 6.553a1 1 0 0 0 1.69.903L6 21.024V79a1 1 0 0 0 1 1h54a1 1 0 0 0 1-1V5a1 1 0 0 0-1-1zM20.39 5.367a4.75 4.75 0 0 1 1.08-1.613A5.931 5.931 0 0 1 25.71 2c1.603 0 3.11.624 4.243 1.757a5.945 5.945 0 0 1 1.174 1.673c.273.571.447 1.17.528 1.776a6.006 6.006 0 0 1-1.702 5.037l-6.151 6.146.768-3.832a1 1 0 0 0-.274-.906l-2.83-2.818A4.98 4.98 0 0 1 20 7.29c0-.666.128-1.305.39-1.923zM6.293 17.893l-.004.007-.487.485.768-3.828a1 1 0 0 0-.274-.906l-2.83-2.818A4.98 4.98 0 0 1 2 7.29c0-1.34.52-2.594 1.47-3.536A5.93 5.93 0 0 1 7.71 2c1.603 0 3.11.624 4.243 1.757a5.945 5.945 0 0 1 1.174 1.673c.273.571.447 1.17.528 1.776a6.006 6.006 0 0 1-1.702 5.037l-5.66 5.65zM60 78H8V19.024l5.366-5.366h.001c.278-.28.527-.578.758-.887.075-.102.137-.209.207-.313.145-.216.284-.434.406-.66.069-.128.129-.258.19-.388a8.029 8.029 0 0 0 .418-1.074c.07-.23.126-.464.175-.7.029-.135.06-.27.082-.406.042-.27.064-.543.078-.817.006-.103.02-.205.022-.308a7.994 7.994 0 0 0-.063-1.124c-.012-.093-.037-.184-.053-.276-.038-.236-.073-.472-.133-.705h2.665c-.024.127-.037.256-.054.385-.01.077-.025.154-.032.232a6.968 6.968 0 0 0 2.02 5.632l2.45 2.44-1.314 6.554a1 1 0 0 0 .51 1.079.993.993 0 0 0 .275.094c.029.006.057.007.086.01.036.005.073.014.11.014.02 0 .04-.01.06-.012a.981.981 0 0 0 .24-.047c.035-.012.071-.018.106-.034a.993.993 0 0 0 .302-.201l8.488-8.488h.001c.278-.28.527-.578.758-.887.075-.102.137-.209.207-.313.145-.216.284-.434.406-.66.069-.128.129-.258.19-.388a8.029 8.029 0 0 0 .418-1.074c.07-.23.126-.464.175-.7.029-.135.06-.27.082-.406.042-.27.064-.543.078-.817.006-.103.02-.205.022-.308a7.994 7.994 0 0 0-.063-1.124c-.012-.093-.037-.184-.053-.276-.038-.236-.073-.472-.133-.705H60v72z" fill="#053C75"/>
        <path d="M14.474 36.14h7.141a1 1 0 0 0 1-1V28a1 1 0 0 0-1-1h-7.14a1 1 0 0 0-1 1v7.14a1 1 0 0 0 1 1zm1-7.14h5.141v5.14h-5.14V29zM53.526 41.421H27.863a1 1 0 1 0 0 2h25.663a1 1 0 0 0 0-2zM53.526 48.562H27.863a1 1 0 0 0 0 2h25.663a1 1 0 0 0 0-2zM21.615 55.703h-7.14a1 1 0 0 0-1 1v7.14a1 1 0 0 0 1 1h7.14a1 1 0 0 0 1-1v-7.14a1 1 0 0 0-1-1zm-1 7.14h-5.14v-5.14h5.14v5.14zM53.526 55.703H27.863a1 1 0 0 0 0 2h25.663a1 1 0 0 0 0-2zM53.526 62.844H27.863a1 1 0 1 0 0 2h25.663a1 1 0 0 0 0-2zM27.863 36.28h25.44a1 1 0 0 0 0-2h-25.44a1 1 0 1 0 0 2zM26.863 28.14a1 1 0 0 0 1 1h25.44a1 1 0 1 0 0-2h-25.44a1 1 0 0 0-1 1zM23.404 41.652l-5.21 6.437-3.03-2.89a1 1 0 1 0-1.38 1.446l3.813 3.64a1 1 0 0 0 1.468-.094l5.893-7.28a1 1 0 0 0-1.554-1.259z" fill="#053C75"/>
    </symbol>
    <symbol id="orderActions" fill="none" viewBox="0 0 85 65">
        <path d="M55.5 52.9H3.9c-.5 0-1-.2-1.4-.6-.5-.5-.6-1.2-.6-1.4V12.4h76c.1 0 .2 0 .3-.1v5.1c0 .6.4 1 1 1s1-.4 1-1V5.3c0-1.7-.7-3.2-1.8-4.2C77.6.4 76.6 0 75.6 0H4.6c-1 0-2 .4-2.8 1.1C.6 2.1 0 3.6 0 5.3V51c0 .5.1 1.7 1.2 2.8.7.7 1.7 1.1 2.7 1.1h51.5c.6 0 1-.4 1-1s-.4-1-.9-1zM3.1 2.6c.5-.4 1-.6 1.5-.6H75.5c.5 0 1 .2 1.5.6.7.6 1.1 1.6 1.1 2.7v5.1c-.1 0-.2-.1-.3-.1H2V5.2c0-1 .4-2 1.1-2.6zm2.3 3.8C5.4 5.6 6 5 6.8 5c.8 0 1.4.6 1.4 1.4 0 .8-.6 1.4-1.4 1.4-.8 0-1.4-.6-1.4-1.4zm4.3 0c0-.8.6-1.4 1.4-1.4.8 0 1.4.6 1.4 1.4 0 .8-.6 1.4-1.4 1.4-.8 0-1.4-.6-1.4-1.4zm4.2 0c0-.8.6-1.4 1.4-1.4.8 0 1.4.6 1.4 1.4 0 .8-.6 1.4-1.4 1.4-.8 0-1.4-.6-1.4-1.4zm26.3 20.9h-16c-.6 0-1-.4-1-1s.4-1 1-1h16c.6 0 1 .4 1 1s-.4 1-1 1zm-20.9 6.1c.4.3.5 1 .2 1.4l-4.3 5.8c-.2.3-.5.4-.8.4-.2 0-.4-.1-.6-.2l-3.4-2.5c-.4-.3-.5-1-.2-1.4.3-.4.9-.5 1.4-.2l2.6 1.9 3.7-5c.4-.4 1-.5 1.4-.2zm.2-10l-4.3 5.8c-.2.3-.5.4-.8.4-.2 0-.4-.1-.6-.2l-3.4-2.5c-.4-.3-.5-.9-.2-1.4.3-.4.9-.5 1.4-.2l2.6 1.9 3.7-5c.3-.4 1-.5 1.4-.2.5.3.6.9.2 1.4zm16.5 13c.6 0 1 .4 1 1s-.4 1-1 1H24.2c-.6 0-1-.4-1-1s.4-1 1-1H36zm24.3-8.7c.4.4.3 1-.1 1.4-.2.2-.4.2-.7.2-.3 0-.6-.1-.8-.3l-3.6-4.1c-.4-.4-.3-1 .1-1.4.4-.4 1-.3 1.4.1l3.7 4.1zm-3.6 6.1c-.1 0-.2 0-.3-.1l-5.2-1.8c-.5-.2-.8-.8-.6-1.3.2-.5.7-.8 1.3-.6l5.2 1.8c.5.2.8.8.6 1.3-.2.4-.6.7-1 .7zm-.6 3.2c.5-.1 1.1.2 1.2.8.1.5-.2 1.1-.8 1.2l-5.3 1H51c-.5 0-.9-.3-1-.8-.1-.5.2-1.1.8-1.2l5.3-1zm3.3 5.1c.4.4.3 1-.1 1.4l-4.1 3.6c-.2.2-.4.2-.7.2-.3 0-.6-.1-.8-.3-.4-.4-.3-1 .1-1.4l4.1-3.6c.5-.4 1.1-.3 1.5.1zm16.6-9l5.4-1c.5-.1 1.1.3 1.2.8.1.5-.3 1.1-.8 1.2l-5.4 1h-.2c-.5 0-.9-.3-1-.8-.1-.6.3-1.1.8-1.2zm2.7-6.5l-4.1 3.6c-.2.1-.4.2-.7.2-.3 0-.6-.1-.8-.3-.4-.4-.3-1 .1-1.4l4.1-3.6c.4-.4 1-.3 1.4.1.4.4.4 1 0 1.4zm-7.1-6.2c.5.2.8.8.6 1.3l-1.8 5.1c-.1.4-.5.7-.9.7-.1 0-.2 0-.3-.1-.5-.2-.8-.8-.6-1.3l1.8-5.1c.2-.5.7-.8 1.2-.6zm-7.1 6.7h-.2c-.5 0-.9-.3-1-.8l-1-5.4c-.1-.5.3-1.1.8-1.2.6-.1 1.1.3 1.2.8l1 5.4c.1.6-.3 1.1-.8 1.2zm19.7 23.2L66.1 33.7c-.3-.3-.7-.3-1.1-.2-.4.1-.6.5-.6.9V59c0 .4.3.8.6.9.4.1.8 0 1.1-.3l4.5-4.9 3.4 7.7c.4.9 1.1 1.5 1.9 1.8.4.2.8.2 1.2.2.5 0 1-.1 1.4-.3.9-.4 1.5-1.1 1.8-1.9.3-.9.3-1.8-.1-2.7l-3.5-7.8 6.6.1c.4 0 .8-.2.9-.6.1-.4.3-.7 0-.9zm-8.8-.5c-.3 0-.7.2-.9.4-.2.2-.2.6-.1 1l4.1 9.2c.2.4.2.8 0 1.1-.1.4-.4.7-.8.8-.4.2-.8.2-1.1 0-.4-.1-.7-.4-.8-.8l-4-9.2c-.1-.3-.4-.5-.8-.6h-.2c-.3 0-.6.1-.7.3l-3.7 4.4V36.7l14.5 13.2-5.5-.1z" fill="#053C75"/>
    </symbol>
        <symbol id="fundDeposits" fill="none" viewBox="0 0 80 80">
        <path d="M62 36c-10.262 0-18 4.299-18 10v24c0 5.701 7.738 10 18 10s18-4.299 18-10V46c0-5.701-7.738-10-18-10zm14 26c0 2.832-5.988 6-14 6s-14-3.168-14-6v-1.644C51.245 62.589 56.186 64 62 64s10.755-1.41 14-3.644V62zm0-8c0 2.832-5.988 6-14 6s-14-3.168-14-6v-1.644C51.245 54.589 56.186 56 62 56s10.755-1.41 14-3.644V54zM62 40c8.012 0 14 3.168 14 6s-5.988 6-14 6-14-3.168-14-6 5.988-6 14-6zm0 36c-8.012 0-14-3.168-14-6v-1.644C51.245 70.589 56.186 72 62 72s10.755-1.41 14-3.644V70c0 2.832-5.988 6-14 6zM18 36C7.738 36 0 40.299 0 46v24c0 5.701 7.738 10 18 10s18-4.299 18-10V46c0-5.701-7.738-10-18-10zm14 26c0 2.832-5.988 6-14 6S4 64.832 4 62v-1.644C7.245 62.589 12.186 64 18 64s10.755-1.41 14-3.644V62zm0-8c0 2.832-5.988 6-14 6S4 56.832 4 54v-1.644C7.245 54.589 12.186 56 18 56s10.755-1.41 14-3.644V54zM18 40c8.012 0 14 3.168 14 6s-5.988 6-14 6-14-3.168-14-6 5.988-6 14-6zm0 36c-8.012 0-14-3.168-14-6v-1.644C7.245 70.589 12.186 72 18 72s10.755-1.41 14-3.644V70c0 2.832-5.988 6-14 6zM53.816 15.164A1.997 1.997 0 0 0 52 14h-5V2a1.999 1.999 0 0 0-2-2H35a2 2 0 0 0-2 2v12h-5a2.001 2.001 0 0 0-1.52 3.3l12 14a2 2 0 0 0 3.039 0l12-14a1.996 1.996 0 0 0 .297-2.136zM40 26.928L32.348 18H35a1.999 1.999 0 0 0 2-2V4h6v12a2 2 0 0 0 2 2h2.652L40 26.928z" fill="#053C75"/>
    </symbol>
    <symbol id="ubos" fill="none" viewBox="0 0 74 85">
        <path d="M63 0H11A11 11 0 0 0 0 11v62.46a11 11 0 0 0 11 11h52a11 11 0 0 0 11-11V11A11 11 0 0 0 63 0zm5 73.46a5 5 0 0 1-5 5H11a5 5 0 0 1-5-5V11a5 5 0 0 1 5-5h52a5 5 0 0 1 5 5v62.46z" fill="#053C75"/>
        <path d="M19.35 39.73H14.4a3 3 0 0 0 0 6h4.95a3 3 0 0 0 0-6zM59.6 39.73H30.29a3 3 0 0 0 0 6H59.6a3 3 0 0 0 0-6zM19.35 21.73H14.4a3 3 0 0 0 0 6h4.95a3 3 0 0 0 0-6zM59.6 21.73H30.29a3 3 0 0 0 0 6H59.6a3 3 0 0 0 0-6zM19.35 57.73H14.4a3 3 0 0 0 0 6h4.95a3 3 0 0 0 0-6zM59.6 57.73H30.29a3 3 0 0 0 0 6H59.6a3 3 0 0 0 0-6z" fill="#053C75"/>
    </symbol>
</svg>