<svg width="27" height="26" viewBox="0 0 27 26" fill="none" xmlns="http://www.w3.org/2000/svg">
<path d="M26.6727 8.93866L22.6517 3.44334L16.7007 0.226562L11.5538 2.8804L5.73683 5.26617L0.938477 13.2277L2.65409 17.3023L2.86854 20.8943L6.24615 22.9316L10.428 23.0925L15.1459 25.7463L23.0538 23.3873L24.957 19.5272L23.1074 15.9083L26.6727 8.93866ZM21.633 4.03308L25.0643 8.56337L20.8289 7.83959L18.1482 5.61466L17.4512 1.83495L21.633 4.03308ZM10.7496 11.3244L11.6611 6.66011L12.5189 11.6461L10.7496 11.3244ZM16.1109 1.83495L16.2986 3.49695L12.5725 3.7114L16.1109 1.83495ZM23.5631 19.2323L17.6121 19.7416L13.1086 12.4503L18.041 16.9538L21.7135 16.1228L23.5631 19.2323Z" fill="#B3410F"/>
</svg>
