<svg width="19" height="20" viewBox="0 0 19 20" fill="none" xmlns="http://www.w3.org/2000/svg">
<path d="M18.3211 7.00311L15.57 2.90361L11.4983 0.503906L7.97685 2.48366L3.99688 4.26345L0.713867 10.2027L1.88768 13.2423L2.03441 15.922L4.34536 17.4418L7.20654 17.5618L10.4345 19.5416L15.8451 17.7818L17.1473 14.9021L15.8818 12.2025L18.3211 7.00311ZM14.873 3.34356L17.2207 6.72315L14.3228 6.18321L12.4887 4.52342L12.0118 1.70376L14.873 3.34356ZM7.42663 8.78289L8.05022 5.30332L8.63712 9.02287L7.42663 8.78289ZM11.0948 1.70376L11.2232 2.94361L8.67381 3.10359L11.0948 1.70376ZM16.1936 14.6822L12.1219 15.0621L9.04062 9.62279L12.4153 12.9824L14.928 12.3625L16.1936 14.6822Z" fill="#AE5C21"/>
</svg>
