<svg width="15" height="19" viewBox="0 0 15 19" fill="none" xmlns="http://www.w3.org/2000/svg">
<path d="M7.5 0C3.35763 0 0 3.33977 0 7.45946C0 13.1246 7.5 18.0551 7.5 18.0551C7.5 18.0551 15 13.1246 15 7.45946C15 3.33977 11.6424 0 7.5 0ZM7.5 13.2571C4.28064 13.2571 1.67112 10.6617 1.67112 7.45946C1.67112 4.25751 4.28068 1.66181 7.5 1.66181C10.7193 1.66181 13.3295 4.25751 13.3295 7.45946C13.3295 10.6617 10.7194 13.2571 7.5 13.2571Z" fill="#053C75"/>
<path d="M9.56196 4.67626C9.56196 4.48524 9.40652 4.33008 9.2145 4.33008H5.73809C5.54603 4.33008 5.39062 4.48524 5.39062 4.67626V7.02247L7.38439 6.44122L7.4825 6.41241L7.58028 6.44122L9.56196 7.01951V4.67626Z" fill="#053C75"/>
<path d="M6.08567 11.2451H7.30565V6.82422L4 7.78748L6.08567 11.2451Z" fill="#053C75"/>
<path d="M7.65332 11.2449H8.87299L10.9587 7.7873L7.65332 6.82227V11.2449Z" fill="#053C75"/>
</svg>
