<svg width="19" height="19" viewBox="0 0 19 19" fill="none" xmlns="http://www.w3.org/2000/svg">
<path d="M5.54883 15.9255C5.69936 15.8001 5.84989 15.6997 5.97534 15.5492C6.9538 14.5707 7.4054 13.3915 7.33013 12.0117C7.30504 11.3594 7.05415 10.7321 6.75309 10.1551C6.42693 9.50279 6.0506 8.87557 5.67427 8.22326C5.59901 8.09782 5.59901 8.02255 5.64918 7.87202C6.60256 5.94019 7.78173 4.1338 9.01107 2.40268C9.48776 1.75037 9.96445 1.09806 10.4411 0.470845C10.4662 0.420668 10.5164 0.37049 10.5666 0.320312C10.692 0.470845 10.7924 0.596289 10.8927 0.746821C12.4733 2.82919 13.9786 4.98682 15.208 7.32007C15.6345 8.12291 15.9857 8.95084 16.3119 9.80385C16.8638 11.3092 16.8137 12.7894 16.337 14.2947C15.8603 15.7499 15.0575 17.0043 13.803 17.9075C11.6705 19.4881 8.88563 19.3376 6.87853 17.5563C6.40185 17.1298 5.97534 16.628 5.6241 16.076C5.59901 16.0259 5.57392 15.9757 5.54883 15.9255ZM12.6239 17.5061C14.2295 16.9541 15.9105 14.3198 15.6094 12.7643C14.932 14.5205 13.9034 16.076 12.6239 17.5061Z" fill="#373E46"/>
<path d="M3.49175 6.29102C3.66737 6.51681 3.84299 6.74261 3.99353 6.94332C4.84654 8.0974 5.67447 9.30166 6.25151 10.6314C6.5024 11.2084 6.7282 11.7854 6.67802 12.4378C6.62784 13.4413 6.2766 14.3445 5.54903 15.047C4.34477 16.2262 2.61365 16.2262 1.40939 15.047C0.556371 14.194 -0.121025 12.5381 0.581459 10.9073C0.982879 9.95397 1.48465 9.07587 2.06169 8.22285C2.46311 7.62072 2.91471 7.04368 3.34122 6.46664C3.3914 6.41646 3.44157 6.34119 3.49175 6.29102ZM6.07589 12.513C5.82501 12.9646 5.59921 13.4664 5.29814 13.918C4.99708 14.3696 4.67092 14.7961 4.36986 15.2226C5.37341 14.7208 6.22642 13.366 6.07589 12.513Z" fill="#373E46"/>
<path d="M16.7382 9.07795C16.6881 8.95251 16.6379 8.85215 16.5877 8.72671C17.1898 8.37547 17.6414 7.92387 17.9174 7.27156C18.0428 6.9705 18.093 6.64434 18.093 6.31819C17.7167 7.19629 17.2149 7.97405 16.5877 8.67653C16.4623 8.40055 16.3619 8.14967 16.2365 7.89878C15.5591 6.44363 14.7311 5.08884 13.853 3.75914C13.7778 3.65878 13.7778 3.58352 13.8279 3.45807C14.405 2.5047 15.0322 1.60151 15.7347 0.723402C15.7598 0.698313 15.7849 0.673224 15.8099 0.623047C15.9354 0.773579 16.0608 0.924112 16.1863 1.07464C16.9891 2.12837 17.7418 3.20719 18.2937 4.41145C18.5697 4.98849 18.7704 5.59062 18.6952 6.26801C18.5446 7.52245 17.9927 8.47582 16.8135 9.02777C16.7884 9.05286 16.7633 9.07795 16.7382 9.07795Z" fill="#373E46"/>
</svg>
