<svg width="22" height="20" viewBox="0 0 22 20" fill="none" xmlns="http://www.w3.org/2000/svg">
<path d="M8.24875 1.77746e-05C8.1294 1.77746e-05 8.0151 0.0435812 7.94088 0.100124C7.86666 0.156667 7.82524 0.204689 7.7955 0.236633C7.79545 0.239661 7.79545 0.242687 7.7955 0.245716L6.24765 1.9293C6.21869 1.94999 6.19515 1.97818 6.17924 2.01121L4.43469 3.91321C4.41505 3.93691 4.40046 3.96485 4.39193 3.99512C4.38881 4.00104 4.38596 4.00711 4.38338 4.01332C4.35197 4.05115 4.33383 4.09938 4.33207 4.14983V6.60698C4.33472 6.61019 4.33798 6.61281 4.34062 6.61601L5.11027 6.343C5.47779 6.2123 5.86827 6.38514 6.05953 6.72522L7.34229 6.27019C7.76728 6.11911 8.23506 6.36399 8.37704 6.81623L11.4899 16.745C11.6318 17.1973 11.4002 17.6866 10.9768 17.8371L7.74434 18.9838H21.2646C21.5197 18.9838 21.7063 18.7865 21.8204 18.547C21.9346 18.3074 22 17.9972 22 17.6642V4.14992C21.999 4.12056 21.9924 4.09173 21.9806 4.06515C21.9689 4.03857 21.9522 4.01477 21.9316 3.99521C21.9231 3.96494 21.9085 3.937 21.8888 3.9133L18.7161 0.245698C18.7133 0.242581 18.7104 0.239554 18.7075 0.236615C18.6778 0.204671 18.6449 0.156652 18.5707 0.100106C18.4965 0.0435605 18.3822 0 18.2628 0H15.1927H11.3188H8.24868L8.24875 1.77746e-05ZM8.24875 0.436846H11.3189H12.157L11.9517 1.07389C11.9434 1.07026 11.9348 1.06721 11.9261 1.06479H7.61599L8.09488 0.54607C8.14016 0.497093 8.16726 0.465079 8.1804 0.455064C8.19423 0.444522 8.19887 0.436863 8.24881 0.436863L8.24875 0.436846ZM12.6015 0.436846H13.7645L14.8335 3.93147H11.4555L12.6014 0.436846H12.6015ZM14.1921 0.436846H15.1927H18.2628C18.3128 0.436846 18.3174 0.444505 18.3312 0.455047C18.3451 0.465589 18.3668 0.492416 18.4167 0.546052L18.8614 1.06477H14.4315C14.423 1.0642 14.4144 1.0642 14.4058 1.06477C14.4 1.06751 14.3943 1.07054 14.3887 1.07385L14.192 0.43681L14.1921 0.436846ZM7.2224 1.5016H11.8146L11.6778 1.90202C11.6639 1.89739 11.6495 1.89434 11.635 1.89294H6.86302L7.2222 1.5016H7.2224ZM14.517 1.5016H19.1948C19.209 1.50318 19.2234 1.50318 19.2376 1.5016L19.5797 1.89294H14.7053C14.6996 1.89269 14.6939 1.89269 14.6882 1.89294C14.6737 1.89434 14.6594 1.89739 14.6454 1.90202L14.5172 1.5016H14.517ZM19.9386 2.32065C19.9443 2.3209 19.95 2.3209 19.9557 2.32065L21.3497 3.93143H15.2693L14.7733 2.32973H19.8786C19.8989 2.32986 19.9191 2.3268 19.9385 2.32065H19.9386ZM6.46109 2.32973H11.5407L11.019 3.93143H4.99014L6.46104 2.32973H6.46109ZM11.4126 4.36826H14.9102V6.98923C14.7469 6.87804 14.5448 6.76779 14.303 6.79813C14.08 6.82609 13.9455 6.99503 13.8754 7.08935C13.8054 7.18368 13.8118 7.20511 13.7472 7.20764C13.7112 7.20764 13.7128 7.20473 13.7044 7.19861C13.696 7.19162 13.6747 7.16439 13.6445 7.11669C13.6143 7.06896 13.5745 6.9977 13.4992 6.93468C13.4239 6.87163 13.3089 6.83002 13.1913 6.83459C12.9695 6.84332 12.8264 7.00891 12.7551 7.09849C12.6839 7.18809 12.6861 7.20519 12.6183 7.20769C12.549 7.21061 12.524 7.17851 12.4302 7.08029C12.3364 6.98203 12.1852 6.81694 11.9513 6.79819C11.7327 6.78042 11.5586 6.86895 11.4125 6.97108V4.36831L11.4126 4.36826ZM3.57074 6.65252C3.53773 6.65689 3.50065 6.66825 3.46812 6.6799C3.2079 6.77239 3.06062 7.04948 3.10038 7.32605C3.10692 7.37626 3.09684 7.42732 3.07188 7.47049C3.04691 7.51366 3.00862 7.54625 2.96356 7.56267L2.09985 7.87209C1.89361 7.94542 1.78071 8.17044 1.83474 8.3908C1.83785 8.39668 1.84071 8.40271 1.84329 8.40886C1.84417 8.41178 1.84234 8.41498 1.84329 8.41789C1.84963 8.42655 1.85535 8.4357 1.8604 8.44527L1.92881 8.68188L2.03998 9.03682L2.09129 9.20063V9.20964H2.09985C2.10326 9.21856 2.10612 9.22772 2.1084 9.23703C2.11435 9.25014 2.12627 9.26295 2.13405 9.27344C2.13717 9.27693 2.13927 9.27924 2.1426 9.28245C2.14997 9.29118 2.15127 9.30372 2.15971 9.30984C2.16705 9.31421 2.17748 9.31594 2.18536 9.31885C2.20091 9.32497 2.21926 9.32788 2.23667 9.32788C2.25389 9.32788 2.27076 9.32497 2.28798 9.31885L5.90543 8.03569C5.94648 8.02113 5.97401 7.99981 5.99095 7.96288C6.00016 7.94599 6.00494 7.92808 6.00806 7.90828C6.00836 7.90537 6.0079 7.90216 6.00806 7.89925C6.00907 7.87741 6.00688 7.85003 5.9995 7.82644L5.94819 7.64443L5.83702 7.28953L5.76006 7.062C5.75623 7.05015 5.75337 7.03797 5.7515 7.02559C5.67942 6.796 5.45382 6.67596 5.2384 6.75258L4.37469 7.062C4.32891 7.07923 4.27886 7.07863 4.23346 7.06031C4.18805 7.04198 4.15022 7.00711 4.12669 6.96191C4.03337 6.77707 3.85753 6.66093 3.6649 6.65249C3.63279 6.65249 3.60384 6.64812 3.57083 6.65249L3.57074 6.65252ZM7.54723 6.66155C7.5203 6.66505 7.4972 6.67 7.47026 6.67961L6.21315 7.13464L6.2217 7.15268L6.33287 7.50762L6.34142 7.52568L7.46171 7.12526C7.47285 7.12121 7.4843 7.11819 7.49592 7.11623C7.54442 7.10696 7.59444 7.11658 7.63683 7.14331C7.67922 7.17005 7.71116 7.21211 7.72682 7.26184L10.7201 16.7993C10.728 16.8267 10.7307 16.8556 10.7281 16.8842C10.7255 16.9128 10.7176 16.9406 10.7049 16.966C10.6922 16.9913 10.6749 17.0138 10.654 17.032C10.6331 17.0503 10.6091 17.064 10.5832 17.0723L3.65647 19.5385C3.63066 19.5485 3.60324 19.5529 3.57581 19.5514C3.54838 19.55 3.52151 19.5427 3.49679 19.5299C3.47207 19.5172 3.45 19.4993 3.43189 19.4773C3.41378 19.4553 3.4 19.4298 3.39136 19.402L0.39812 9.8646C0.390213 9.83711 0.387482 9.80823 0.390083 9.77962C0.392684 9.75101 0.400566 9.72324 0.413277 9.69788C0.425989 9.67251 0.44328 9.65006 0.464158 9.63183C0.485037 9.61359 0.509093 9.59991 0.534948 9.59158L1.65524 9.19119L1.64669 9.17313L1.53551 8.81823L1.52696 8.79086L0.278409 9.24589C0.0629684 9.32246 -0.0506615 9.55184 0.0218572 9.7828L3.13469 19.7116C3.20719 19.9426 3.43078 20.0527 3.64779 19.9755L10.8397 17.4182C11.0567 17.3411 11.1683 17.1106 11.0963 16.8813L7.98345 6.95254C7.92047 6.75195 7.73582 6.63628 7.5473 6.66132L7.54723 6.66155ZM7.40185 7.60801L6.40985 7.96295C6.40647 7.98916 6.40785 8.0195 6.4013 8.04484C6.39184 8.08177 6.38289 8.11078 6.36709 8.14496C6.32742 8.23367 6.26377 8.30455 6.18751 8.36338C6.18421 8.36629 6.18234 8.36948 6.17895 8.37239C6.16779 8.38054 6.15656 8.3925 6.14475 8.39978C6.11273 8.41958 6.07858 8.43216 6.04213 8.44527L2.41619 9.73751C2.36852 9.7544 2.31895 9.76197 2.27081 9.76489C2.13453 9.77275 2.00015 9.73387 1.89454 9.64656C1.87542 9.63083 1.86041 9.6103 1.84323 9.59196L0.859763 9.93778L3.71618 19.0564L10.2582 16.7358L7.40177 7.60783L7.40185 7.60801ZM7.11109 9.44629C7.11679 9.44604 7.1225 9.44604 7.1282 9.44629C7.17952 9.44025 7.2311 9.45501 7.27265 9.48764C7.3142 9.52026 7.34266 9.56836 7.35238 9.62233C7.36209 9.6763 7.35233 9.73219 7.32504 9.77884C7.29776 9.82549 7.25495 9.85948 7.20516 9.87404L3.70757 11.1208C3.68165 11.1302 3.65424 11.1339 3.62693 11.1319C3.59962 11.1299 3.57295 11.1222 3.54848 11.1092C3.524 11.0961 3.5022 11.078 3.48434 11.0559C3.46648 11.0339 3.45291 11.0082 3.44443 10.9805C3.43594 10.9528 3.4327 10.9236 3.4349 10.8946C3.4371 10.8656 3.44469 10.8373 3.45724 10.8114C3.46978 10.7855 3.48703 10.7625 3.50798 10.7438C3.52893 10.725 3.55317 10.7109 3.5793 10.7022L7.07689 9.4645C7.08774 9.45736 7.09919 9.45131 7.11109 9.44644V9.44629ZM2.97205 10.3655C2.97775 10.3652 2.98346 10.3652 2.98916 10.3655C3.02734 10.3623 3.06559 10.3706 3.09959 10.3893C3.13359 10.4081 3.16198 10.4366 3.18155 10.4716C3.20113 10.5066 3.2111 10.5468 3.21035 10.5875C3.2096 10.6283 3.19815 10.668 3.1773 10.7022L2.62998 11.7488C2.6167 11.7753 2.59843 11.7986 2.5763 11.8172C2.55417 11.8359 2.52867 11.8495 2.50138 11.8571C2.47409 11.8648 2.44561 11.8665 2.41771 11.8619C2.38981 11.8573 2.36309 11.8467 2.33923 11.8306L1.93728 11.5576C1.91147 11.5438 1.88867 11.5244 1.87039 11.5006C1.85212 11.4768 1.83876 11.4492 1.8312 11.4195C1.82365 11.3899 1.82206 11.3588 1.82654 11.3285C1.83102 11.2981 1.84148 11.2691 1.85722 11.2433C1.87296 11.2176 1.89363 11.1956 1.91788 11.1789C1.94214 11.1623 1.96943 11.1512 1.99797 11.1465C2.02651 11.1418 2.05567 11.1436 2.08352 11.1517C2.11138 11.1598 2.13731 11.1741 2.15963 11.1936L2.37342 11.3392L2.81811 10.4838C2.8322 10.4562 2.85171 10.4321 2.87533 10.4133C2.89894 10.3944 2.92609 10.3812 2.95494 10.3746C2.9605 10.3713 2.96621 10.3682 2.97204 10.3655L2.97205 10.3655ZM7.6242 11.0298C7.62989 11.0295 7.6356 11.0295 7.6413 11.0298C7.69573 11.0213 7.75109 11.0363 7.79519 11.0712C7.8393 11.1062 7.86853 11.1584 7.87647 11.2164C7.88441 11.2743 7.8704 11.3332 7.83752 11.3801C7.80465 11.4271 7.7556 11.4582 7.70116 11.4666L4.20357 12.7043C4.17724 12.7188 4.14828 12.727 4.11868 12.7284C4.08909 12.7298 4.05955 12.7244 4.03211 12.7125C4.00466 12.7006 3.97996 12.6826 3.9597 12.6596C3.93943 12.6366 3.92409 12.6092 3.91472 12.5793C3.90535 12.5493 3.90218 12.5176 3.90542 12.4863C3.90866 12.455 3.91824 12.4247 3.93349 12.3977C3.94875 12.3707 3.96932 12.3475 3.9938 12.3297C4.01828 12.312 4.04608 12.3 4.0753 12.2948L7.57289 11.048C7.58402 11.0439 7.59547 11.0409 7.60709 11.039C7.61266 11.0357 7.61837 11.0327 7.6242 11.0299V11.0298ZM3.45095 11.9581C3.4538 11.958 3.45665 11.958 3.4595 11.9581C3.4652 11.9578 3.47091 11.9578 3.47661 11.9581C3.51421 11.9542 3.55207 11.9616 3.58602 11.9792C3.61997 11.9968 3.64869 12.024 3.66902 12.0579C3.68936 12.0918 3.70052 12.131 3.70127 12.1712C3.70203 12.2113 3.69235 12.251 3.6733 12.2857L3.12599 13.3413C3.11197 13.3671 3.09315 13.3895 3.07069 13.4073C3.04823 13.425 3.0226 13.4377 2.99537 13.4445C2.96814 13.4513 2.93989 13.4522 2.91235 13.4469C2.88481 13.4417 2.85857 13.4306 2.83523 13.4141L2.43328 13.1502C2.4102 13.1347 2.39021 13.1145 2.37447 13.0908C2.35874 13.0671 2.34755 13.0403 2.34156 13.0119C2.33557 12.9836 2.33489 12.9543 2.33956 12.9256C2.34423 12.897 2.35415 12.8697 2.36877 12.8451C2.38339 12.8206 2.40241 12.7994 2.42475 12.7827C2.44709 12.766 2.4723 12.7541 2.49894 12.7478C2.52559 12.7415 2.55314 12.7408 2.58003 12.7458C2.60691 12.7509 2.6326 12.7615 2.65563 12.7771L2.87797 12.9227L3.31412 12.0764C3.32724 12.0471 3.34632 12.0213 3.36999 12.0008C3.39366 11.9803 3.42132 11.9657 3.45095 11.9581V11.9581ZM8.12006 12.6133C8.1286 12.6127 8.13717 12.6127 8.14571 12.6133C8.20006 12.6062 8.25482 12.6224 8.29799 12.6582C8.34116 12.6941 8.36921 12.7467 8.376 12.8045C8.38279 12.8623 8.36777 12.9206 8.33422 12.9667C8.30067 13.0127 8.25133 13.0427 8.19703 13.0501L4.70792 14.2969C4.68207 14.3066 4.65468 14.3107 4.62733 14.3091C4.59998 14.3074 4.5732 14.3001 4.54852 14.2874C4.52385 14.2748 4.50176 14.257 4.48353 14.2353C4.4653 14.2135 4.45128 14.1881 4.44228 14.1606C4.43328 14.1331 4.42948 14.1039 4.43108 14.0748C4.43269 14.0457 4.43967 14.0172 4.45164 13.991C4.4636 13.9648 4.48032 13.9413 4.50081 13.922C4.52131 13.9026 4.54519 13.8878 4.57109 13.8783L8.06868 12.6315C8.07982 12.6274 8.09126 12.6244 8.10289 12.6225C8.10845 12.6192 8.11416 12.6162 8.11999 12.6134L8.12006 12.6133ZM3.97254 13.5416C3.97824 13.5413 3.98394 13.5413 3.98964 13.5416C4.02783 13.5384 4.06608 13.5466 4.10009 13.5654C4.13409 13.5841 4.16249 13.6127 4.18206 13.6477C4.20163 13.6827 4.21161 13.7229 4.21085 13.7636C4.21009 13.8044 4.19864 13.8441 4.17778 13.8783L3.62193 14.9248C3.60865 14.9514 3.59038 14.9747 3.56825 14.9933C3.54612 15.012 3.52062 15.0256 3.49333 15.0332C3.46604 15.0409 3.43756 15.0426 3.40966 15.038C3.38176 15.0334 3.35504 15.0228 3.33117 15.0068L2.92923 14.7337C2.90614 14.7182 2.88616 14.698 2.87042 14.6743C2.85468 14.6506 2.8435 14.6238 2.8375 14.5954C2.83151 14.5671 2.83083 14.5378 2.8355 14.5091C2.84017 14.4805 2.8501 14.4532 2.86472 14.4286C2.87934 14.4041 2.89836 14.3829 2.9207 14.3662C2.94303 14.3495 2.96824 14.3376 2.99489 14.3313C3.02153 14.325 3.04909 14.3243 3.07597 14.3293C3.10286 14.3344 3.12855 14.345 3.15157 14.3606L3.37392 14.5062L3.81861 13.6599C3.83269 13.6323 3.85221 13.6082 3.87582 13.5894C3.89944 13.5705 3.92659 13.5573 3.95543 13.5507C3.961 13.5474 3.96671 13.5444 3.97254 13.5416V13.5416ZM8.59896 14.2059C8.60466 14.2057 8.61036 14.2057 8.61606 14.2059C8.62176 14.2057 8.62746 14.2057 8.63316 14.2059C8.68304 14.2039 8.7319 14.2212 8.77066 14.2547C8.80941 14.2881 8.83539 14.3355 8.84377 14.3878C8.85214 14.4402 8.84233 14.494 8.81617 14.5392C8.79001 14.5845 8.74928 14.618 8.70158 14.6336L5.20399 15.8804C5.15186 15.8984 5.09517 15.8936 5.04635 15.8671C4.99754 15.8406 4.96058 15.7946 4.94359 15.7392C4.92661 15.6838 4.93098 15.6234 4.95575 15.5714C4.98052 15.5194 5.02366 15.48 5.07571 15.4618L8.56482 14.2241C8.57039 14.2208 8.57609 14.2178 8.58192 14.2151C8.58749 14.2118 8.5932 14.2088 8.59903 14.2061L8.59896 14.2059ZM9.1206 15.7894C9.12345 15.7894 9.1263 15.7894 9.12915 15.7894C9.18349 15.78 9.23913 15.7939 9.28387 15.828C9.32862 15.8621 9.35883 15.9138 9.36788 15.9716C9.37693 16.0293 9.36409 16.0886 9.33216 16.1363C9.30024 16.1841 9.25184 16.2164 9.19756 16.2262L5.69997 17.4639C5.67365 17.4784 5.64469 17.4866 5.6151 17.488C5.58551 17.4894 5.55598 17.4839 5.52854 17.4721C5.50111 17.4602 5.47642 17.4421 5.45616 17.4191C5.43591 17.3961 5.42057 17.3687 5.4112 17.3388C5.40183 17.3089 5.39866 17.2772 5.4019 17.2459C5.40513 17.2146 5.41471 17.1843 5.42995 17.1573C5.4452 17.1303 5.46577 17.1071 5.49023 17.0893C5.5147 17.0716 5.54249 17.0597 5.5717 17.0544L9.06929 15.8076C9.08043 15.8036 9.09187 15.8005 9.10349 15.7986C9.10906 15.7953 9.11477 15.7923 9.1206 15.7896V15.7894Z" fill="black"/>
</svg>
