<svg width="20" height="32" viewBox="0 0 20 32" fill="none" xmlns="http://www.w3.org/2000/svg">
<path d="M1.77832 21.4584C4.12256 20.4993 6.32473 21.6715 6.32473 21.6715C3.09251 18.5103 1.21001 18.901 1.21001 18.901C3.94497 17.1606 5.96954 18.8655 5.96954 18.8655C3.6253 15.9529 1.21001 15.4912 1.21001 15.4912C3.55426 14.4611 4.86845 15.2426 4.86845 15.2426C3.16355 12.401 0.535156 11.1934 0.535156 11.1934C3.34115 11.0868 5.54331 12.8628 5.54331 12.8628C3.87393 9.6661 1.03242 6.68251 1.03242 6.68251C4.97501 8.20982 7.35477 11.6552 7.35477 11.6552C5.75643 6.82459 2.48869 3.91204 2.48869 3.91204C6.28921 5.01313 8.42034 7.606 8.42034 7.606C8.59793 3.94756 9.91213 0.857422 9.91213 0.857422C11.7236 5.43935 11.617 7.71256 11.617 7.71256C13.8192 5.01313 17.5842 3.94756 17.5842 3.94756C14.4941 6.29181 12.8957 11.0158 12.8957 11.0158C14.9558 8.1743 18.7208 6.68251 18.7208 6.68251C16.0569 9.09779 13.9968 13.218 13.9968 13.218C15.8083 11.3 19.3957 11.1579 19.3957 11.1579C17.158 11.9393 14.8493 15.2781 14.8493 15.2781C14.8493 15.2781 12.8957 15.8819 15.0624 15.207C17.229 14.5322 18.7208 15.4557 18.7208 15.4557C16.7673 15.3136 13.8902 18.8655 13.8902 18.8655C16.5186 17.0895 18.7208 18.8655 18.7208 18.8655C15.8083 18.9365 13.2154 22.0622 13.2154 22.0622C15.4886 20.0731 18.4011 21.4228 18.4011 21.4228C12.0077 22.3818 10.0542 27.7452 10.0542 27.7452C8.17171 22.3818 1.77832 21.4584 1.77832 21.4584ZM9.52143 29.0949C9.41487 29.2725 9.05968 29.4501 9.02416 29.8408C9.02416 30.6933 9.34383 31.084 10.0187 31.1195C10.658 31.1195 10.9777 30.6933 11.0132 29.8408C10.9777 29.4501 10.6935 29.2725 10.516 29.0949C10.3384 28.9173 10.0187 27.9228 10.0187 27.9228C10.0187 27.9228 9.62798 28.9883 9.52143 29.0949Z" fill="#F8931F"/>
</svg>
