<svg width="11" height="10" viewBox="0 0 11 10" fill="none" xmlns="http://www.w3.org/2000/svg">
<path d="M2.39175 9.2308L7.97561 3.64694L7.97561 7.16271C7.97561 7.78313 8.38922 8.19675 9.00965 8.19675C9.63008 8.19675 10.0437 7.78313 10.0437 7.16271L10.0437 1.16523C10.0437 1.06182 10.0437 0.958419 9.9403 0.855014L9.9403 0.751609C9.9403 0.648204 9.83689 0.648206 9.83689 0.544801C9.83689 0.544801 9.83689 0.441396 9.73349 0.441396C9.63008 0.337991 9.52668 0.33799 9.42327 0.234585C9.31987 0.131181 9.11306 0.13118 9.00965 0.13118L3.11558 0.131179C2.49515 0.131179 2.08153 0.544798 2.08153 1.16523C2.08153 1.78566 2.49515 2.19927 3.11558 2.19927L6.52794 2.19928L0.944079 7.78313C0.53046 8.19675 0.530459 8.81718 0.944078 9.2308C1.3577 9.64442 1.97813 9.64442 2.39175 9.2308Z" fill="#EA303D"/>
</svg>
