<svg width="17" height="16" viewBox="0 0 17 16" fill="none" xmlns="http://www.w3.org/2000/svg">
<path fill-rule="evenodd" clip-rule="evenodd" d="M0.00882365 15.2953L1.94244 4.12502C1.96677 3.9845 2.03993 3.85709 2.14902 3.76525C2.25812 3.67342 2.39614 3.62305 2.53875 3.62305H13.7632C13.9058 3.62305 14.0438 3.67342 14.1529 3.76525C14.262 3.85709 14.3352 3.9845 14.3595 4.12502L16.2931 15.2953C16.3081 15.3818 16.3039 15.4706 16.281 15.5553C16.2581 15.6401 16.2169 15.7188 16.1604 15.786C16.1038 15.8532 16.0333 15.9072 15.9537 15.9442C15.8741 15.9813 15.7874 16.0004 15.6996 16.0004H0.602338C0.514542 16.0004 0.427808 15.9813 0.34821 15.9442C0.268611 15.9072 0.198071 15.8532 0.141532 15.786C0.084992 15.7188 0.0438186 15.6401 0.0208949 15.5553C-0.00202889 15.4706 -0.0061488 15.3818 0.00882365 15.2953Z" fill="#053C75"/>
<path d="M8.15135 0C6.82446 0 5.73633 1.08839 5.73633 2.41507C5.73633 2.62455 5.77261 2.82463 5.82359 3.01885H7.09478C6.99401 2.84086 6.93205 2.63683 6.93205 2.41507C6.93205 1.73474 7.47088 1.19573 8.15135 1.19573C8.83181 1.19573 9.37065 1.73474 9.37065 2.41507C9.37065 2.63688 9.30851 2.84092 9.20792 3.01885H10.4791C10.53 2.82465 10.5664 2.62458 10.5664 2.41507C10.5664 1.08839 9.47823 0 8.15135 0H8.15135Z" fill="#053C75"/>
</svg>
