<svg width="16" height="15" viewBox="0 0 16 15" fill="none" xmlns="http://www.w3.org/2000/svg">
<path d="M12.3305 2.96885C11.2188 2.07078 9.68502 1.51567 8.16137 1.51567C7.01173 1.51567 5.88791 1.85658 4.93201 2.49529C3.97612 3.13399 3.23109 4.04181 2.79115 5.10394C2.3512 6.16607 2.23609 7.33481 2.46037 8.46236C2.68465 9.58991 3.23826 10.6256 4.05118 11.4386C4.8641 12.2515 5.89982 12.8051 7.02737 13.0294C8.15492 13.2536 9.32366 13.1385 10.3858 12.6986C11.4479 12.2586 12.3557 11.5136 12.9944 10.5577C13.6332 9.60183 13.9741 8.47801 13.9741 7.32836C13.9741 7.13566 14.0506 6.95085 14.1869 6.81459C14.3231 6.67833 14.5079 6.60178 14.7006 6.60178C14.8934 6.60178 15.0782 6.67833 15.2144 6.81459C15.3507 6.95085 15.4272 7.13566 15.4272 7.32836C15.4272 11.3413 12.1743 14.5942 8.16137 14.5942C4.14844 14.5942 0.895508 11.3413 0.895508 7.32836C0.895508 3.31543 4.14844 0.0625 8.16137 0.0625C10.0134 0.0625 11.872 0.728053 13.2475 1.84191V0.789086C13.2475 0.596384 13.324 0.411574 13.4603 0.275312C13.5965 0.139051 13.7814 0.0625 13.9741 0.0625C14.1668 0.0625 14.3516 0.139051 14.4878 0.275312C14.6241 0.411574 14.7006 0.596384 14.7006 0.789086V3.69543C14.7006 3.88813 14.6241 4.07294 14.4878 4.20921C14.3516 4.34547 14.1668 4.42202 13.9741 4.42202H11.0677C10.875 4.42202 10.6902 4.34547 10.5539 4.20921C10.4177 4.07294 10.3411 3.88813 10.3411 3.69543C10.3411 3.50273 10.4177 3.31792 10.5539 3.18166C10.6902 3.0454 10.875 2.96885 11.0677 2.96885H12.3305Z" fill="#272829"/>
</svg>
