<svg width="22" height="20" viewBox="0 0 22 20" fill="none" xmlns="http://www.w3.org/2000/svg">
<path d="M20.8725 11.9356L20.8725 11.9356C20.7998 11.1627 20.4164 10.5631 19.986 9.88997C19.9353 9.81064 19.8839 9.73028 19.8323 9.6485C19.6431 9.7538 19.5208 9.88102 19.4334 10.0174C19.3207 10.1933 19.2601 10.3926 19.1993 10.614L19.1992 10.6141C18.7099 12.3931 18.7193 14.1818 19.2235 15.9537L19.2235 15.9537C19.2367 16.0003 19.2494 16.0465 19.2619 16.0923C19.3194 16.3027 19.3737 16.5015 19.468 16.6618C19.5223 16.7539 19.5835 16.8208 19.6555 16.8636C19.7254 16.9054 19.819 16.9325 19.9531 16.924L20.8725 11.9356ZM20.8725 11.9356C21.0009 13.2989 20.9637 14.6381 20.6028 15.9447L20.6028 15.9448M20.8725 11.9356L20.6028 15.9448M20.6028 15.9448C20.5915 15.986 20.5805 16.027 20.5697 16.0676M20.6028 15.9448L20.5697 16.0676M20.5697 16.0676C20.5149 16.2721 20.4631 16.466 20.3762 16.6267M20.5697 16.0676L20.3762 16.6267M20.3762 16.6267C20.2799 16.8046 20.1571 16.9111 19.9531 16.924L20.3762 16.6267Z" fill="white" stroke="#AEAEAE" stroke-width="0.4"/>
<path d="M14.3712 18.9398C14.3552 18.9562 14.3391 18.973 14.3228 18.9898C13.9902 19.335 13.5906 19.7495 13.0928 19.4974C12.5966 19.2461 12.7176 18.7059 12.8169 18.2624C12.8266 18.2191 12.8361 18.1767 12.8448 18.1355C13.172 16.5871 13.8485 15.1692 14.8517 13.963C15.1769 13.5718 15.6296 13.2865 16.0931 12.9945C16.3063 12.8602 16.5218 12.7244 16.7282 12.5762M14.3712 18.9398C15.7027 17.5652 16.5722 15.9278 17.0112 14.0705M14.3712 18.9398L14.2275 18.8006C14.212 18.8166 14.1966 18.8326 14.1813 18.8485C14.019 19.0166 13.864 19.1771 13.6958 19.2791C13.5251 19.3827 13.3657 19.4114 13.1831 19.319L13.1831 19.319C13.0807 19.2671 13.0222 19.2043 12.9865 19.1382C12.9494 19.0695 12.9304 18.9847 12.9278 18.8814C12.9235 18.7044 12.9658 18.5147 13.0101 18.3156C13.0203 18.2698 13.0306 18.2236 13.0405 18.1769L13.0405 18.1769C13.3612 16.6594 14.0237 15.2714 15.0055 14.0908L15.0055 14.0908C15.2238 13.8283 15.5092 13.6122 15.8326 13.3986C15.9462 13.3237 16.0671 13.2474 16.1909 13.1694C16.3539 13.0666 16.5219 12.9607 16.6844 12.8505M14.3712 18.9398L14.2275 18.8006C15.5328 17.4532 16.3854 15.8484 16.8165 14.0245M17.0112 14.0705C17.1156 13.6284 17.201 13.1447 16.7282 12.5762M17.0112 14.0705L16.8165 14.0245C16.8165 14.0245 16.8165 14.0245 16.8165 14.0245M17.0112 14.0705L16.8165 14.0245M16.7282 12.5762L16.5745 12.7041C16.616 12.754 16.6524 12.8028 16.6844 12.8505M16.7282 12.5762L16.8449 12.7386C16.7923 12.7764 16.7386 12.8137 16.6844 12.8505M16.6844 12.8505C16.8159 13.0471 16.8707 13.2257 16.8871 13.3906C16.9082 13.6018 16.8684 13.8048 16.8165 14.0245" fill="white" stroke="#AEAEAE" stroke-width="0.4"/>
<path d="M5.51988 6.31467C5.32021 6.69486 5.03306 7.039 4.73968 7.35731M5.51988 6.31467C5.83811 5.70859 6.1186 5.08215 6.39886 4.45624C6.46167 4.31596 6.52447 4.17571 6.58768 4.03572C7.0132 3.09336 6.85922 2.14906 6.69639 1.15042C6.67625 1.02692 6.65598 0.902598 6.63665 0.777344M5.51988 6.31467L5.34281 6.22168L5.3428 6.22169L5.51988 6.31467ZM4.73968 7.35731L6.63665 0.777344M4.73968 7.35731L4.73945 7.35756M4.73968 7.35731L4.73945 7.35756M6.63665 0.777344L6.43899 0.807845C6.44905 0.873054 6.45929 0.93771 6.46956 1.00184C6.482 1.00016 6.49473 0.998444 6.50774 0.996688C6.55561 0.990229 6.60744 0.983235 6.66387 0.975483L6.63665 0.777344ZM4.73945 7.35756C4.47149 7.64845 4.14856 7.999 3.70549 7.79828M4.73945 7.35756L3.70549 7.79828M3.70549 7.79828C3.27811 7.60462 3.25295 7.12581 3.28523 6.73382L3.70549 7.79828ZM3.48455 6.75023C3.65202 4.71567 4.3394 2.88935 5.69028 1.34773L3.78802 7.6161C3.63873 7.54845 3.55829 7.43446 3.51514 7.28496C3.46975 7.1277 3.46898 6.93939 3.48455 6.75023L3.48455 6.75023ZM3.28524 6.73382L3.28525 6.73382L3.28524 6.73382Z" fill="white" stroke="#AEAEAE" stroke-width="0.4"/>
<path d="M16.59 4.508L16.59 4.508C17.7932 4.85949 18.9539 5.23392 19.9751 5.91526L19.9752 5.91528C20.313 6.14059 20.6269 6.43433 20.8774 6.75524L20.8775 6.75526C20.9808 6.8876 20.9854 6.98472 20.965 7.04583C20.9429 7.11187 20.8716 7.19645 20.7037 7.25829L20.7037 7.25831C20.4765 7.34208 20.2094 7.37667 19.9539 7.37045L19.9538 7.37045C18.0058 7.32361 16.2421 6.69992 14.6413 5.59412L14.6413 5.59411C14.4682 5.47453 14.3183 5.35508 14.2033 5.19476C14.1153 5.07201 14.0432 4.91848 14.0037 4.7115C14.1871 4.68231 14.3663 4.64608 14.5409 4.60946C14.5806 4.60112 14.6201 4.59277 14.6593 4.58448C14.8563 4.5428 15.0468 4.5025 15.238 4.47092C15.6935 4.3957 16.1318 4.37412 16.59 4.508Z" fill="white" stroke="#AEAEAE" stroke-width="0.4"/>
<path d="M8.60564 7.45931C8.7015 9.42518 8.25828 11.2672 7.26196 12.9642L7.25999 12.9676C7.14155 13.1693 7.02788 13.3629 6.8869 13.4937C6.75758 13.6136 6.62132 13.6671 6.43466 13.6134C6.25366 13.5613 6.16528 13.446 6.11284 13.2729C6.0648 13.1144 6.05419 12.9321 6.04255 12.7322C6.04021 12.692 6.03782 12.651 6.03508 12.6094L6.03508 12.6093C5.93759 11.1311 6.25166 9.71125 6.7617 8.31672L6.57387 8.24802L6.7617 8.31672C6.90279 7.93097 7.14498 7.62249 7.43 7.32241C7.52484 7.22256 7.62796 7.12046 7.73356 7.01591C7.89117 6.85986 8.05431 6.69834 8.20371 6.53063C8.35485 6.64384 8.44369 6.76802 8.49953 6.89549C8.57318 7.06364 8.59542 7.2506 8.60564 7.45931ZM8.60564 7.45931L8.8054 7.44957M8.60564 7.45931L8.8054 7.44957M8.8054 7.44957C8.78448 7.02218 8.71236 6.57944 8.16588 6.26758L5.83551 12.6225C5.83798 12.66 5.84017 12.6982 5.84237 12.7368C5.86742 13.175 5.8955 13.6663 6.37932 13.8056C6.91041 13.9585 7.19656 13.4708 7.42441 13.0825C7.42776 13.0768 7.4311 13.0711 7.43443 13.0655C8.45081 11.3343 8.90312 9.45361 8.8054 7.44957Z" fill="white" stroke="#AEAEAE" stroke-width="0.4"/>
<path d="M4.82838 18.1905L4.82835 18.1905C4.62615 18.1076 4.5545 18.0041 4.5384 17.9248C4.52193 17.8437 4.54843 17.7148 4.7031 17.5494L4.7031 17.5494C4.91595 17.3219 5.18266 17.1214 5.461 16.9774L5.46107 16.9773C6.97674 16.1921 8.59991 15.8291 10.3066 15.8514L10.3067 15.8514C10.7885 15.8574 11.2332 15.9126 11.6509 16.2843C11.5982 16.3385 11.5463 16.3923 11.4952 16.4453C10.9413 17.0197 10.4656 17.5131 9.79566 17.7459C8.48417 18.2015 7.14126 18.4746 5.75838 18.3931C5.44106 18.3744 5.11467 18.3079 4.82838 18.1905Z" fill="white" stroke="#AEAEAE" stroke-width="0.4"/>
<path d="M2.3359 10.5269L2.3359 10.5269L1.94825 14.5543C1.94825 14.5543 1.94824 14.5543 1.94824 14.5543C0.912844 13.033 0.284857 11.3667 0.21155 9.52357C0.210207 9.48979 0.208682 9.45685 0.20719 9.42462C0.198751 9.24238 0.191368 9.08293 0.223968 8.92444C0.25283 8.78412 0.314221 8.64447 0.450086 8.50802C1.29058 9.05697 1.98537 9.60549 2.3359 10.5269Z" fill="white" stroke="#AEAEAE" stroke-width="0.4"/>
<path d="M12.2336 2.55141C12.3462 3.89344 12.3892 5.23148 12.0183 6.54035C12.0013 6.60038 11.9852 6.66331 11.9687 6.72748C11.8513 7.18556 11.7177 7.70691 11.1306 7.69051C10.5885 7.67545 10.4264 7.12632 10.2933 6.67505C10.2847 6.64601 10.2762 6.61738 10.2678 6.58932C9.71845 4.76091 9.64298 2.91135 10.1567 1.06001C10.1588 1.0527 10.1608 1.04538 10.1628 1.03805C10.2832 0.605101 10.4115 0.143374 11.0202 0M12.2336 2.55141C12.1558 1.62581 11.6645 0.922819 11.1681 0.212514C11.1187 0.141824 11.0693 0.0710614 11.0202 0M12.2336 2.55141L12.0343 2.56813C12.0343 2.56814 12.0343 2.56814 12.0343 2.56815M12.2336 2.55141L12.0343 2.56815M11.0202 0L10.8557 0.113692C10.8833 0.153712 10.9109 0.193479 10.9385 0.233037M11.0202 0L11.066 0.194673C11.02 0.205527 10.9776 0.218384 10.9385 0.233037M10.9385 0.233037C10.9594 0.263075 10.9803 0.292991 11.0011 0.322807C11.5016 1.0402 11.9613 1.69899 12.0343 2.56815M10.9385 0.233037C10.7592 0.300237 10.6493 0.405216 10.5704 0.528048C10.4679 0.68773 10.4139 0.881784 10.3516 1.10582L10.3495 1.11349M12.0343 2.56815C12.1466 3.90647 12.1863 5.21381 11.8259 6.48582C11.8082 6.54832 11.7915 6.61336 11.7753 6.67671L11.7741 6.68116C11.7573 6.7468 11.7408 6.81102 11.7229 6.87434C11.6868 7.00189 11.6474 7.11632 11.5967 7.21219C11.5465 7.30719 11.4894 7.37584 11.4217 7.42068C11.3563 7.46404 11.2674 7.49425 11.1362 7.49058L11.1362 7.49058C10.938 7.48508 10.8113 7.38363 10.7077 7.20682C10.6101 7.04028 10.5488 6.83342 10.4854 6.61928C10.4768 6.59023 10.4681 6.56104 10.4594 6.53181L10.4594 6.53177C9.91966 4.73555 9.84686 2.92471 10.3494 1.11362M10.3494 1.11362L10.1567 1.06001L10.3495 1.11349M10.3494 1.11362C10.3494 1.11358 10.3494 1.11353 10.3495 1.11349M10.3494 1.11362L10.3495 1.11349" fill="white" stroke="#AEAEAE" stroke-width="0.4"/>
<path d="M16.2001 10.58L16.2001 10.58C16.3607 10.4643 16.4931 10.3589 16.5819 10.2148C16.6509 10.1027 16.7006 9.95494 16.6957 9.73943C16.5001 9.71195 16.3012 9.67644 16.1076 9.64187C15.9639 9.6162 15.8231 9.59106 15.6887 9.57012C15.3096 9.51105 14.9548 9.47969 14.6196 9.52928L14.6196 9.52928C13.2017 9.73891 11.8593 10.2679 10.6463 11.07L10.6463 11.07C10.3974 11.2345 10.1619 11.4211 9.97593 11.6335C9.75396 11.8872 9.73297 12.0582 9.76504 12.1503C9.79727 12.2428 9.92028 12.3628 10.2455 12.424L10.2455 12.424C10.3574 12.445 10.4698 12.4571 10.5781 12.4564L16.2001 10.58ZM16.2001 10.58C14.5207 11.7905 12.6537 12.4404 10.5782 12.4564L16.2001 10.58Z" fill="white" stroke="#AEAEAE" stroke-width="0.4"/>
</svg>
