<svg width="19" height="9" viewBox="0 0 19 9" fill="none" xmlns="http://www.w3.org/2000/svg">
<path d="M18.8467 4.075C16.5476 1.55 13.2776 0.075 9.85445 0C9.80336 0 9.72672 0 9.67563 0C9.65008 0 9.65008 0 9.62454 0C9.59899 0 9.5479 0 9.52235 0C5.97143 0 2.54824 1.5 0.172437 4.1C-0.057479 4.325 -0.057479 4.7 0.172437 4.925C0.55563 5.325 0.938824 5.725 1.37311 6.075C1.50084 6.175 1.62857 6.225 1.78185 6.225C1.96067 6.225 2.1395 6.15 2.26723 6C2.49714 5.75 2.4716 5.35 2.19059 5.125C1.96067 4.925 1.73076 4.725 1.50084 4.5C2.75261 3.25 4.31092 2.325 5.97143 1.8C5.38387 2.55 5.05177 3.5 5.05177 4.5C5.05177 6.975 7.12101 9 9.65009 9C12.1792 9 14.2484 6.975 14.2484 4.5C14.2484 3.55 13.9418 2.675 13.4309 1.95C14.9637 2.5 16.3432 3.375 17.4928 4.5C17.3139 4.675 17.1351 4.85 16.9563 5C16.7008 5.225 16.6753 5.625 16.9052 5.875C17.1351 6.125 17.5439 6.15 17.7993 5.925C18.157 5.6 18.5146 5.25 18.8467 4.9C19.0511 4.675 19.0511 4.325 18.8467 4.075Z" fill="#0862BE"/>
</svg>
