<svg width="14" height="15" viewBox="0 0 14 15" fill="none" xmlns="http://www.w3.org/2000/svg">
<path d="M12.4992 1.396C12.1689 1.03404 11.7762 0.746809 11.3438 0.550808C10.9113 0.354807 10.4476 0.253906 9.97919 0.253906C9.51082 0.253906 9.04707 0.354807 8.6146 0.550808C8.18213 0.746809 7.78947 1.03404 7.45918 1.396L6.80464 2.14511C6.6974 2.28159 6.64137 2.45715 6.64773 2.6367C6.6541 2.81625 6.72239 2.98658 6.83896 3.11364C6.95553 3.24069 7.11179 3.31513 7.27653 3.32206C7.44126 3.329 7.60233 3.26793 7.72755 3.15105L8.38864 2.39481C8.81863 1.94652 9.39071 1.69632 9.98573 1.69632C10.5808 1.69632 11.1528 1.94652 11.5828 2.39481C11.7924 2.62277 11.9587 2.89355 12.0721 3.19164C12.1856 3.48973 12.244 3.80929 12.244 4.13202C12.244 4.45474 12.1856 4.7743 12.0721 5.07239C11.9587 5.37048 11.7924 5.64126 11.5828 5.86922L5.61336 12.3829C5.18337 12.8311 4.61129 13.0813 4.01626 13.0813C3.42124 13.0813 2.84916 12.8311 2.41917 12.3829C2.20959 12.1549 2.04331 11.8841 1.92986 11.586C1.8164 11.2879 1.75801 10.9684 1.75801 10.6456C1.75801 10.3229 1.8164 10.0034 1.92986 9.70528C2.04331 9.40718 2.20959 9.1364 2.41917 8.90844L3.10645 8.1522L5.4759 5.57671C5.61772 5.42594 5.80798 5.34154 6.00609 5.34154C6.2042 5.34154 6.39446 5.42594 6.53627 5.57671C6.67419 5.73008 6.75144 5.93627 6.75144 6.15103C6.75144 6.36578 6.67419 6.57198 6.53627 6.72534L4.16681 9.30797C4.0745 9.40775 4.01155 9.53524 3.98597 9.67418C3.9604 9.81312 3.97337 9.95722 4.02322 10.0881C4.07308 10.219 4.15756 10.3307 4.2659 10.409C4.37424 10.4874 4.50153 10.5288 4.63154 10.5279C4.71814 10.5275 4.80381 10.5084 4.88358 10.4717C4.96336 10.4349 5.03565 10.3813 5.09627 10.3139L7.45918 7.73841C7.84489 7.3171 8.06152 6.74622 8.06152 6.15103C8.06152 5.55584 7.84489 4.98495 7.45918 4.56364C7.067 4.15502 6.54536 3.92698 6.00282 3.92698C5.46027 3.92698 4.93863 4.15502 4.54645 4.56364L2.19008 7.13913L1.5028 7.85256C1.17187 8.21327 0.909364 8.64148 0.730265 9.11277C0.551166 9.58405 0.458984 10.0892 0.458984 10.5993C0.458984 11.1094 0.551166 11.6145 0.730265 12.0858C0.909364 12.5571 1.17187 12.9853 1.5028 13.346C1.83374 13.7067 2.22661 13.9928 2.65899 14.188C3.09138 14.3832 3.5548 14.4837 4.02281 14.4837C4.49082 14.4837 4.95424 14.3832 5.38663 14.188C5.81901 13.9928 6.21188 13.7067 6.54282 13.346L12.4992 6.85376C12.8313 6.49376 13.0948 6.06577 13.2746 5.59439C13.4545 5.12302 13.547 4.61755 13.547 4.10704C13.547 3.59654 13.4545 3.09107 13.2746 2.6197C13.0948 2.14832 12.8313 1.72033 12.4992 1.36033V1.396Z" fill="#B9CBDC"/>
</svg>
