<svg width="19" height="17" viewBox="0 0 19 17" fill="none" xmlns="http://www.w3.org/2000/svg">
<path d="M16.15 1.88889H15.2V0.944444C15.2 0.693962 15.0999 0.453739 14.9218 0.276621C14.7436 0.0995037 14.502 0 14.25 0C13.998 0 13.7564 0.0995037 13.5782 0.276621C13.4001 0.453739 13.3 0.693962 13.3 0.944444V1.88889H5.7V0.944444C5.7 0.693962 5.59991 0.453739 5.42175 0.276621C5.24359 0.0995037 5.00196 0 4.75 0C4.49804 0 4.25641 0.0995037 4.07825 0.276621C3.90009 0.453739 3.8 0.693962 3.8 0.944444V1.88889H2.85C2.09413 1.88889 1.36922 2.1874 0.834746 2.71875C0.300267 3.25011 0 3.97078 0 4.72222V14.1667C0 14.9181 0.300267 15.6388 0.834746 16.1701C1.36922 16.7015 2.09413 17 2.85 17H16.15C16.9059 17 17.6308 16.7015 18.1653 16.1701C18.6997 15.6388 19 14.9181 19 14.1667V4.72222C19 3.97078 18.6997 3.25011 18.1653 2.71875C17.6308 2.1874 16.9059 1.88889 16.15 1.88889ZM2.85 3.77778H3.8V4.72222C3.8 4.9727 3.90009 5.21293 4.07825 5.39005C4.25641 5.56716 4.49804 5.66667 4.75 5.66667C5.00196 5.66667 5.24359 5.56716 5.42175 5.39005C5.59991 5.21293 5.7 4.9727 5.7 4.72222V3.77778H13.3V4.72222C13.3 4.9727 13.4001 5.21293 13.5782 5.39005C13.7564 5.56716 13.998 5.66667 14.25 5.66667C14.502 5.66667 14.7436 5.56716 14.9218 5.39005C15.0999 5.21293 15.2 4.9727 15.2 4.72222V3.77778H16.15C16.402 3.77778 16.6436 3.87728 16.8218 4.0544C16.9999 4.23152 17.1 4.47174 17.1 4.72222V6.61111H1.9V4.72222C1.9 4.47174 2.00009 4.23152 2.17825 4.0544C2.35641 3.87728 2.59804 3.77778 2.85 3.77778ZM16.15 15.1111H2.85C2.59804 15.1111 2.35641 15.0116 2.17825 14.8345C2.00009 14.6574 1.9 14.4171 1.9 14.1667V8.5H17.1V14.1667C17.1 14.4171 16.9999 14.6574 16.8218 14.8345C16.6436 15.0116 16.402 15.1111 16.15 15.1111Z" fill="#053C75"/>
</svg>
