<svg width="13" height="7" viewBox="0 0 13 7" fill="none" xmlns="http://www.w3.org/2000/svg">
<path d="M8.92089 6.34647C8.99666 6.42267 9.08672 6.48317 9.18593 6.5245C9.28545 6.56596 9.39219 6.58731 9.5 6.58731C9.60781 6.58731 9.71455 6.56596 9.81407 6.5245C9.91342 6.48311 10.0036 6.42248 10.0795 6.34612C10.0796 6.34599 10.0797 6.34587 10.0798 6.34574L12.3458 4.0798L12.3458 4.07984L12.3496 4.0759C12.4234 3.99884 12.4813 3.90809 12.5202 3.80876C12.6006 3.61126 12.6006 3.39012 12.5202 3.19262C12.4813 3.0933 12.4234 3.00254 12.3496 2.92548L12.3496 2.92544L12.3458 2.92158L10.0791 0.654914C9.92552 0.501325 9.71721 0.415039 9.5 0.415039C9.28279 0.415039 9.07448 0.501325 8.92089 0.654914L8.92089 0.654914C8.7673 0.808504 8.68101 1.01682 8.68101 1.23402C8.68101 1.45123 8.7673 1.65954 8.92089 1.81313L8.92127 1.81352L9.79558 2.68402H1.56667C1.35007 2.68402 1.14235 2.77007 0.989196 2.92322C0.836041 3.07637 0.75 3.2841 0.75 3.50069C0.75 3.71728 0.836041 3.92501 0.989196 4.07816C1.14235 4.23132 1.35007 4.31736 1.56667 4.31736H9.79558L8.92161 5.18752C8.92158 5.18756 8.92154 5.1876 8.9215 5.18764C8.84501 5.26354 8.78429 5.35382 8.74285 5.45329C8.70139 5.5528 8.68005 5.65955 8.68005 5.76736C8.68005 5.87517 8.70139 5.98191 8.74285 6.08143C8.78418 6.18063 8.84468 6.2707 8.92089 6.34647ZM8.92089 6.34647C8.92065 6.34623 8.92041 6.34598 8.92017 6.34574L9.09765 6.1697L8.92161 6.34719C8.92137 6.34695 8.92113 6.34671 8.92089 6.34647Z" fill="#FF4343" stroke="#FE4350" stroke-width="0.5"/>
</svg>
