<svg width="22" height="21" viewBox="0 0 22 21" fill="none" xmlns="http://www.w3.org/2000/svg">
<path d="M20.5087 0.0078125C20.4965 0.0083385 20.4844 0.00939488 20.4723 0.0109787C18.5239 0.131253 17.5929 1.52001 17.2299 2.16494C17.0094 2.12075 16.7903 2.06877 16.5493 2.0685C14.5421 2.06635 12.5814 3.05737 12.0778 5.04769C11.9494 5.55525 11.9999 5.99596 12.0485 6.3614C12.0972 6.72685 12.1375 7.01267 12.0778 7.28543C12.0023 7.62988 11.8743 7.76372 11.6573 7.92173C11.4402 8.07975 11.1183 8.22509 10.7822 8.48769C10.4462 8.75029 10.1168 9.14774 9.9341 9.75319C9.76775 10.3044 9.745 11.0931 9.82423 12.0818C9.05373 12.4989 8.44549 12.923 8.13189 13.4706C7.77815 14.0884 7.70672 14.7838 7.70742 15.6056C7.70738 15.6228 7.70844 15.64 7.71059 15.657C7.93668 17.4459 7.85055 18.3741 7.28928 19.6756C7.25874 19.7466 7.2492 19.8247 7.26176 19.9009C7.27433 19.977 7.30849 20.0481 7.36028 20.1058C7.41207 20.1636 7.47938 20.2056 7.55439 20.2271C7.6294 20.2487 7.70904 20.2487 7.7841 20.2274C9.93013 19.6262 9.74462 19.8332 11.6328 19.6401C13.2696 19.5729 14.3944 19.0491 15.0894 18.2299C15.7378 17.4656 15.9475 16.4744 16.0371 15.4673C18.0378 14.1068 18.5145 12.7652 18.493 11.7356C18.482 11.206 18.382 10.7652 18.3737 10.4701C18.3653 10.1751 18.3734 10.0915 18.5966 9.94527C20.3435 8.80041 20.7656 6.86587 20.3474 5.27296C20.1925 4.68288 19.8683 4.24283 19.6178 3.764C19.5736 3.55621 19.7216 3.0753 20.1063 2.61628C20.4952 2.15229 21.0744 1.72428 21.6556 1.53495C21.7281 1.51155 21.7927 1.46877 21.8422 1.41133C21.8916 1.3539 21.924 1.28406 21.9357 1.20957C21.9474 1.13508 21.938 1.05884 21.9085 0.989304C21.879 0.919771 21.8306 0.859663 21.7686 0.815646L20.7371 0.0860663C20.6705 0.0380703 20.591 0.0108188 20.5087 0.0078125ZM14.3843 1.17055C13.437 1.20274 12.5254 1.54444 11.8035 2.28192C11.4353 2.65806 11.2539 3.06542 11.1111 3.40593C10.9682 3.74643 10.859 4.01496 10.6692 4.22167C10.4295 4.48271 10.2511 4.53268 9.98311 4.56235C9.71515 4.59201 9.36367 4.5577 8.93972 4.61926C8.51577 4.68074 8.02909 4.86573 7.56435 5.29983C7.14119 5.69511 6.72132 6.3662 6.28936 7.26171C5.41108 7.24248 4.66996 7.30988 4.12118 7.62927C3.5021 7.98957 3.08693 8.55582 2.6715 9.26786C2.66353 9.28257 2.65693 9.29736 2.65095 9.31291C1.94116 10.9738 1.39848 11.7378 0.253536 12.5877C-0.0255158 12.7933 0.0614266 13.2262 0.398978 13.3102C2.56609 13.8504 2.64747 14.4103 4.40257 15.0231C5.3691 15.3605 6.19085 15.4655 6.88615 15.4404C6.89317 14.8131 6.94788 14.1898 7.1715 13.5916C6.4155 14.056 5.42831 14.1046 4.60572 13.6327C3.41832 12.9516 3.00681 11.4349 3.68959 10.2599C4.15901 9.45205 5.02697 9.00974 5.90995 9.0331C6.3113 9.04371 6.71586 9.15065 7.08692 9.3635C8.0824 9.93454 8.53163 11.0929 8.24966 12.1451C8.47992 11.965 8.72555 11.7999 8.98478 11.6455C8.96005 11.1525 8.96234 10.6972 9.00533 10.2749C7.93185 9.55686 7.5785 8.12123 8.23227 6.99612C8.57366 6.40862 9.12857 6.0141 9.74518 5.85156C9.97641 5.79061 10.2158 5.76255 10.4566 5.76935C10.6991 5.77615 10.9418 5.82363 11.1783 5.90294C11.1647 5.59533 11.1781 5.24132 11.2771 4.85007C11.8093 2.74682 13.6874 1.57456 15.6735 1.31046C15.2457 1.20777 14.8112 1.15604 14.3843 1.17055ZM10.2685 6.5843C9.73736 6.61932 9.23672 6.90842 8.94921 7.4032C8.57066 8.05464 8.69595 8.84752 9.19661 9.36587C9.43941 8.6781 9.85213 8.1734 10.2692 7.84743C10.6907 7.51803 11.0702 7.33552 11.1672 7.26488C11.33 7.14631 11.226 7.31304 11.2699 7.11232C11.2801 7.06595 11.2789 6.97079 11.2692 6.8412C11.2516 6.83026 11.2358 6.81673 11.2178 6.80642C10.917 6.6339 10.5871 6.5633 10.2685 6.5843ZM5.72657 9.84963C5.19454 9.88522 4.69167 10.1761 4.40416 10.6709C3.94414 11.4626 4.21554 12.4644 5.01754 12.9245C5.81954 13.3845 6.83163 13.1185 7.29165 12.3269C7.75166 11.5352 7.47789 10.531 6.67589 10.0709C6.37514 9.89843 6.04578 9.82827 5.72657 9.84963ZM14.3021 16.2419C14.3748 16.2383 14.4471 16.2537 14.5118 16.2866C14.5765 16.3195 14.6313 16.3686 14.6706 16.4291C14.7099 16.4896 14.7323 16.5592 14.7356 16.631C14.7389 16.7028 14.723 16.7742 14.6894 16.8379C13.7399 18.7136 11.4249 18.6971 11.4249 18.6971C11.3705 18.6972 11.3167 18.6867 11.2665 18.6662C11.2162 18.6457 11.1706 18.6156 11.1321 18.5777C11.0937 18.5398 11.0632 18.4948 11.0423 18.4452C11.0215 18.3956 11.0108 18.3425 11.0108 18.2888C11.0108 18.2351 11.0215 18.182 11.0423 18.1324C11.0632 18.0828 11.0937 18.0378 11.1321 17.9999C11.1706 17.9619 11.2162 17.9319 11.2665 17.9114C11.3167 17.8909 11.3705 17.8804 11.4249 17.8805C11.4249 17.8805 13.248 17.8625 13.9511 16.4735C13.9832 16.4073 14.0327 16.3509 14.0944 16.3101C14.1562 16.2694 14.2279 16.2458 14.3021 16.2419Z" fill="#428D36"/>
</svg>
