<svg width="21" height="20" viewBox="0 0 21 20" fill="none" xmlns="http://www.w3.org/2000/svg">
<path d="M2.61343 16.919L3.11465 16.6292V13.6113L0 15.4086L2.61343 16.919Z" fill="#626262"/>
<path d="M20.9269 3.8885L14.1906 0L0 8.19309L6.7358 12.081L20.9269 3.8885Z" fill="#626262"/>
<path d="M3.70908 10.9766L3.6598 10.9871L3.61519 11.006L3.5767 11.0355L3.54259 11.0745L3.51431 11.1253L3.4936 11.185L3.4834 11.2358L3.8782 11.0069L3.82892 10.99L3.76594 10.9766H3.70908Z" fill="#626262"/>
<path d="M2.76021 16.9818L2.82349 16.9961H2.87801L2.93021 16.985L2.97336 16.9661L3.01331 16.9361L3.04713 16.8999L3.07425 16.8483L3.09611 16.7879L3.10574 16.7363L2.71094 16.9646L2.76021 16.9818Z" fill="#626262"/>
<path d="M17.6652 6.33398L6.7718 12.6254C6.7718 12.6254 6.7715 12.6254 6.7712 12.6257C6.7601 12.6318 6.7479 12.635 6.7353 12.635C6.7228 12.635 6.7103 12.6315 6.6992 12.6254H6.6989L3.97438 11.0512L3.47461 11.3407V16.6713L17.6649 8.47768V6.33398H17.6652Z" fill="#626262"/>
<path d="M6.80859 12.4373L17.702 6.1459L20.9998 4.24335V4.01562L6.80859 12.2081V12.4373Z" fill="#626262"/>
<path d="M6.80859 19.6562L20.9998 11.4623V11.2305L6.80859 19.4276V19.6562Z" fill="#626262"/>
<path d="M17.8 9.01208L17.7985 9.01033L17.7531 8.91003V8.90624L17.7504 8.90303L17.7163 8.80011L17.7166 8.79777L17.7152 8.79544L17.6895 8.69485L17.6901 8.69135L17.6883 8.68785L17.6732 8.59133L17.674 8.58871L17.6723 8.5855L17.6717 8.57617L3.47559 16.7728L3.47938 16.8489L3.49483 16.9407L3.51757 17.0337L3.55081 17.132L3.59222 17.227L3.6412 17.3215L3.69748 17.4099L3.75929 17.4935L3.82723 17.5714L3.89604 17.6402L3.96719 17.6959L4.03367 17.7385L18.231 9.54334L18.2231 9.53809L18.2213 9.53576L18.2184 9.53459L18.1409 9.47365L18.1385 9.46928L18.1342 9.46753L18.0601 9.39318L18.0595 9.39114L18.0572 9.39026L17.986 9.30949L17.9849 9.30658L17.9828 9.3057L17.9166 9.21852L17.9158 9.21561L17.9123 9.2124L17.8542 9.11822L17.8539 9.11589L17.8516 9.11326L17.8003 9.01383L17.8 9.01208Z" fill="#626262"/>
<path d="M6.736 19.3014L20.9271 11.1042L18.3134 9.59766L4.12109 17.7899L6.736 19.3014Z" fill="#626262"/>
</svg>
