<svg width="29" height="28" viewBox="0 0 29 28" fill="none" xmlns="http://www.w3.org/2000/svg">
<g filter="url(#filter0_d)">
<path d="M6.61343 16.919L7.11465 16.6292V13.6113L4 15.4086L6.61343 16.919Z" fill="#626262"/>
<path d="M24.9269 3.8885L18.1906 0L4 8.19309L10.7358 12.081L24.9269 3.8885Z" fill="#626262"/>
<path d="M7.70908 10.9766L7.6598 10.9871L7.61519 11.006L7.5767 11.0355L7.54259 11.0745L7.51431 11.1253L7.4936 11.185L7.4834 11.2358L7.8782 11.0069L7.82892 10.99L7.76594 10.9766H7.70908Z" fill="#626262"/>
<path d="M6.76021 16.9818L6.82349 16.9961H6.87801L6.93021 16.985L6.97336 16.9661L7.01331 16.9361L7.04713 16.8999L7.07425 16.8483L7.09611 16.7879L7.10574 16.7363L6.71094 16.9646L6.76021 16.9818Z" fill="#626262"/>
<path d="M21.6652 6.33398L10.7718 12.6254C10.7718 12.6254 10.7715 12.6254 10.7712 12.6257C10.7601 12.6318 10.7479 12.635 10.7353 12.635C10.7228 12.635 10.7103 12.6315 10.6992 12.6254H10.6989L7.97438 11.0512L7.47461 11.3407V16.6713L21.6649 8.47768V6.33398H21.6652Z" fill="#626262"/>
<path d="M10.8086 12.4373L21.702 6.1459L24.9998 4.24335V4.01562L10.8086 12.2081V12.4373Z" fill="#626262"/>
<path d="M10.8086 19.6562L24.9998 11.4623V11.2305L10.8086 19.4276V19.6562Z" fill="#626262"/>
<path d="M21.8 9.01208L21.7985 9.01033L21.7531 8.91003V8.90624L21.7504 8.90303L21.7163 8.80011L21.7166 8.79777L21.7152 8.79544L21.6895 8.69485L21.6901 8.69135L21.6883 8.68785L21.6732 8.59133L21.674 8.58871L21.6723 8.5855L21.6717 8.57617L7.47559 16.7728L7.47938 16.8489L7.49483 16.9407L7.51757 17.0337L7.55081 17.132L7.59222 17.227L7.6412 17.3215L7.69748 17.4099L7.75929 17.4935L7.82723 17.5714L7.89604 17.6402L7.96719 17.6959L8.03367 17.7385L22.231 9.54334L22.2231 9.53809L22.2213 9.53576L22.2184 9.53459L22.1409 9.47365L22.1385 9.46928L22.1342 9.46753L22.0601 9.39318L22.0595 9.39114L22.0572 9.39026L21.986 9.30949L21.9849 9.30658L21.9828 9.3057L21.9166 9.21852L21.9158 9.21561L21.9123 9.2124L21.8542 9.11822L21.8539 9.11589L21.8516 9.11326L21.8003 9.01383L21.8 9.01208Z" fill="#626262"/>
<path d="M10.736 19.3014L24.9271 11.1042L22.3134 9.59766L8.12109 17.7899L10.736 19.3014Z" fill="#626262"/>
</g>
<defs>
<filter id="filter0_d" x="0" y="0" width="28.9998" height="27.6562" filterUnits="userSpaceOnUse" color-interpolation-filters="sRGB">
<feFlood flood-opacity="0" result="BackgroundImageFix"/>
<feColorMatrix in="SourceAlpha" type="matrix" values="0 0 0 0 0 0 0 0 0 0 0 0 0 0 0 0 0 0 127 0"/>
<feOffset dy="4"/>
<feGaussianBlur stdDeviation="2"/>
<feColorMatrix type="matrix" values="0 0 0 0 0 0 0 0 0 0 0 0 0 0 0 0 0 0 0.25 0"/>
<feBlend mode="normal" in2="BackgroundImageFix" result="effect1_dropShadow"/>
<feBlend mode="normal" in="SourceGraphic" in2="effect1_dropShadow" result="shape"/>
</filter>
</defs>
</svg>
