<svg width="19" height="22" viewBox="0 0 19 22" fill="none" xmlns="http://www.w3.org/2000/svg">
<path d="M1.4161 9.77097C1.74311 7.69157 2.86038 5.86404 4.56208 4.62512C5.82706 3.70409 7.30245 3.1907 8.83062 3.12213L7.80524 4.1475L8.73885 5.08112L11.2796 2.54047L8.73907 0L7.80546 0.933614L8.67926 1.80742C6.92695 1.90327 5.23717 2.50033 3.78497 3.55771C1.79808 5.00423 0.493578 7.13799 0.111735 9.56588C-0.231422 11.7487 0.221895 13.9826 1.3882 15.856L2.50908 15.1582C1.51033 13.5538 1.12215 11.6407 1.4161 9.77097Z" fill="#859EB9"/>
<path d="M3.33664 16.2598L2.35352 17.1411C2.85652 17.7022 3.42695 18.2001 4.04897 18.621L4.78893 17.5275C4.25626 17.1671 3.7676 16.7405 3.33664 16.2598Z" fill="#859EB9"/>
<path d="M17.201 6.14453L16.0801 6.84233C17.0788 8.44664 17.4671 10.3599 17.1731 12.2295C16.8461 14.3089 15.7288 16.1364 14.0271 17.3754C12.7621 18.2963 11.2867 18.8097 9.75859 18.8783L10.7839 17.853L9.85031 16.9194L7.30957 19.4601L9.85013 22.0005L10.7837 21.0669L9.9102 20.1934C11.6624 20.0974 13.3521 19.5 14.8042 18.4428C16.7911 16.9963 18.0956 14.8625 18.4774 12.4346C18.8206 10.2518 18.3673 8.01792 17.201 6.14453Z" fill="#859EB9"/>
<path d="M15.2531 5.73817L16.2362 4.85684C15.7332 4.29574 15.1628 3.79783 14.5407 3.37695L13.8008 4.47046C14.3335 4.83087 14.8221 5.25738 15.2531 5.73817Z" fill="#859EB9"/>
<path d="M14.3767 11.0123C14.3767 8.15398 12.0596 5.83691 9.20127 5.83691C6.3429 5.83691 4.02588 8.15398 4.02588 11.0123C4.02588 13.8706 6.3429 16.1877 9.20127 16.1877C12.0596 16.1877 14.3767 13.8706 14.3767 11.0123ZM6.627 13.0483L7.32907 12.0304C7.73855 12.4866 8.67467 12.8261 9.3183 12.8377C9.85656 12.8494 10.3596 12.5687 10.3596 12.1473C10.3596 11.7495 10.0321 11.5856 9.21293 11.5389C8.12475 11.457 6.82589 11.0592 6.82589 9.7486C6.82589 8.69127 7.69348 8.17837 8.57776 8.0109V7.20857H9.82487V7.97543C10.4589 8.04453 10.9865 8.25112 11.5064 8.70729L10.7107 9.64346C10.3012 9.25726 9.83319 9.1284 9.28309 9.1284C8.60448 9.1284 8.23003 9.33912 8.23003 9.70186C8.23003 10.0763 8.56935 10.2869 9.30655 10.3338C10.3948 10.4039 11.7755 10.6496 11.7755 12.1824C11.7755 13.0849 11.1222 13.8764 9.82487 14.0446V14.8161H8.57776V14.036C7.90804 13.948 7.24844 13.6957 6.627 13.0483Z" fill="#859EB9"/>
</svg>
