<svg width="17" height="15" viewBox="0 0 17 15" fill="none" xmlns="http://www.w3.org/2000/svg">
<path d="M10.0287 0.598933C9.99479 0.474664 9.85922 0.418178 9.74625 0.452069L2.74199 2.65502C2.7081 2.66632 2.6855 2.67762 2.65161 2.70021H10.6839L10.0287 0.598933Z" fill="#0862BE"/>
<path d="M13.6096 2.69978L13.3158 1.03909C13.2932 0.914825 13.1803 0.835745 13.056 0.858339L10.9321 1.23115L11.4179 2.69978H13.6096Z" fill="#0862BE"/>
<path d="M15.8367 6.84428V3.83018C15.8367 3.31661 15.4171 2.90234 14.8976 2.90234H2.13176C1.61228 2.90234 1.19263 3.31661 1.19263 3.83018V13.2068C1.19263 13.7204 1.61228 14.1347 2.13176 14.1347H14.8976C15.4171 14.1347 15.8367 13.7204 15.8367 13.2068V9.83382C16.0391 9.69058 16.153 9.43432 16.153 9.17375V7.51824C16.1629 7.25978 16.0527 6.98685 15.8367 6.84428ZM14.8848 9.94342V13.1828H2.14451V3.85423H14.8848V6.74339H12.1411C11.9349 6.74339 11.7655 6.85227 11.6555 6.99403C11.5457 7.13546 11.4844 7.32021 11.4844 7.51306V9.17375C11.4844 9.54673 11.7248 9.94342 12.1411 9.94342H14.8848ZM13.066 8.34905C13.066 8.45952 12.9746 8.55094 12.8641 8.55094C12.7536 8.55094 12.6622 8.45952 12.6622 8.34905C12.6622 8.23859 12.7536 8.14717 12.8641 8.14717C12.9746 8.14717 13.066 8.23859 13.066 8.34905Z" fill="#0862BE" stroke="#0862BE" stroke-width="0.5"/>
</svg>
