<svg width="16" height="28" viewBox="0 0 16 28" fill="none" xmlns="http://www.w3.org/2000/svg">
<path fill-rule="evenodd" clip-rule="evenodd" d="M8.62699 0.351562C7.0426 1.68824 6.15708 4.02126 7.91817 5.85885V6.06333C7.04775 5.20903 5.68945 4.87109 4.47972 4.95618C4.15721 7.095 5.12129 9.54707 7.91817 9.57966V10.4127C7.04775 9.55839 5.68945 9.22044 4.47972 9.30553C4.34111 10.2298 4.7861 11.5243 5.0417 12.4273C5.59407 13.3012 6.53037 13.9129 7.91817 13.929V15.1274C7.29717 14.5178 6.42778 14.1716 5.54158 14.0539C6.06616 15.6441 6.67069 17.1719 7.27453 18.5896C7.47729 18.6225 7.69207 18.641 7.91817 18.6438V19.4768C7.79225 19.3529 7.65502 19.2394 7.50989 19.1368C8.16313 20.6423 8.86235 22.1258 9.52108 23.6282L9.71047 23.6103C10.8591 22.0808 12.1166 20.5942 13.1698 19.0019L13.1681 18.9875C11.8568 18.8956 10.3709 19.3001 9.52108 20.3208V19.1237C12.4785 19.2129 13.4985 16.6936 13.1681 14.5023C11.8568 14.4104 10.3709 14.8149 9.52108 15.8356V14.5449C12.4785 14.6341 13.4985 12.1148 13.1681 9.92344C11.8568 9.83149 10.3709 10.236 9.52108 11.2567V10.0596C12.4785 10.1488 13.4985 7.62954 13.1681 5.43822C11.8568 5.34627 10.3709 5.75077 9.52108 6.77147V5.90894C11.3961 3.98455 10.2464 1.58291 8.62699 0.351562ZM3.66042 2.36825C0.555793 0.884725 -2.54162 18.1929 7.44127 26.4319C8.75428 27.5168 8.76937 27.8705 10.5438 27.4495C15.5986 26.2494 16.1599 17.445 14.4897 17.9027C13.6268 19.8212 10.9329 22.8435 9.44492 24.9992C7.64472 20.4467 2.04549 10.7626 3.66042 2.36825Z" fill="#FCBD22"/>
</svg>
